<svg viewBox="0 0 749.1 257.4" xmlns="http://www.w3.org/2000/svg"><g fill="#fff"><path d="m35.61 19.5v68.25h63.2v22.75h-91.01v-91zm-26.29 1.52v87.97h87.97v-19.72h-63.2v-68.26h-24.77z"/><path d="m141.53 19.5v91h-33.37v-91zm-31.85 1.52v87.97h30.33v-87.98h-30.33z"/><path d="m293.67 19.5v22.75h-94.8v11.38h87.21v22.75h-87.21v34.13h-41.71v-91.01zm-134.99 1.52v87.97h38.68v-34.13h87.21v-19.72h-87.21v-14.41h94.8v-19.72h-133.47z"/><path d="m399.07 19.5v22.75h-36.65v68.25h-27.81v-68.25h-36.65v-22.75h101.12zm-99.6 1.52v19.72h36.65v68.25h24.77v-68.26h36.65v-19.72h-98.08z"/><path d="m450.23 19.5v91h-27.81v-91zm-26.29 1.52v87.97h24.77v-87.98h-24.77z"/><path d="m560.59 19.5v22.75h-36.65v68.25h-27.81v-68.25h-36.65v-22.75h101.12zm-99.6 1.52v19.72h36.65v68.25h24.77v-68.26h36.65v-19.72h-98.08z"/></g><path d="m137.21 133.51v91h-33.37v-34.13h-60.67v34.13h-33.37v-91h33.37v34.13h60.67v-34.13z" fill="#c8102e"/><path d="m152.8 224.51v-91h33.37v91z" fill="#c8102e"/><path d="m337.58 176.48v48.03h-24.27v-3.98c-11.34 4.76-26.56 6.5-45.43 6.5-42.54 0-69.84-10.11-69.84-48.03 0-35.39 24.27-48.03 69.84-48.03 39.54 0 63.04 9.58 68.48 35.39h-37.42c-4.36-9.82-14.98-12.64-31.05-12.64-21.31 0-33.44 5.06-33.44 25.28s12.13 25.28 33.44 25.28c12.65 0 22.08-1.81 27.61-7.58h-24.65v-20.22h66.74z" fill="#c8102e"/><path d="m478.58 133.51v91h-33.37v-34.13h-60.67v34.13h-33.37v-91h33.37v34.13h60.67v-34.13z" fill="#c8102e"/><path d="m606.41 201.76v22.75h-112.24v-91h112.24v22.75h-78.87v11.38h72.8v22.75h-72.8v11.38h78.87z" fill="#c8102e"/><path d="m693.58 201.76h-40.19v22.75h-33.37v-91h83.42c22.58 0 40.95 15.31 40.95 34.13 0 11.46-6.81 21.61-17.23 27.8l18.41 29.07h-37.58zm-40.19-22.75h43.99c7.53 0 13.65-5.1 13.65-11.38s-6.12-11.38-13.65-11.38h-43.99v22.75z" fill="#c8102e"/></svg>