<?xml version="1.0" encoding="UTF-8"?><svg id="Layer_2" xmlns="http://www.w3.org/2000/svg" viewBox="0 0 749.1 257.4"><defs><style>.cls-1{fill:#c8102e;}.cls-1,.cls-2{stroke-width:0px;}.cls-2{fill:#fff;}</style></defs><g id="Layer_1-2"><path class="cls-2" d="m98.8,87.75v22.75H7.8V19.5h27.81v68.25h63.2Z"/><path class="cls-2" d="m108.16,110.5V19.5h33.37v91h-33.37Z"/><path class="cls-2" d="m157.17,110.5V19.5h136.51v22.75h-94.8v11.38h87.21v22.75h-87.21v34.13h-41.71Z"/><path class="cls-2" d="m399.07,42.25h-36.65v68.25h-27.81V42.25h-36.65v-22.75h101.12v22.75Z"/><path class="cls-2" d="m450.23,19.5v91h-27.81V19.5h27.81Zm-26.29,1.52v87.97h24.77V21.01h-24.77Z"/><path class="cls-2" d="m560.59,19.5v22.75h-36.65v68.25h-27.81V42.25h-36.65v-22.75h101.12Zm-99.6,1.52v19.72h36.65v68.25h24.77V40.73h36.65v-19.72h-98.08Z"/><path class="cls-1" d="m137.21,133.51v91h-33.37v-34.13h-60.67v34.13H9.8v-91h33.37v34.13h60.67v-34.13h33.37Z"/><path class="cls-1" d="m152.8,224.51v-91h33.37v91h-33.37Z"/><path class="cls-1" d="m337.58,176.48v48.03h-24.27v-3.98c-11.34,4.76-26.56,6.5-45.43,6.5-42.54,0-69.84-10.11-69.84-48.03,0-35.39,24.27-48.03,69.84-48.03,39.54,0,63.04,9.58,68.48,35.39h-37.42c-4.36-9.82-14.98-12.64-31.05-12.64-21.31,0-33.44,5.06-33.44,25.28s12.13,25.28,33.44,25.28c12.65,0,22.08-1.81,27.61-7.58h-24.65v-20.22h66.74Z"/><path class="cls-1" d="m478.58,133.51v91h-33.37v-34.13h-60.67v34.13h-33.37v-91h33.37v34.13h60.67v-34.13h33.37Z"/><path class="cls-1" d="m606.41,201.76v22.75h-112.24v-91h112.24v22.75h-78.87v11.38h72.8v22.75h-72.8v11.38h78.87Z"/><path class="cls-1" d="m693.58,201.76h-40.19v22.75h-33.37v-91h83.42c22.58,0,40.95,15.31,40.95,34.13,0,11.46-6.81,21.61-17.23,27.8l18.41,29.07h-37.58l-14.41-22.75Zm-40.19-22.75h43.99c7.53,0,13.65-5.1,13.65-11.38s-6.12-11.38-13.65-11.38h-43.99v22.75Z"/></g></svg>