<svg viewBox="0 0 749.1 323.4" xmlns="http://www.w3.org/2000/svg"><path d="m98.8 87.75v22.75h-91v-91h27.81v68.25h63.2z" fill="#fff"/><path d="m108.16 110.5v-91h33.37v91z" fill="#fff"/><path d="m157.17 110.5v-91h136.51v22.75h-94.8v11.38h87.21v22.75h-87.21v34.13h-41.71z" fill="#fff"/><path d="m399.07 42.25h-36.65v68.25h-27.81v-68.25h-36.65v-22.75h101.12v22.75z" fill="#fff"/><path d="m450.23 19.5v91h-27.81v-91zm-26.29 1.52v87.97h24.77v-87.98h-24.77z" fill="#fff"/><path d="m560.59 19.5v22.75h-36.65v68.25h-27.81v-68.25h-36.65v-22.75h101.12zm-99.6 1.52v19.72h36.65v68.25h24.77v-68.26h36.65v-19.72h-98.08z" fill="#fff"/><g fill="#c8102e"><g opacity=".25"><path d="m137.21 166.51v91h-33.37v-34.13h-60.67v34.13h-33.37v-91h33.37v34.13h60.67v-34.13zm-31.85 1.52v34.13h-63.7v-34.13h-30.34v87.97h30.33v-34.13h63.7v34.13h30.33v-87.97h-30.33z"/><path d="m186.17 166.51v91h-33.37v-91zm-31.85 1.52v87.97h30.33v-87.97z"/><path d="m267.88 163.98c39.54 0 63.04 9.58 68.48 35.39h-37.43c-4.36-9.82-14.98-12.64-31.05-12.64-21.31 0-33.44 5.06-33.44 25.28s12.13 25.28 33.44 25.28c12.65 0 22.08-1.81 27.61-7.58h-24.65v-20.22h66.74v48.03h-24.27v-3.98c-11.34 4.76-26.56 6.5-45.43 6.5-42.54 0-69.84-10.11-69.84-48.03 0-35.39 24.27-48.03 69.84-48.03zm-51.19 12.02c-5.76 3.71-9.94 8.37-12.78 14.24-2.89 5.96-4.35 13.28-4.35 21.77 0 8.98 1.6 16.65 4.76 22.81 3.02 5.89 7.43 10.51 13.47 14.12 10.92 6.54 26.84 9.58 50.09 9.58 20.2 0 34.45-2.03 44.84-6.39l2.1-.88v4.74h21.23v-45h-63.7v17.19h26.69l-2.46 2.57c-5.34 5.57-14.19 8.05-28.71 8.05-12.15 0-20.03-1.64-25.55-5.31-6.33-4.21-9.41-11.24-9.41-21.48s3.08-17.27 9.41-21.49c5.52-3.67 13.4-5.31 25.55-5.31s26.42 1.53 32.01 12.64h34.56c-2.84-11.22-9.46-19.24-20.21-24.5-10.82-5.29-25.99-7.86-46.36-7.86-23.48 0-40.23 3.44-51.19 10.5z"/><path d="m478.58 166.51v91h-33.37v-34.13h-60.67v34.13h-33.37v-91h33.37v34.13h60.67v-34.13zm-31.85 1.52v34.13h-63.7v-34.13h-30.33v87.97h30.33v-34.13h63.7v34.13h30.33v-87.97z"/><path d="m606.41 166.51v22.75h-78.87v11.38h72.8v22.75h-72.8v11.38h78.87v22.75h-112.24v-91h112.24zm-110.72 1.52v87.97h109.2v-19.72h-78.87v-14.41h72.8v-19.72h-72.8v-14.41h78.87v-19.72h-109.2z"/><path d="m703.43 166.51c22.58 0 40.95 15.31 40.95 34.13 0 11.46-6.81 21.61-17.23 27.8l18.41 29.07h-37.58l-14.41-22.75h-40.19v22.75h-33.37v-91zm-81.9 1.52v87.97h30.33v-22.75h42.54l14.41 22.75h33.99l-16.94-26.74-.83-1.32 1.34-.8c5.01-2.98 9.17-6.93 12.02-11.44 2.93-4.62 4.47-9.83 4.47-15.07 0-17.98-17.69-32.61-39.44-32.61h-81.9zm30.33 19.72h45.5c8.36 0 15.17 5.78 15.17 12.89s-6.8 12.89-15.17 12.89h-45.5zm1.52 24.27h43.99c7.53 0 13.65-5.1 13.65-11.38s-6.12-11.38-13.65-11.38h-43.99v22.75z"/></g><g opacity=".25"><path d="m137.21 144.51v91h-33.37v-34.13h-60.67v34.13h-33.37v-91h33.37v34.13h60.67v-34.13zm-31.85 1.52v34.13h-63.7v-34.13h-30.34v87.97h30.33v-34.13h63.7v34.13h30.33v-87.97h-30.33z"/><path d="m186.17 144.51v91h-33.37v-91zm-31.85 1.52v87.97h30.33v-87.97z"/><path d="m267.88 141.98c39.54 0 63.04 9.58 68.48 35.39h-37.43c-4.36-9.82-14.98-12.64-31.05-12.64-21.31 0-33.44 5.06-33.44 25.28s12.13 25.28 33.44 25.28c12.65 0 22.08-1.81 27.61-7.58h-24.65v-20.22h66.74v48.03h-24.27v-3.98c-11.34 4.76-26.56 6.5-45.43 6.5-42.54 0-69.84-10.11-69.84-48.03 0-35.39 24.27-48.03 69.84-48.03zm-51.19 12.02c-5.76 3.71-9.94 8.37-12.78 14.24-2.89 5.96-4.35 13.28-4.35 21.77 0 8.98 1.6 16.65 4.76 22.81 3.02 5.89 7.43 10.51 13.47 14.12 10.92 6.54 26.84 9.58 50.09 9.58 20.2 0 34.45-2.03 44.84-6.39l2.1-.88v4.74h21.23v-45h-63.7v17.19h26.69l-2.46 2.57c-5.34 5.57-14.19 8.05-28.71 8.05-12.15 0-20.03-1.64-25.55-5.31-6.33-4.21-9.41-11.24-9.41-21.48s3.08-17.27 9.41-21.49c5.52-3.67 13.4-5.31 25.55-5.31s26.42 1.53 32.01 12.64h34.56c-2.84-11.22-9.46-19.24-20.21-24.5-10.82-5.29-25.99-7.86-46.36-7.86-23.48 0-40.23 3.44-51.19 10.5z"/><path d="m478.58 144.51v91h-33.37v-34.13h-60.67v34.13h-33.37v-91h33.37v34.13h60.67v-34.13zm-31.85 1.52v34.13h-63.7v-34.13h-30.33v87.97h30.33v-34.13h63.7v34.13h30.33v-87.97z"/><path d="m606.41 144.51v22.75h-78.87v11.38h72.8v22.75h-72.8v11.38h78.87v22.75h-112.24v-91h112.24zm-110.72 1.52v87.97h109.2v-19.72h-78.87v-14.41h72.8v-19.72h-72.8v-14.41h78.87v-19.72h-109.2z"/><path d="m703.43 144.51c22.58 0 40.95 15.31 40.95 34.13 0 11.46-6.81 21.61-17.23 27.8l18.41 29.07h-37.58l-14.41-22.75h-40.19v22.75h-33.37v-91zm-81.9 1.52v87.97h30.33v-22.75h42.54l14.41 22.75h33.99l-16.94-26.74-.83-1.32 1.34-.8c5.01-2.98 9.17-6.93 12.02-11.44 2.93-4.62 4.47-9.83 4.47-15.06 0-17.98-17.69-32.61-39.44-32.61h-81.9zm30.33 19.72h45.5c8.36 0 15.17 5.78 15.17 12.89s-6.8 12.89-15.17 12.89h-45.5zm1.52 24.27h43.99c7.53 0 13.65-5.1 13.65-11.38s-6.12-11.38-13.65-11.38h-43.99v22.75z"/></g><g opacity=".25"><path d="m137.21 155.51v91h-33.37v-34.13h-60.67v34.13h-33.37v-91h33.37v34.13h60.67v-34.13zm-31.85 1.52v34.13h-63.7v-34.13h-30.34v87.97h30.33v-34.13h63.7v34.13h30.33v-87.97h-30.33z"/><path d="m186.17 155.51v91h-33.37v-91zm-31.85 1.52v87.97h30.33v-87.97z"/><path d="m267.88 152.98c39.54 0 63.04 9.58 68.48 35.39h-37.43c-4.36-9.82-14.98-12.64-31.05-12.64-21.31 0-33.44 5.06-33.44 25.28s12.13 25.28 33.44 25.28c12.65 0 22.08-1.81 27.61-7.58h-24.65v-20.22h66.74v48.03h-24.27v-3.98c-11.34 4.76-26.56 6.5-45.43 6.5-42.54 0-69.84-10.11-69.84-48.03 0-35.39 24.27-48.03 69.84-48.03zm-51.19 12.02c-5.76 3.71-9.94 8.37-12.78 14.24-2.89 5.96-4.35 13.28-4.35 21.77 0 8.98 1.6 16.65 4.76 22.81 3.02 5.89 7.43 10.51 13.47 14.12 10.92 6.54 26.84 9.58 50.09 9.58 20.2 0 34.45-2.03 44.84-6.39l2.1-.88v4.74h21.23v-45h-63.7v17.19h26.69l-2.46 2.57c-5.34 5.57-14.19 8.05-28.71 8.05-12.15 0-20.03-1.64-25.55-5.31-6.33-4.21-9.41-11.24-9.41-21.48s3.08-17.27 9.41-21.49c5.52-3.67 13.4-5.31 25.55-5.31s26.42 1.53 32.01 12.64h34.56c-2.84-11.22-9.46-19.24-20.21-24.5-10.82-5.29-25.99-7.86-46.36-7.86-23.48 0-40.23 3.44-51.19 10.5z"/><path d="m478.58 155.51v91h-33.37v-34.13h-60.67v34.13h-33.37v-91h33.37v34.13h60.67v-34.13zm-31.85 1.52v34.13h-63.7v-34.13h-30.33v87.97h30.33v-34.13h63.7v34.13h30.33v-87.97z"/><path d="m606.41 155.51v22.75h-78.87v11.38h72.8v22.75h-72.8v11.38h78.87v22.75h-112.24v-91h112.24zm-110.72 1.52v87.97h109.2v-19.72h-78.87v-14.41h72.8v-19.72h-72.8v-14.41h78.87v-19.72h-109.2z"/><path d="m703.43 155.51c22.58 0 40.95 15.31 40.95 34.13 0 11.46-6.81 21.61-17.23 27.8l18.41 29.07h-37.58l-14.41-22.75h-40.19v22.75h-33.37v-91zm-81.9 1.52v87.97h30.33v-22.75h42.54l14.41 22.75h33.99l-16.94-26.74-.83-1.32 1.34-.8c5.01-2.98 9.17-6.93 12.02-11.44 2.93-4.62 4.47-9.83 4.47-15.07 0-17.98-17.69-32.61-39.44-32.61h-81.9zm30.33 19.72h45.5c8.36 0 15.17 5.78 15.17 12.89s-6.8 12.89-15.17 12.89h-45.5zm1.52 24.27h43.99c7.53 0 13.65-5.1 13.65-11.38s-6.12-11.38-13.65-11.38h-43.99v22.75z"/></g><g opacity=".15"><path d="m137.21 199.51v91h-33.37v-34.13h-60.67v34.13h-33.37v-91h33.37v34.13h60.67v-34.13zm-31.85 1.52v34.13h-63.7v-34.13h-30.34v87.97h30.33v-34.13h63.7v34.13h30.33v-87.97h-30.33z"/><path d="m186.17 199.51v91h-33.37v-91zm-31.85 1.52v87.97h30.33v-87.97z"/><path d="m267.88 196.98c39.54 0 63.04 9.58 68.48 35.39h-37.43c-4.36-9.82-14.98-12.64-31.05-12.64-21.31 0-33.44 5.06-33.44 25.28s12.13 25.28 33.44 25.28c12.65 0 22.08-1.81 27.61-7.58h-24.65v-20.22h66.74v48.03h-24.27v-3.98c-11.34 4.76-26.56 6.5-45.43 6.5-42.54 0-69.84-10.11-69.84-48.03 0-35.39 24.27-48.03 69.84-48.03zm-51.19 12.02c-5.76 3.71-9.94 8.37-12.78 14.24-2.89 5.96-4.35 13.28-4.35 21.77 0 8.98 1.6 16.65 4.76 22.81 3.02 5.89 7.43 10.51 13.47 14.12 10.92 6.54 26.84 9.58 50.09 9.58 20.2 0 34.45-2.03 44.84-6.39l2.1-.88v4.74h21.23v-45h-63.7v17.19h26.69l-2.46 2.57c-5.34 5.57-14.19 8.05-28.71 8.05-12.15 0-20.03-1.64-25.55-5.31-6.33-4.21-9.41-11.24-9.41-21.48s3.08-17.27 9.41-21.49c5.52-3.67 13.4-5.31 25.55-5.31s26.42 1.53 32.01 12.64h34.56c-2.84-11.22-9.46-19.24-20.21-24.5-10.82-5.29-25.99-7.86-46.36-7.86-23.48 0-40.23 3.44-51.19 10.5z"/><path d="m478.58 199.51v91h-33.37v-34.13h-60.67v34.13h-33.37v-91h33.37v34.13h60.67v-34.13zm-31.85 1.52v34.13h-63.7v-34.13h-30.33v87.97h30.33v-34.13h63.7v34.13h30.33v-87.97z"/><path d="m606.41 199.51v22.75h-78.87v11.38h72.8v22.75h-72.8v11.38h78.87v22.75h-112.24v-91h112.24zm-110.72 1.52v87.97h109.2v-19.72h-78.87v-14.41h72.8v-19.72h-72.8v-14.41h78.87v-19.72h-109.2z"/><path d="m703.43 199.51c22.58 0 40.95 15.31 40.95 34.13 0 11.46-6.81 21.61-17.23 27.8l18.41 29.07h-37.58l-14.41-22.75h-40.19v22.75h-33.37v-91zm-81.9 1.52v87.97h30.33v-22.75h42.54l14.41 22.75h33.99l-16.94-26.74-.83-1.32 1.34-.8c5.01-2.98 9.17-6.93 12.02-11.44 2.93-4.62 4.47-9.83 4.47-15.07 0-17.98-17.69-32.61-39.44-32.61h-81.9zm30.33 19.72h45.5c8.36 0 15.17 5.78 15.17 12.89s-6.8 12.89-15.17 12.89h-45.5zm1.52 24.27h43.99c7.53 0 13.65-5.1 13.65-11.38s-6.12-11.38-13.65-11.38h-43.99v22.75z"/></g><g opacity=".15"><path d="m137.21 188.51v91h-33.37v-34.13h-60.67v34.13h-33.37v-91h33.37v34.13h60.67v-34.13zm-31.85 1.52v34.13h-63.7v-34.13h-30.34v87.97h30.33v-34.13h63.7v34.13h30.33v-87.97h-30.33z"/><path d="m186.17 188.51v91h-33.37v-91zm-31.85 1.52v87.97h30.33v-87.97z"/><path d="m267.88 185.98c39.54 0 63.04 9.58 68.48 35.39h-37.43c-4.36-9.82-14.98-12.64-31.05-12.64-21.31 0-33.44 5.06-33.44 25.28s12.13 25.28 33.44 25.28c12.65 0 22.08-1.81 27.61-7.58h-24.65v-20.22h66.74v48.03h-24.27v-3.98c-11.34 4.76-26.56 6.5-45.43 6.5-42.54 0-69.84-10.11-69.84-48.03 0-35.39 24.27-48.03 69.84-48.03zm-51.19 12.02c-5.76 3.71-9.94 8.37-12.78 14.24-2.89 5.96-4.35 13.28-4.35 21.77 0 8.98 1.6 16.65 4.76 22.81 3.02 5.89 7.43 10.51 13.47 14.12 10.92 6.54 26.84 9.58 50.09 9.58 20.2 0 34.45-2.03 44.84-6.39l2.1-.88v4.74h21.23v-45h-63.7v17.19h26.69l-2.46 2.57c-5.34 5.57-14.19 8.05-28.71 8.05-12.15 0-20.03-1.64-25.55-5.31-6.33-4.21-9.41-11.24-9.41-21.48s3.08-17.27 9.41-21.49c5.52-3.67 13.4-5.31 25.55-5.31s26.42 1.53 32.01 12.64h34.56c-2.84-11.22-9.46-19.24-20.21-24.5-10.82-5.29-25.99-7.86-46.36-7.86-23.48 0-40.23 3.44-51.19 10.5z"/><path d="m478.58 188.51v91h-33.37v-34.13h-60.67v34.13h-33.37v-91h33.37v34.13h60.67v-34.13zm-31.85 1.52v34.13h-63.7v-34.13h-30.33v87.97h30.33v-34.13h63.7v34.13h30.33v-87.97z"/><path d="m606.41 188.51v22.75h-78.87v11.38h72.8v22.75h-72.8v11.38h78.87v22.75h-112.24v-91h112.24zm-110.72 1.52v87.97h109.2v-19.72h-78.87v-14.41h72.8v-19.72h-72.8v-14.41h78.87v-19.72h-109.2z"/><path d="m703.43 188.51c22.58 0 40.95 15.31 40.95 34.13 0 11.46-6.81 21.61-17.23 27.8l18.41 29.07h-37.58l-14.41-22.75h-40.19v22.75h-33.37v-91zm-81.9 1.52v87.97h30.33v-22.75h42.54l14.41 22.75h33.99l-16.94-26.74-.83-1.32 1.34-.8c5.01-2.98 9.17-6.93 12.02-11.44 2.93-4.62 4.47-9.83 4.47-15.07 0-17.98-17.69-32.61-39.44-32.61h-81.9zm30.33 19.72h45.5c8.36 0 15.17 5.78 15.17 12.89s-6.8 12.89-15.17 12.89h-45.5zm1.52 24.27h43.99c7.53 0 13.65-5.1 13.65-11.38s-6.12-11.38-13.65-11.38h-43.99v22.75z"/></g><g opacity=".15"><path d="m137.21 177.51v91h-33.37v-34.13h-60.67v34.13h-33.37v-91h33.37v34.13h60.67v-34.13zm-31.85 1.52v34.13h-63.7v-34.13h-30.34v87.97h30.33v-34.13h63.7v34.13h30.33v-87.97h-30.33z"/><path d="m186.17 177.51v91h-33.37v-91zm-31.85 1.52v87.97h30.33v-87.97z"/><path d="m267.88 174.98c39.54 0 63.04 9.58 68.48 35.39h-37.43c-4.36-9.82-14.98-12.64-31.05-12.64-21.31 0-33.44 5.06-33.44 25.28s12.13 25.28 33.44 25.28c12.65 0 22.08-1.81 27.61-7.58h-24.65v-20.22h66.74v48.03h-24.27v-3.98c-11.34 4.76-26.56 6.5-45.43 6.5-42.54 0-69.84-10.11-69.84-48.03 0-35.39 24.27-48.03 69.84-48.03zm-51.19 12.02c-5.76 3.71-9.94 8.37-12.78 14.24-2.89 5.96-4.35 13.28-4.35 21.77 0 8.98 1.6 16.65 4.76 22.81 3.02 5.89 7.43 10.51 13.47 14.12 10.92 6.54 26.84 9.58 50.09 9.58 20.2 0 34.45-2.03 44.84-6.39l2.1-.88v4.74h21.23v-45h-63.7v17.19h26.69l-2.46 2.57c-5.34 5.57-14.19 8.05-28.71 8.05-12.15 0-20.03-1.64-25.55-5.31-6.33-4.21-9.41-11.24-9.41-21.48s3.08-17.27 9.41-21.49c5.52-3.67 13.4-5.31 25.55-5.31s26.42 1.53 32.01 12.64h34.56c-2.84-11.22-9.46-19.24-20.21-24.5-10.82-5.29-25.99-7.86-46.36-7.86-23.48 0-40.23 3.44-51.19 10.5z"/><path d="m478.58 177.51v91h-33.37v-34.13h-60.67v34.13h-33.37v-91h33.37v34.13h60.67v-34.13zm-31.85 1.52v34.13h-63.7v-34.13h-30.33v87.97h30.33v-34.13h63.7v34.13h30.33v-87.97z"/><path d="m606.41 177.51v22.75h-78.87v11.38h72.8v22.75h-72.8v11.38h78.87v22.75h-112.24v-91h112.24zm-110.72 1.52v87.97h109.2v-19.72h-78.87v-14.41h72.8v-19.72h-72.8v-14.41h78.87v-19.72h-109.2z"/><path d="m703.43 177.51c22.58 0 40.95 15.31 40.95 34.13 0 11.46-6.81 21.61-17.23 27.8l18.41 29.07h-37.58l-14.41-22.75h-40.19v22.75h-33.37v-91zm-81.9 1.52v87.97h30.33v-22.75h42.54l14.41 22.75h33.99l-16.94-26.74-.83-1.32 1.34-.8c5.01-2.98 9.17-6.93 12.02-11.44 2.93-4.62 4.47-9.83 4.47-15.07 0-17.98-17.69-32.61-39.44-32.61h-81.9zm30.33 19.72h45.5c8.36 0 15.17 5.78 15.17 12.89s-6.8 12.89-15.17 12.89h-45.5zm1.52 24.27h43.99c7.53 0 13.65-5.1 13.65-11.38s-6.12-11.38-13.65-11.38h-43.99v22.75z"/></g><path d="m137.21 133.51v91h-33.37v-34.13h-60.67v34.13h-33.37v-91h33.37v34.13h60.67v-34.13z"/><path d="m152.8 224.51v-91h33.37v91z"/><path d="m337.58 176.48v48.03h-24.27v-3.98c-11.34 4.76-26.56 6.5-45.43 6.5-42.54 0-69.84-10.11-69.84-48.03 0-35.39 24.27-48.03 69.84-48.03 39.54 0 63.04 9.58 68.48 35.39h-37.42c-4.36-9.82-14.98-12.64-31.05-12.64-21.31 0-33.44 5.06-33.44 25.28s12.13 25.28 33.44 25.28c12.65 0 22.08-1.81 27.61-7.58h-24.65v-20.22h66.74z"/><path d="m478.58 133.51v91h-33.37v-34.13h-60.67v34.13h-33.37v-91h33.37v34.13h60.67v-34.13z"/><path d="m606.41 201.76v22.75h-112.24v-91h112.24v22.75h-78.87v11.38h72.8v22.75h-72.8v11.38h78.87z"/><path d="m693.58 201.76h-40.19v22.75h-33.37v-91h83.42c22.58 0 40.95 15.31 40.95 34.13 0 11.46-6.81 21.61-17.23 27.8l18.41 29.07h-37.58zm-40.19-22.75h43.99c7.53 0 13.65-5.1 13.65-11.38s-6.12-11.38-13.65-11.38h-43.99v22.75z"/></g></svg>