<svg viewBox="0 0 1226 294" xmlns="http://www.w3.org/2000/svg"><g fill="#1a1a1a"><path d="m102.53 42.17h-36.58v68.12h-27.75v-68.12h-36.58v-22.71h100.91z"/><path d="m217.73 19.47v90.82h-27.75v-34.06h-50.46v34.06h-27.75v-90.82h27.75v34.06h50.46v-34.06z"/><path d="m326.69 87.58v22.71h-93.34v-90.82h93.34v22.71h-65.59v11.35h60.55v22.71h-60.55v11.35h65.59z"/><path d="m463.64 53.52c0 18.78-15.28 34.06-34.06 34.06h-34.06v22.71h-27.75v-90.82h61.81c18.78 0 34.06 15.28 34.06 34.06zm-27.75 0c0-6.26-5.09-11.35-11.35-11.35h-29.01v22.71h29.01c6.26 0 11.35-5.09 11.35-11.35z"/><path d="m529.01 112.81c-35.38 0-58.08-10.09-58.08-47.93 0-35.32 20.18-47.93 58.08-47.93s57.97 12.61 57.97 47.93c0 37.84-20.18 47.93-57.97 47.93zm0-73.16c-17.72 0-27.81 5.04-27.81 25.23s10.09 25.23 27.81 25.23 27.69-5.05 27.69-25.23-9.78-25.23-27.69-25.23z"/><path d="m745.67 19.47-30.27 90.82h-30.27l-17.66-52.98-17.66 52.98h-30.27l-30.27-90.82h30.27l18.04 54.11 18.04-54.11h23.71l18.04 54.11 18.04-54.11h30.27z"/><path d="m847.51 87.58v22.71h-93.34v-90.82h93.34v22.71h-65.59v11.35h60.55v22.71h-60.55v11.35h65.59z"/><path d="m922.52 87.58h-33.43v22.71h-27.75v-90.82h69.38c18.78 0 34.06 15.28 34.06 34.06 0 11.43-5.66 21.57-14.33 27.75l15.31 29.01h-31.26zm-33.43-22.71h36.58c6.26 0 11.35-5.09 11.35-11.35s-5.09-11.35-11.35-11.35h-36.58v22.71z"/><path d="m1099.27 42.17h-36.58v68.12h-27.75v-68.12h-36.58v-22.71h100.91z"/><path d="m1163.23 112.81c-35.38 0-58.08-10.09-58.08-47.93 0-35.32 20.18-47.93 58.08-47.93s57.96 12.61 57.96 47.93c0 37.84-20.18 47.93-57.96 47.93zm0-73.16c-17.72 0-27.81 5.04-27.81 25.23s10.09 25.23 27.81 25.23 27.69-5.05 27.69-25.23-9.78-25.23-27.69-25.23z"/></g><path d="m208.84 225.01c-6.22 44.23-41.7 56.58-103.02 56.58s-104.22-15.09-104.22-71.67c0-52.81 36.21-71.67 104.22-71.67 60.89 0 96.3 15.22 102.88 56.58h-55.15c-5.39-17.72-21.81-22.63-47.73-22.63-31.79 0-49.9 7.54-49.9 37.72s18.11 37.72 49.9 37.72c25.47 0 42.17-4.91 47.68-22.63z" fill="#c8102e"/><path d="m406.48 142.02v135.8h-49.79v-50.92h-90.53v50.92h-49.79v-135.8h49.79v50.92h90.53v-50.92z" fill="#c8102e"/><path d="m518.65 281.59c-63.48 0-104.22-15.09-104.22-71.67 0-52.81 36.21-71.67 104.22-71.67s104.01 18.86 104.01 71.67c0 56.58-36.21 71.67-104.01 71.67zm0-109.39c-31.79 0-49.9 7.54-49.9 37.72s18.11 37.72 49.9 37.72 49.69-7.54 49.69-37.72-17.54-37.72-49.69-37.72z" fill="#c8102e"/><path d="m729.53 281.59c-63.48 0-104.22-15.09-104.22-71.67 0-52.81 36.21-71.67 104.22-71.67s104.01 18.86 104.01 71.67c0 56.58-36.21 71.67-104.01 71.67zm0-109.39c-31.79 0-49.9 7.54-49.9 37.72s18.11 37.72 49.9 37.72 49.69-7.54 49.69-37.72-17.54-37.72-49.69-37.72z" fill="#c8102e"/><path d="m1035.94 236.31h-.11c0 37.72-38.7 45.27-99.48 45.27s-99.59-7.54-99.59-49.04h49.79c0 15.09 20.55 15.09 49.79 15.09s49.34-.01 49.34-11.32c0-13.28-21.26-12.39-49.93-13.21-.04 0-.07 0-.11 0s-.07 0-.11 0c-60.74-1.74-96.52-5.65-96.52-41.48s36.44-43.38 97.22-43.38 97.32 7.54 97.32 49.04h-49.79c0-15.09-18.11-15.09-47.53-15.09s-47.07 0-47.07 9.43c0 11.49 19.1 10.5 47.77 11.32h.11.11c60.74 1.74 98.78 5.65 98.78 43.37z" fill="#c8102e"/><path d="m1212.41 243.87v33.95h-167.49v-135.8h167.49v33.95h-117.69v16.97h108.64v33.95h-108.64v16.97h117.69z" fill="#c8102e"/></svg>