<svg viewBox="0 0 1180 230" xmlns="http://www.w3.org/2000/svg"><path d="m71.87 109.33c-42.54 0-69.84-10.11-69.84-48.03 0-35.39 24.27-48.03 69.84-48.03s69.7 12.64 69.7 48.03c0 37.92-24.27 48.03-69.7 48.03zm0-73.31c-21.31 0-33.44 5.06-33.44 25.28s12.13 25.28 33.44 25.28 33.3-5.06 33.3-25.28-11.76-25.28-33.3-25.28z" fill="#1a1a1a"/><path d="m145.29 15.8h33.37v45.5c0 20.22 12.13 25.28 30.39 25.28s30.27-5.06 30.27-25.28v-45.5h33.37v45.5c0 37.92-27.3 48.03-63.64 48.03s-63.76-10.11-63.76-48.03z" fill="#1a1a1a"/><path d="m353.53 84.05h-40.19v22.75h-33.37v-91h83.42c22.58 0 40.95 15.31 40.95 34.13 0 11.46-6.81 21.61-17.23 27.8l18.41 29.07h-37.58zm-40.19-22.75h43.99c7.53 0 13.65-5.1 13.65-11.38s-6.12-11.38-13.65-11.38h-43.99v22.75z" fill="#1a1a1a"/><path d="m496.59 13.27c35.39 0 54.35 5.05 54.35 32.86h-27.81c0-10.11-10.12-10.11-26.54-10.11s-26.29 0-26.29 6.32c0 7.7 10.67 7.04 26.68 7.59h.06s.04 0 .06 0c33.92 1.16 55.16 3.78 55.16 29.06h-.06c0 25.28-21.61 30.33-55.55 30.33s-55.61-5.06-55.61-32.86h27.81c0 10.11 11.48 10.11 27.81 10.11s27.55 0 27.55-7.58c0-8.9-11.87-8.3-27.88-8.85-.02 0-.04 0-.06 0s-.04 0-.06 0c-33.92-1.16-53.9-3.78-53.9-27.8s20.35-29.07 54.29-29.07zm-39.24 6.91c-9.23 4.22-13.53 11.26-13.53 22.16s4.1 17.28 13.29 21.06c8.58 3.54 20.85 4.59 39.14 5.22h.06s.04 0 .04 0h.02c1.51.05 2.99.09 4.42.13 6.92.2 12.9.36 17.22 1.54 5.18 1.4 7.7 4.25 7.7 8.7 0 9.1-12.19 9.1-29.07 9.1-8.21 0-15.31 0-20.41-1.31-5.42-1.39-8.32-4.28-8.84-8.8h-24.83c.17 5.91 1.31 10.7 3.5 14.61 2.24 4 5.57 7.07 10.18 9.38 8.19 4.1 20.27 5.84 40.4 5.84s31.5-1.71 39.87-5.55c9.66-4.43 14.16-11.83 14.16-23.27v-1.52h.03c-.19-5.18-1.36-9.34-3.57-12.69-2.25-3.41-5.63-6.02-10.33-7.97-9.73-4.04-24.37-4.84-39.77-5.37h-.06s-.05 0-.05 0c-1.76-.06-3.44-.11-5.07-.15-6.79-.18-12.15-.33-16.07-1.33-4.72-1.21-7.01-3.7-7.01-7.63 0-5.57 6.32-6.67 8.39-7.03 4.7-.81 11.19-.81 19.41-.81s15.05 0 19.83 1.32c5 1.38 7.68 4.26 8.15 8.79h24.83c-.16-5.94-1.25-10.74-3.32-14.64-2.13-4.01-5.32-7.07-9.75-9.36-7.91-4.09-19.79-5.83-39.75-5.83s-31.09 1.66-39.24 5.39z" fill="#1a1a1a"/><path d="m669.28 15.8v91h-27.81v-34.13h-50.56v34.13h-27.81v-91h27.81v34.13h50.56v-34.13zm-26.29 1.52v34.12h-53.59v-34.12h-24.77v87.97h24.77v-34.12h53.59v34.12h24.77v-87.97z" fill="#1a1a1a"/><path d="m737.79 13.27c37.86 0 58.08 12.64 58.08 48.03 0 37.92-20.22 48.03-58.08 48.03-35.45 0-58.2-10.11-58.2-48.03 0-35.39 20.22-48.03 58.2-48.03zm-42.41 11.94c-9.6 7.43-14.27 19.23-14.27 36.09s4.96 29.67 15.17 37c9.03 6.49 22.22 9.51 41.51 9.51 9.89 0 17.98-.7 24.73-2.14 7.27-1.55 13.02-3.96 17.6-7.36 4.78-3.55 8.24-8.15 10.59-14.07 2.45-6.19 3.65-13.7 3.65-22.94 0-16.85-4.66-28.65-14.26-36.09-9.05-7.02-22.89-10.43-42.31-10.43s-33.35 3.41-42.41 10.43zm20.88 57.49c-5.28-4.22-7.84-11.22-7.84-21.41s2.57-17.19 7.84-21.41c4.67-3.73 11.31-5.39 21.54-5.39s16.94 1.66 21.56 5.39c5.26 4.25 7.71 11.05 7.71 21.4 0 23.55-14.06 26.79-29.26 26.79-10.23 0-16.87-1.66-21.54-5.39zm21.54 3.87c17.64 0 27.75-5.06 27.75-25.28s-9.8-25.28-27.75-25.28-27.87 5.06-27.87 25.28 10.11 25.28 27.87 25.28z" fill="#1a1a1a"/><path d="m875.85 15.8c18.82 0 34.13 15.31 34.13 34.13 0 11.46-5.68 21.61-14.36 27.8l15.34 29.07h-31.32l-12.01-22.75h-33.49v22.75h-27.81v-91zm-68 1.52v87.97h24.77v-22.75h35.93l.43.81 11.58 21.94h27.89l-14.17-26.85-.62-1.17 1.08-.77c4.15-2.96 7.6-6.9 9.98-11.4 2.45-4.65 3.75-9.89 3.75-15.17 0-17.98-14.63-32.61-32.61-32.61h-68zm24.77 19.72h38.17c7.11 0 12.89 5.78 12.89 12.89s-5.78 12.89-12.89 12.89h-38.17zm1.52 24.27h36.65c6.27 0 11.38-5.1 11.38-11.38s-5.1-11.38-11.38-11.38h-36.65v22.75z" fill="#1a1a1a"/><path d="m1015.48 15.8v22.75h-36.65v68.25h-27.81v-68.25h-36.65v-22.75zm-99.6 1.52v19.72h36.65v68.25h24.77v-68.25h36.65v-19.72h-98.08z" fill="#1a1a1a"/><g fill="#c8102e"><path d="m32.72 127.8v68.25h63.2v22.75h-91v-91h27.81zm-26.29 1.52v87.97h87.97v-19.72h-63.19v-68.25z"/><path d="m158.15 125.27c37.86 0 58.08 12.64 58.08 48.03 0 37.92-20.22 48.03-58.08 48.03-35.45 0-58.2-10.11-58.2-48.03 0-35.39 20.22-48.03 58.2-48.03zm-42.41 11.94c-9.6 7.43-14.27 19.23-14.27 36.09s4.96 29.67 15.17 37c9.03 6.49 22.22 9.51 41.51 9.51 9.89 0 17.98-.7 24.73-2.14 7.27-1.55 13.02-3.96 17.6-7.36 4.78-3.55 8.24-8.15 10.59-14.07 2.45-6.19 3.65-13.7 3.65-22.94 0-16.85-4.66-28.65-14.26-36.09-9.05-7.02-22.89-10.43-42.31-10.43s-33.35 3.41-42.41 10.43zm20.88 57.49c-5.28-4.22-7.84-11.22-7.84-21.41s2.57-17.19 7.84-21.41c4.67-3.73 11.31-5.39 21.54-5.39s16.94 1.66 21.56 5.39c5.26 4.25 7.71 11.05 7.71 21.4 0 23.55-14.06 26.79-29.26 26.79-10.23 0-16.87-1.66-21.54-5.39zm21.54 3.87c17.64 0 27.75-5.06 27.75-25.28s-9.8-25.28-27.75-25.28-27.87 5.06-27.87 25.28 10.11 25.28 27.87 25.28z"/><path d="m335.39 127.8v91h-32.86l-48.03-54.03v54.03h-27.81v-91h30.33l50.56 56.88v-56.88zm-26.29 1.52v59.35l-2.65-2.98-50.1-56.37h-28.14v87.97h24.77v-56.51l2.65 2.98 47.58 53.52h30.66v-87.97h-24.77z"/><path d="m403.85 125.27c32.95 0 52.54 9.58 57.06 35.39h-31.19c-3.63-9.82-12.48-12.64-25.88-12.64-17.76 0-27.87 5.06-27.87 25.28s10.11 25.28 27.87 25.28c10.54 0 18.4-1.81 23.01-7.58h-20.54v-20.22h55.61v48.03h-20.22v-3.98c-9.45 4.76-22.13 6.5-37.86 6.5-35.45 0-58.2-10.11-58.2-48.03 0-35.39 20.22-48.03 58.2-48.03zm-42.41 11.94c-9.6 7.43-14.27 19.23-14.27 36.09s4.96 29.67 15.17 37c9.03 6.49 22.22 9.51 41.51 9.51 16.76 0 28.58-2.02 37.18-6.34l2.2-1.11v4.92h17.19v-45h-52.58v17.19h22.18l-1.97 2.46c-4.5 5.64-11.96 8.15-24.19 8.15-10.23 0-16.87-1.66-21.54-5.39-5.28-4.22-7.85-11.22-7.85-21.41s2.57-17.19 7.85-21.41c4.67-3.73 11.31-5.39 21.54-5.39s22.19 1.53 26.91 12.64h28.32c-4.68-22.36-21.81-32.36-55.23-32.36-19.47 0-33.34 3.41-42.41 10.43z"/><path d="m637.71 190.99h-.07c0 25.28-25.94 30.33-66.66 30.33s-66.74-5.06-66.74-32.86h33.37c0 10.11 13.77 10.11 33.37 10.11s33.06 0 33.06-7.58c0-8.9-14.24-8.3-33.46-8.85-.02 0-.05 0-.07 0s-.05 0-.07 0c-40.71-1.16-64.68-3.78-64.68-27.8s24.42-29.07 65.15-29.07 65.22 5.05 65.22 32.86h-33.37c0-10.11-12.14-10.11-31.85-10.11s-31.55 0-31.55 6.32c0 7.7 12.8 7.04 32.01 7.59h.07s.05 0 .07 0c40.71 1.16 66.2 3.78 66.2 29.06z"/><path d="m763.25 150.55h-43.99v68.25h-33.37v-68.25h-43.98v-22.75h121.34z"/><path d="m836.68 221.33c-42.54 0-69.84-10.11-69.84-48.03 0-35.39 24.27-48.03 69.84-48.03s69.7 12.64 69.7 48.03c0 37.92-24.27 48.03-69.7 48.03zm0-73.31c-21.31 0-33.44 5.06-33.44 25.28s12.13 25.28 33.44 25.28 33.3-5.06 33.3-25.28-11.76-25.28-33.3-25.28z"/><path d="m990.03 196.05h-40.19v22.75h-33.37v-91h83.42c22.58 0 40.95 15.31 40.95 34.13 0 11.46-6.81 21.61-17.23 27.8l18.41 29.07h-37.58zm-40.19-22.75h43.99c7.53 0 13.65-5.1 13.65-11.38s-6.12-11.38-13.65-11.38h-43.99v22.75z"/><path d="m1118.84 185.55v33.25h-33.37v-33.25l-50.05-57.75h39.44l27.3 31.5 27.3-31.5h39.43z"/></g></svg>