<?xml version="1.0" encoding="UTF-8"?><svg id="Layer_1" xmlns="http://www.w3.org/2000/svg" viewBox="0 0 920 230"><defs><style>.cls-1{fill:#1a1a1a;}.cls-1,.cls-2{stroke-width:0px;}.cls-2{fill:#c8102e;}</style></defs><path class="cls-2" d="m72.07,107.33C29.53,107.33,2.23,97.22,2.23,59.3,2.23,23.91,26.5,11.27,72.07,11.27s69.7,12.64,69.7,48.03c0,37.92-24.27,48.03-69.7,48.03Zm0-73.31c-21.31,0-33.44,5.06-33.44,25.28s12.13,25.28,33.44,25.28,33.3-5.06,33.3-25.28-11.75-25.28-33.3-25.28Z"/><path class="cls-2" d="m296.89,13.8l-30.33,91h-30.33l-17.69-53.09-17.7,53.09h-30.33l-30.33-91h30.33l18.07,54.22,18.07-54.22h23.76l18.07,54.22,18.07-54.22h30.33Z"/><path class="cls-2" d="m412.14,13.8v91h-32.86l-48.03-54.03v54.03h-27.81V13.8h30.33l50.56,56.88V13.8h27.81Z"/><path class="cls-2" d="m459.69,104.8V13.8h27.81v91h-27.81Z"/><path class="cls-2" d="m595.91,36.55h-36.65v68.25h-27.81V36.55h-36.65V13.8h101.11v22.75Z"/><path class="cls-2" d="m691.83,11.27c37.86,0,58.08,12.64,58.08,48.03,0,37.92-20.22,48.03-58.08,48.03-35.45,0-58.2-10.11-58.2-48.03,0-35.39,20.22-48.03,58.2-48.03Zm-42.42,11.94c-9.6,7.43-14.27,19.23-14.27,36.09s4.96,29.67,15.17,37c9.03,6.49,22.22,9.51,41.51,9.51,9.89,0,17.98-.7,24.73-2.14,7.27-1.55,13.02-3.96,17.6-7.36,4.78-3.55,8.24-8.15,10.59-14.07,2.45-6.19,3.65-13.7,3.65-22.94,0-16.85-4.66-28.65-14.26-36.09-9.05-7.02-22.89-10.43-42.31-10.43s-33.35,3.41-42.42,10.43Zm20.88,57.49c-5.28-4.22-7.84-11.22-7.84-21.41s2.57-17.19,7.84-21.41c4.67-3.73,11.31-5.39,21.54-5.39s16.94,1.66,21.56,5.39c5.26,4.25,7.71,11.05,7.71,21.4,0,23.55-14.06,26.79-29.26,26.79-10.23,0-16.87-1.66-21.54-5.39Zm21.54,3.87c17.63,0,27.75-5.06,27.75-25.28s-9.8-25.28-27.75-25.28-27.87,5.06-27.87,25.28,10.11,25.28,27.87,25.28Z"/><path class="cls-2" d="m829.9,13.8c18.82,0,34.13,15.31,34.13,34.13,0,11.46-5.67,21.61-14.36,27.8l15.34,29.07h-31.32l-12.01-22.75h-33.49v22.75h-27.81V13.8h69.52Zm-68,1.52v87.97h24.77v-22.75h35.92l.43.81,11.58,21.94h27.89l-14.17-26.85-.62-1.17,1.08-.77c4.15-2.96,7.6-6.9,9.98-11.4,2.45-4.65,3.75-9.89,3.75-15.17,0-17.98-14.63-32.61-32.61-32.61h-68Zm24.77,19.72h38.17c7.11,0,12.89,5.78,12.89,12.89s-5.78,12.89-12.89,12.89h-38.17v-25.78Zm1.52,24.27h36.65c6.27,0,11.38-5.1,11.38-11.38s-5.1-11.38-11.38-11.38h-36.65v22.75Z"/><path class="cls-1" d="m109.64,190.59c0,14.46-11.76,26.22-26.22,26.22H6v-91.01h72.37c14.46,0,26.22,11.76,26.22,26.22,0,6.48-2.36,12.42-6.27,17,6.84,4.74,11.33,12.64,11.33,21.57Zm-75.84-42.03v12.64h36.65c3.48,0,6.32-2.84,6.32-6.32s-2.83-6.32-6.32-6.32h-36.65Zm48.03,39.18c0-3.48-2.83-6.32-6.32-6.32h-41.71v12.64h41.71c3.48,0,6.32-2.83,6.32-6.32Z"/><path class="cls-1" d="m174.44,219.33c-35.45,0-58.2-10.11-58.2-48.03,0-35.39,20.22-48.03,58.2-48.03s58.08,12.64,58.08,48.03c0,37.92-20.22,48.03-58.08,48.03Zm0-73.31c-17.75,0-27.87,5.06-27.87,25.28s10.11,25.28,27.87,25.28,27.75-5.06,27.75-25.28-9.8-25.28-27.75-25.28Z"/><path class="cls-1" d="m304.29,194.05h-33.49v22.75h-27.81v-91h69.52c18.82,0,34.13,15.31,34.13,34.13,0,11.46-5.67,21.61-14.36,27.8l15.34,29.07h-31.32l-12.01-22.75Zm-33.5-22.75h36.65c6.27,0,11.38-5.1,11.38-11.38s-5.1-11.38-11.38-11.38h-36.65v22.75Z"/><path class="cls-1" d="m418.69,194.05h-33.49v22.75h-27.81v-91h69.52c18.82,0,34.13,15.31,34.13,34.13,0,11.46-5.67,21.61-14.36,27.8l15.34,29.07h-31.32l-12.01-22.75Zm-33.5-22.75h36.65c6.27,0,11.38-5.1,11.38-11.38s-5.1-11.38-11.38-11.38h-36.65v22.75Z"/><path class="cls-1" d="m526.6,219.33c-35.45,0-58.2-10.11-58.2-48.03,0-35.39,20.22-48.03,58.2-48.03s58.08,12.64,58.08,48.03c0,37.92-20.22,48.03-58.08,48.03Zm0-73.31c-17.75,0-27.87,5.06-27.87,25.28s10.11,25.28,27.87,25.28,27.75-5.06,27.75-25.28-9.8-25.28-27.75-25.28Z"/><path class="cls-1" d="m741.74,125.8l-30.33,91h-30.33l-17.7-53.09-17.7,53.09h-30.33l-30.33-91h30.33l18.07,54.22,18.07-54.22h23.76l18.07,54.22,18.07-54.22h30.33Z"/><path class="cls-1" d="m775.59,216.8v-91h27.81v91h-27.81Z"/><path class="cls-1" d="m911.81,148.55h-36.65v68.25h-27.81v-68.25h-36.65v-22.75h101.12v22.75Z"/></svg>