<svg viewBox="0 0 910 230" xmlns="http://www.w3.org/2000/svg"><path d="m120.37 49.93c0 18.82-18.37 34.12-40.95 34.12h-40.95v22.75h-33.38v-91h74.32c22.58 0 40.95 15.31 40.95 34.13zm-33.37 0c0-6.27-6.12-11.38-13.65-11.38h-34.88v22.75h34.88c7.53 0 13.65-5.1 13.65-11.38z" fill="#1a1a1a"/><path d="m205.92 96.69h-58.73l-5.98 10.11h-36.53l53.53-91h36.49l53.59 91h-36.45zm-29.52-49.89-16.06 27.14h31.95l-15.9-27.14z" fill="#1a1a1a"/><path d="m322.79 84.05h-40.19v22.75h-33.37v-91h83.42c22.58 0 40.95 15.31 40.95 34.13 0 11.46-6.81 21.61-17.23 27.8l18.41 29.07h-37.58zm-40.19-22.75h43.99c7.53 0 13.65-5.1 13.65-11.38s-6.12-11.38-13.65-11.38h-43.99v22.75z" fill="#1a1a1a"/><path d="m494.59 38.55h-43.99v68.25h-33.37v-68.25h-43.98v-22.75h121.34z" fill="#1a1a1a"/><path d="m605.51 78.99h-.06c0 25.28-21.61 30.33-55.55 30.33s-55.61-5.06-55.61-32.86h27.81c0 10.11 11.48 10.11 27.81 10.11s27.55 0 27.55-7.58c0-8.9-11.87-8.3-27.88-8.85-.02 0-.04 0-.06 0s-.04 0-.06 0c-33.92-1.16-53.9-3.78-53.9-27.8s20.35-29.07 54.29-29.07 54.35 5.05 54.35 32.86h-27.81c0-10.11-10.12-10.11-26.54-10.11s-26.29 0-26.29 6.32c0 7.7 10.67 7.04 26.68 7.59h.06s.04 0 .06 0c33.92 1.16 55.16 3.78 55.16 29.06z" fill="#1a1a1a"/><path d="m719.63 50.38v21.86h-25.5v25.5h-21.86v-25.5h-25.5v-21.86h25.5v-25.5h21.86v25.5zm-1.52 1.52h-25.5v-25.5h-18.82v25.5h-25.5v18.82h25.5v25.5h18.82v-25.5h25.5z" fill="#1a1a1a"/><g fill="#c8102e"><path d="m113.2 190.99h-.06c0 25.28-21.61 30.33-55.55 30.33s-55.62-5.05-55.62-32.86h27.81c0 10.11 11.48 10.11 27.81 10.11s27.55 0 27.55-7.58c0-8.9-11.87-8.3-27.88-8.85-.02 0-.04 0-.06 0s-.04 0-.06 0c-33.92-1.16-53.9-3.78-53.9-27.8s20.35-29.07 54.29-29.07 54.35 5.05 54.35 32.86h-27.81c0-10.11-10.12-10.11-26.54-10.11s-26.29 0-26.29 6.32c0 7.7 10.67 7.04 26.68 7.59h.06s.04 0 .06 0c33.92 1.16 55.16 3.78 55.16 29.06z"/><path d="m217.57 196.05v22.75h-93.53v-91h93.53v22.75h-65.72v11.38h60.67v22.75h-60.67v11.38h65.72z"/><path d="m290.77 196.05h-33.49v22.75h-27.81v-91h69.52c18.82 0 34.13 15.31 34.13 34.13 0 11.46-5.67 21.61-14.36 27.8l15.34 29.07h-31.32zm-33.49-22.75h36.65c6.27 0 11.38-5.1 11.38-11.38s-5.1-11.38-11.38-11.38h-36.65v22.75z"/><path d="m448.19 127.8-45.5 91h-25.28l-45.5-91h30.33l27.81 55.61 27.81-55.61z"/><path d="m453.98 218.8v-91h27.81v91z"/><path d="m607.8 183.41c-3.47 29.64-23.28 37.92-57.53 37.92s-58.2-10.11-58.2-48.03c0-35.39 20.22-48.03 58.2-48.03 34 0 53.78 10.2 57.45 37.92h-30.8c-3.01-11.88-12.18-15.17-26.65-15.17-17.76 0-27.87 5.06-27.87 25.28s10.11 25.28 27.87 25.28c14.22 0 23.55-3.29 26.63-15.17z"/><path d="m617.78 218.8v-91h27.81v91z"/><path d="m767.95 127.8v91h-32.86l-48.03-54.03v54.03h-27.81v-91h30.33l50.56 56.88v-56.88z"/><path d="m894.61 170.78v48.03h-20.22v-3.98c-9.45 4.76-22.13 6.5-37.86 6.5-35.45 0-58.2-10.11-58.2-48.03 0-35.39 20.22-48.03 58.2-48.03 32.95 0 52.54 9.58 57.06 35.39h-31.19c-3.63-9.82-12.49-12.64-25.88-12.64-17.75 0-27.87 5.06-27.87 25.28s10.11 25.28 27.87 25.28c10.54 0 18.4-1.81 23.01-7.58h-20.54v-20.22h55.61z"/></g></svg>