<?xml version="1.0" encoding="UTF-8"?><svg id="Layer_1" xmlns="http://www.w3.org/2000/svg" viewBox="0 0 32 32"><defs><style>.cls-1{fill:#c8102e;stroke-width:0px;}</style></defs><path class="cls-1" d="m19.41,17.2s-.03,0-.04,0c-.32-.02-.55-.3-.53-.62l.14-1.87c0-.06-.02-.13-.06-.17l-1.33-1.29c-.34-.33-.49-.81-.38-1.28.1-.47.44-.84.89-.99l.23-.08c.07-.02.12-.08.14-.15l.28-1.02c.02-.05,0-.11-.02-.16l-3.53-7.33c-.25-.47-.2-1.06.16-1.5.24-.29.6-.47.98-.49.37-.02.76.13,1.03.4.02.02.05.05.07.08l3.21,4.6c1.41,1.99,2.58,2.76,3.03,2.53l1.23-.68c.41-.22.89-.22,1.3,0l1,.53c.34.18.58.49.68.86s.03.76-.17,1.08l-1.67,2.6c-.17.27-.53.34-.79.17-.27-.17-.34-.53-.17-.79l1.67-2.6c.04-.07.04-.14.03-.17,0-.03-.04-.1-.11-.13l-1-.53c-.06-.03-.14-.03-.21,0l-1.24.68c-1.49.78-3.25-1.11-4.48-2.83l-3.21-4.6s-.1-.04-.13-.04c-.04,0-.1.01-.15.08-.06.07-.07.16-.02.24l3.53,7.33c.16.29.2.65.1.99l-.28,1.02c-.12.43-.45.78-.87.93l-.23.08c-.1.03-.13.11-.14.16,0,.04-.01.13.06.2l1.33,1.29c.29.28.44.68.41,1.08l-.14,1.87c-.02.3-.27.53-.57.53Z"/><path class="cls-1" d="m26.14,15.62c-.19-.15-.37-.16-.48-.15-.27.04-.46.25-.57.41l-8.47,11.81-2.93-2.93c-.18-.18-.37-.24-.56-.26-.12,0-.3.04-.46.22-.21.23-.31.61.07.99,1.13,1.14,2.27,2.27,3.4,3.4.13.13.32.29.58.29.02,0,.03,0,.05,0,.28-.02.45-.22.58-.4l8.9-12.4c.25-.36.22-.73-.1-.98Z"/><path class="cls-1" d="m8.74,31.75c-.19,0-.37-.03-.55-.09l-3.06-1.03c-.58-.2-1.03-.64-1.23-1.22-.2-.58-.13-1.21.2-1.72l2.04-3.2c.33-.51.78-.95,1.3-1.26l1.13-.68c.24-.14.44-.33.6-.57l4.53-6.63c.26-.38.67-.62,1.12-.67.45-.05.9.1,1.24.42l2.39,2.25c.21.2.24.54.06.77l-2.69,3.49.22.35c.25.39.25.88,0,1.28-.24.39-.69.61-1.15.56-.32-.03-.55-.31-.51-.63.03-.32.31-.55.63-.51l.54-.39-.49.3-.43-.68c-.13-.2-.12-.47.03-.66l2.62-3.4-2.01-1.9c-.12-.11-.25-.12-.32-.11-.07,0-.2.04-.29.18l-4.53,6.63c-.25.37-.58.68-.96.9l-1.13.68c-.37.22-.69.53-.92.89l-2.04,3.2c-.14.22-.17.48-.08.72.08.24.27.43.52.51l3.06,1.03c.25.08.53-.01.68-.23l2.05-3.05c.18-.26.53-.33.8-.16.26.18.33.53.16.8l-2.05,3.05c-.33.49-.88.77-1.45.77Z"/></svg>