<svg viewBox="0 0 32 32" xmlns="http://www.w3.org/2000/svg"><g fill="#c8102e"><path d="m31.07 29.88c-.08-.12-.17-.21-.26-.3l-.05-.05c-3.55-3.55-7.1-7.1-10.66-10.65-.06-.06-.14-.12-.21-.17 1.89-2.28 2.79-5.11 2.55-8s-1.64-5.6-3.85-7.42c-4.38-3.62-10.51-3.37-14.58.6-3.98 3.89-4.34 10.16-.83 14.59 1.79 2.26 4.52 3.71 7.5 3.98 2.9.26 5.74-.64 8.03-2.54.04.06.08.11.13.16 3.33 3.33 6.66 6.67 9.99 10l.75.75c.09.09.17.17.27.24.17.12.36.18.54.18.22 0 .43-.09.61-.27.3-.31.33-.71.08-1.1zm-10.32-18.23c0 2.41-.95 4.69-2.68 6.42-1.74 1.74-4.03 2.7-6.46 2.7-5.02 0-9.1-4.11-9.1-9.15 0-5.01 4.08-9.09 9.1-9.1h.02c5.03 0 9.12 4.09 9.13 9.13z"/><path d="m7.85 10.25c.75 0 1.31.56 1.31 1.28v.03c0 .72-.56 1.28-1.31 1.28s-1.31-.56-1.31-1.28v-.03c0-.72.56-1.28 1.31-1.28z"/><path d="m11.85 10.25c.75 0 1.31.56 1.31 1.28v.03c0 .72-.56 1.28-1.31 1.28s-1.31-.56-1.31-1.28v-.03c0-.72.56-1.28 1.31-1.28z"/><path d="m15.85 10.25c.75 0 1.31.56 1.31 1.28v.03c0 .72-.56 1.28-1.31 1.28s-1.31-.56-1.31-1.28v-.03c0-.72.56-1.28 1.31-1.28z"/></g></svg>