<svg viewBox="0 0 32 32" xmlns="http://www.w3.org/2000/svg"><path d="m3.63 5.47v.89c0 1.48-.01 2.97 0 4.45 0 .28.07.59.2.83.77 1.49 1.1 3.08 1.1 4.74 0 .63-.24.87-.88.88-.75 0-1.49 0-2.24 0-.55 0-.78-.25-.79-.8-.03-1.67.31-3.25 1.07-4.75.14-.28.23-.62.23-.93.02-1.85.01-3.69 0-5.54 0-.17 0-.35-.04-.51-.19-.81.03-1.2.85-1.4 1.2-.29 2.4-.55 3.6-.82 2.76-.63 5.51-1.28 8.27-1.87.59-.13 1.25-.16 1.84-.04 3.93.86 7.85 1.77 11.78 2.67.17.04.34.08.5.13.48.15.72.48.69.97-.03.45-.27.77-.74.88-1.32.3-2.63.62-3.96.89-.49.1-.67.29-.66.81.03 2.38.04 4.76 0 7.15-.04 3.58-2.22 6.63-5.58 7.86-5.34 1.96-11.21-1.97-11.33-7.61-.06-2.5-.02-5.01 0-7.51 0-.4-.1-.58-.51-.66-1-.2-2-.45-3-.67-.11-.03-.24-.02-.42-.03zm5.22 5.74c0 1.04-.02 2.04 0 3.04.08 3.25 2.4 6.03 5.59 6.75 3.21.71 6.5-.86 7.99-3.78.98-1.92.7-3.96.74-6.01-4.79 1.16-9.52 1.17-14.33 0zm-3.82-6.95s0 .06 0 .1c.11.04.21.08.32.11 3.01.68 6.01 1.38 9.03 2.03.68.15 1.43.37 2.08.23 3.43-.7 6.84-1.51 10.25-2.28.1-.02.19-.08.36-.15-.15-.06-.21-.1-.27-.11-3.26-.74-6.53-1.48-9.8-2.19-.49-.11-1.04-.2-1.52-.1-3.32.71-6.63 1.47-9.95 2.22-.17.04-.34.1-.51.14zm18.15 2.39c-.18.02-.3.01-.41.04-1.94.45-3.88.91-5.83 1.33-.51.11-1.07.14-1.58.05-1.26-.23-2.51-.55-3.76-.84-.89-.2-1.78-.4-2.75-.62 0 1.03 0 1.99.01 2.95 0 .1.18.25.3.29.66.2 1.32.42 2 .54 2.63.47 5.29.54 7.94.24 1.25-.14 2.48-.49 3.71-.77.14-.03.35-.22.36-.35.03-.94.02-1.89.02-2.86zm-20.07 6.41c-.09 0-.18 0-.28 0-.19.94-.38 1.89-.58 2.87h1.46c-.21-1-.41-1.93-.6-2.86z" fill="#231f20"/><path d="m16 23.08c3.4.08 6.73.4 9.87 1.7 1.27.53 2.47 1.24 3.65 1.96.95.57 1.4 1.5 1.46 2.61.02.46.01.93 0 1.4 0 .43-.22.72-.65.72s-.65-.28-.66-.71c0-.45 0-.9 0-1.35-.02-.73-.35-1.27-.95-1.69-1.67-1.17-3.52-1.93-5.48-2.45-.18-.05-.47.06-.61.19-1.79 1.66-3.55 3.35-5.33 5.03-1.02.96-1.6.96-2.62 0-1.76-1.67-3.52-3.34-5.29-4.99-.16-.15-.46-.27-.65-.22-1.96.52-3.81 1.27-5.47 2.46-.65.47-.98 1.05-.96 1.84v1.14c-.01.46-.29.8-.67.76-.43-.04-.63-.31-.65-.73-.05-1.44-.06-2.89 1.27-3.85.78-.57 1.61-1.09 2.47-1.52 3.55-1.76 7.38-2.21 11.25-2.3zm0 6.86c1.79-1.7 3.52-3.34 5.37-5.1-3.64-.62-7.11-.63-10.74 0 1.85 1.75 3.58 3.39 5.37 5.09z" fill="#231f20"/><g fill="#c8102e"><path d="m15.97 18.55c-.75.02-1.47-.22-2.12-.65-.34-.22-.61-.5-.35-.94.22-.38.56-.44 1.03-.16.98.6 1.96.6 2.94 0 .48-.29.8-.24 1.03.14.26.44 0 .72-.34.94-.65.43-1.37.67-2.19.66z"/><path d="m13.4 13.07c.53 0 .96.4.97.93s-.4.96-.93.97c-.56.02-.99-.4-.99-.95 0-.53.42-.94.95-.95z"/><path d="m18.63 13.07c.53 0 .95.43.95.95 0 .55-.45.97-1 .95-.54-.02-.93-.43-.92-.97.01-.53.44-.94.97-.93z"/></g></svg>