<?xml version="1.0" encoding="UTF-8"?><svg id="Layer_1" xmlns="http://www.w3.org/2000/svg" viewBox="0 0 32 32"><defs><style>.cls-1{fill:#c8102e;}.cls-1,.cls-2{stroke-width:0px;}.cls-2{fill:#fff;}</style></defs><path class="cls-2" d="m30.14,16.62c0-.19,0-.38,0-.57,0-1.55,0-3.1,0-4.65,0-.59.25-.9.68-.9.42,0,.66.31.66.86,0,2.35,0,4.7,0,7.05,0,.5-.24.75-.76.75-2.39,0-4.79,0-7.18,0-.5,0-.82-.28-.82-.67,0-.4.31-.66.81-.66,1.64,0,3.27,0,4.91,0,.19,0,.39,0,.71,0-.17-.21-.26-.34-.36-.44-2.96-3.11-5.93-6.21-8.89-9.33-.58-.62-1.27-.83-2.09-.73-2.64.34-5.28.67-7.92,1-1.14.14-2.08-.3-2.87-1.08-1.86-1.81-3.7-3.64-5.53-5.48-.19-.19-.33-.54-.3-.79.06-.52.69-.66,1.14-.27.4.35.77.74,1.16,1.12,1.44,1.42,2.9,2.82,4.3,4.28.73.76,1.55.97,2.58.83,2.58-.36,5.17-.67,7.76-.95,1.17-.13,2.08.44,2.86,1.25,2.9,3.02,5.78,6.05,8.67,9.09.11.11.18.26.27.39.07-.03.13-.07.2-.1Z"/><path class="cls-2" d="m.5,22.86c-.06-4.53,3.72-8.65,8.68-8.72,4.83-.06,8.82,3.77,8.9,8.6.08,4.76-3.76,8.67-8.6,8.76-5.01.09-8.9-3.65-8.99-8.64Zm16.23.02c.04-4.04-3.26-7.34-7.38-7.39-4.09-.05-7.46,3.22-7.49,7.28-.03,4.08,3.21,7.36,7.3,7.39,4.22.04,7.53-3.14,7.57-7.29Z"/><path class="cls-1" d="m8.75,26.16c.38,0,.76,0,1.14,0,.66,0,1.09-.32,1.21-.85.12-.56-.15-1.06-.76-1.32-.91-.38-1.85-.71-2.75-1.1-1.52-.67-1.97-2.47-.98-3.76.4-.52.94-.83,1.59-.92.28-.04.41-.14.44-.42.03-.37.27-.59.64-.59.38,0,.62.21.65.58.03.35.22.39.51.38.29-.01.58-.02.86.02.4.05.68.27.65.71-.03.43-.31.61-.73.61-.74,0-1.48-.01-2.22,0-.32,0-.66.03-.95.15-.43.18-.63.57-.61,1.04.02.5.32.82.77,1.01.91.38,1.85.72,2.75,1.11.96.42,1.49,1.17,1.51,2.21.02,1.05-.5,1.79-1.43,2.27-.16.08-.34.16-.51.17-.36.02-.56.12-.65.54-.04.21-.42.49-.64.48-.21,0-.53-.31-.59-.53-.1-.36-.25-.46-.59-.43-.25.02-.5,0-.76,0-.4,0-.67-.18-.71-.58-.04-.43.22-.69.62-.73.5-.04,1.01-.01,1.51-.01,0,0,0-.02,0-.03Z"/></svg>