<svg viewBox="0 0 32 32" xmlns="http://www.w3.org/2000/svg"><path d="m16.74 24.28c-.14.39-.22.76-.39 1.08-.83 1.53-2.84 1.76-4.06.45-1.09-1.17-2.14-2.38-3.2-3.57-.04-.04-.07-.08-.1-.12q-1.35-1.53-3.38-1.43c-.18 0-.42.12-.51.27-.45.76-1.15 1.03-1.97 1.05-.75.02-1.49.01-2.24 0-.58-.01-.92-.28-.88-.7.05-.53.43-.64.88-.64h2.24c.65-.01.87-.24.87-.88 0-2.95 0-5.9 0-8.85 0-.72-.2-.92-.92-.92-.73 0-1.46 0-2.19 0-.59-.01-.9-.27-.88-.7.02-.41.3-.63.88-.63h1.97c1.65 0 2.31.59 2.52 2.28.17-.06.33-.11.49-.17 1.64-.64 3.26-1.31 4.91-1.93 1.07-.4 2.1-.28 3.04.4.27.2.5.18.78.04 1.09-.55 2.19-1.11 3.3-1.61 1.02-.47 2.07-.4 3.11-.02 1.79.64 3.57 1.29 5.36 1.95.33.12.56.16.8-.19.32-.48.82-.72 1.42-.73.89 0 1.78-.01 2.67 0 .43 0 .74.19.75.65.01.48-.33.65-.73.67-.76.03-1.53 0-2.29.02-.77 0-.96.19-.96.95v8.8c0 .68.21.9.89.91.75.02 1.49 0 2.24.01.56 0 .86.25.86.66 0 .4-.3.67-.86.67-.91 0-1.81 0-2.72-.05-.6-.03-1.05-.37-1.43-.83-.12-.14-.38-.27-.55-.24-2.06.37-4.12.76-6.18 1.16-.16.03-.37.17-.43.31-.59 1.35-1.64 1.94-3.09 1.94zm-11.41-4.95c.74 0 1.41.03 2.08 0 .62-.04 1.06.18 1.47.65 1.44 1.66 2.92 3.3 4.4 4.93.51.55 1.22.56 1.7.08.47-.46.45-1.24-.04-1.74-.2-.2-.4-.4-.6-.61-.42-.44-.46-.81-.14-1.11.31-.29.69-.22 1.12.19.26.25.53.48.75.76.55.7 1.9.57 2.42-.43.14-.26.13-.49-.11-.71-.48-.45-.94-.92-1.39-1.39-.39-.41-.43-.77-.12-1.07.29-.28.69-.24 1.08.13.47.46.92.94 1.41 1.38.16.15.43.24.65.25.54.02.95-.24 1.19-.74.25-.53.14-1-.2-1.44-1.21-1.56-2.43-3.11-3.63-4.67-.22-.28-.42-.3-.73-.19-.63.23-1.27.44-1.92.63-1.01.29-2.04-.14-2.56-1.04-.51-.88-.38-1.97.32-2.71.08-.08.14-.18.29-.39-.57 0-1.06-.12-1.45.02-1.91.71-3.8 1.49-5.69 2.26-.13.05-.29.24-.29.37-.02 2.17-.01 4.33-.01 6.61zm17.2.82c.11.02.17.04.21.03 1.21-.23 2.41-.44 3.61-.7.13-.03.3-.29.3-.44.02-2.51.02-5.01 0-7.52 0-.17-.17-.44-.32-.49-2.01-.75-4.03-1.5-6.07-2.18-.49-.16-1.15-.22-1.6-.02-1.71.75-3.37 1.59-5.03 2.45-.62.32-.61 1.23 0 1.53.25.13.63.12.91.04 1.43-.44 2.84-.92 4.25-1.38.65-.21 1.02-.11 1.16.34.13.41-.12.72-.72.92-.24.08-.47.18-.75.29.16.22.26.36.37.5 1.02 1.3 2.03 2.61 3.06 3.91.64.8.91 1.67.63 2.72z" fill="#fff"/></svg>