<?xml version="1.0" encoding="UTF-8"?><svg id="Layer_1" xmlns="http://www.w3.org/2000/svg" viewBox="0 0 32 32"><defs><style>.cls-1{fill:#c8102e;}.cls-1,.cls-2{stroke-width:0px;}.cls-2{fill:#fff;}</style></defs><path class="cls-2" d="m16.67,30.01c0,.43,0,.82,0,1.21-.01.5-.28.81-.68.78-.45-.04-.64-.34-.64-.77,0-.39,0-.78,0-1.2-.52-.1-1.01-.17-1.49-.3-1.7-.47-2.52-1.55-2.53-3.3,0-.82-.03-1.64,0-2.45.02-.41-.13-.64-.47-.86-1.72-1.1-2.93-2.61-3.64-4.52-1.31-3.51-.31-7.57,2.48-10.1,5.32-4.83,13.03-2.22,15.15,3.92,1.35,3.91-.11,8.29-3.58,10.59-.43.28-.66.78-.62,1.28.06.69.01,1.39.01,2.08,0,1.99-1.1,3.23-3.08,3.49-.28.04-.56.09-.93.14Zm-.62-13.51c.25-.33.4-.56.58-.75.52-.54,1.05-1.06,1.59-1.57.29-.27.62-.27.91.01.29.28.27.6.03.91-.08.11-.19.21-.29.31-.64.64-1.29,1.28-1.92,1.93-.13.14-.27.35-.27.54-.02,1.48-.02,2.95,0,4.43,0,.11.11.32.17.32.83,0,1.71.13,2.48-.1,1.22-.37,2.19-1.21,2.98-2.23,2.01-2.58,2.25-6.22.58-8.96-1.85-3.02-5.15-4.58-8.46-3.84-3.14.7-5.26,2.68-6.12,5.77-.89,3.19.02,5.96,2.49,8.19,1.31,1.18,2.83,1.4,4.53,1.11,0-1.42-.03-2.82.01-4.22.02-.55-.15-.93-.55-1.29-.64-.59-1.25-1.22-1.85-1.84-.36-.37-.37-.74-.06-1.03.35-.32.68-.23.98.07.17.16.33.32.49.49.52.54,1.03,1.08,1.68,1.76Zm3.26,10.22h-6.63c.03.8.41,1.31,1.08,1.56,1.51.55,3.03.56,4.53-.02.67-.26,1.02-.79,1.02-1.53Zm0-1.42v-1.27h-6.59v1.27h6.59Z"/><path class="cls-1" d="m7.9,6.37c.08.13.1.3.05.44-.13.42-.55.61-.91.43-.12-.06-.24-.16-.34-.26-.8-.79-1.59-1.58-2.38-2.37-.39-.4-.42-.78-.13-1.08.3-.3.67-.27,1.07.12.81.8,1.62,1.6,2.41,2.42.09.09.16.21.21.3Z"/><path class="cls-1" d="m24.16,7.01c-.14-.18-.16-.44-.05-.64.06-.11.12-.21.2-.29.81-.83,1.63-1.64,2.45-2.45.31-.31.66-.44,1.03-.11.3.27.29.67-.07,1.03-.83.85-1.67,1.7-2.54,2.51-.17.16-.48.26-.76.17-.1-.03-.19-.11-.27-.23Z"/><path class="cls-1" d="m2.82,14.66c-.46,0-.92.01-1.39,0-.48-.01-.81-.31-.77-.69.05-.49.41-.68.92-.63.86.08,1.73.03,2.6,0,.47-.02.79.17.84.64.04.4-.27.67-.77.69-.48.01-.96,0-1.44,0h0Z"/><path class="cls-1" d="m29.17,14.66c-.48,0-.96,0-1.44,0-.43,0-.74-.21-.74-.66,0-.45.3-.66.73-.67.97,0,1.95,0,2.92,0,.36,0,.68.28.69.64.02.46-.29.68-.73.69-.48.01-.96,0-1.44,0h0Z"/><path class="cls-1" d="m15.34,1.95c0-.41,0-.81,0-1.22C15.35.3,15.56,0,16.01,0c.45,0,.66.31.66.74,0,.83,0,1.66,0,2.5,0,.44-.22.73-.66.73-.45,0-.65-.3-.66-.74,0-.42,0-.85,0-1.27h0Z"/></svg>