<svg viewBox="0 0 64 64" xmlns="http://www.w3.org/2000/svg"><path d="m49.69 18.68c.8 0 1.5-.02 2.21 0 .83.03 1.37.47 1.39 1.3.02.85-.56 1.28-1.36 1.33-.7.05-1.41 0-2.22 0 0 1.61-.5 3 .39 4.57 1.45 2.58.13 6.44-2.38 8.07-.53.34-1.14.9-1.26 1.45-1.06 4.99-4.36 8.16-8.5 10.67-3.98 2.42-7.96 2.49-11.96.04-3.76-2.3-6.97-5.08-8.2-9.51-.37-1.35-.96-2.29-2.16-3.07-2.18-1.43-3.19-5.39-1.84-7.68.91-1.54.39-2.92.37-4.53-.73 0-1.4.03-2.06 0-.8-.04-1.4-.43-1.4-1.29 0-.89.56-1.31 1.44-1.37 2-.12 2.02-.13 2.39-2.1.68-3.64 2.04-6.93 4.75-9.56 1.78-1.72 3.94-2.74 6.25-3.52.4-.13.84-.5 1.01-.88.77-1.64 1.99-2.54 3.81-2.58 1.1-.03 2.2-.03 3.3 0 1.82.05 3.05.96 3.78 2.62.15.33.48.72.81.81 6.48 1.85 9.82 6.39 11.04 12.76.15.76.24 1.54.39 2.46zm-32.8 2.71c.12 1.19.2 2.24.35 3.29.11.76-.01 1.35-.66 1.89-.34.28-.6.82-.62 1.26-.09 1.72.34 3.25 2.03 4.13 1.11.58 1.74 1.5 2.06 2.7.24.92.49 1.87.9 2.72 1.54 3.17 4.15 5.22 7.2 6.84 2.66 1.41 5.22 1.39 7.79-.12.79-.47 1.63-.89 2.37-1.43 2.28-1.66 4.27-3.61 5.07-6.39.57-2.01 1.21-3.75 3.23-4.85 1.48-.81 1.92-3.82.86-4.72-.78-.66-.89-1.36-.77-2.26.13-1 .2-2 .3-3.06zm20.24-2.8c-.74-5.05-1.45-9.95-2.18-14.86-.1-.7-.59-1.03-1.28-1.04-1.1-.01-2.2-.01-3.3 0-.84.01-1.26.46-1.38 1.3-.38 2.74-.81 5.47-1.21 8.21-.3 2.09-.58 4.19-.88 6.38h10.22zm-11.21-12.26c-5.57 1.4-8.7 7.01-8.78 12.32 2.19 0 4.38.02 6.57-.03.2 0 .51-.44.55-.71.28-1.64.51-3.3.74-4.95.31-2.17.6-4.34.92-6.63zm20.9 12.33c-.22-5.82-3.51-11.12-8.6-12.24-.02.14-.08.28-.07.41.52 3.76 1.04 7.52 1.6 11.27.03.21.32.53.5.54 2.19.04 4.38.02 6.57.02z" fill="#1a1a1a"/><path d="m48 51.54v4.92c0 1.99.01 3.98 0 5.97 0 1.09-.46 1.53-1.55 1.56-.14 0-.28 0-.43 0-9.35 0-18.69 0-28.04 0-1.66 0-1.98-.32-1.98-1.99 0-3.09 0-6.18 0-9.28 0-.35 0-.7 0-1.23-.87.29-1.63.46-2.3.81-.23.12-.34.65-.34 1-.02 2.95 0 5.9-.03 8.85 0 .49-.16 1.11-.48 1.43-.27.27-1.04.41-1.31.22-.41-.3-.8-.93-.82-1.43-.08-2.59-.04-5.19-.04-7.78 0-.39 0-.78 0-1.17-4.18.56-7.61 4.24-7.95 8.47-.02.28-.02.57-.07.85-.12.77-.59 1.27-1.36 1.22-.8-.05-1.29-.55-1.27-1.42.04-3.25 1.27-6 3.49-8.34 1.3-1.37 2.88-2.3 4.66-2.9 4-1.36 8-2.7 12-4.05.2-.07.41-.13.61-.19.86-.27 1.51.03 1.8.85.3.83-.19 1.37-.93 1.66-.76.3-1.56.5-2.3.82-.27.12-.62.45-.63.69-.06 1.59-.03 3.18-.03 4.85h12c0-1.24.01-2.41 0-3.57-.01-.9.32-1.55 1.28-1.64.82-.08 1.36.59 1.37 1.65.01 1.16 0 2.33 0 3.57h11.96c0-1.67.02-3.36-.03-5.04 0-.19-.42-.42-.68-.53-.79-.32-1.62-.54-2.39-.89-.68-.31-1.05-.89-.72-1.66.31-.71.91-1.04 1.66-.79 4.86 1.67 9.86 3.05 14.53 5.16 4.2 1.89 6.16 5.72 6.33 10.35.03.85-.46 1.34-1.26 1.44-.75.1-1.35-.57-1.4-1.54-.14-2.77-1.2-5.09-3.34-6.88-1.33-1.11-2.86-1.8-4.65-2.2v8.17c0 .36.01.71 0 1.07-.05.83-.49 1.37-1.33 1.37s-1.29-.56-1.31-1.38c-.04-1.42-.02-2.84-.02-4.26 0-1.6-.06-3.2.03-4.8.05-.93-.3-1.36-1.16-1.53-.47-.09-.93-.27-1.53-.45zm-2.74 7.22h-26.49v2.49h26.49z" fill="#c8102e"/><g fill="#1a1a1a"><path d="m31.96 40c-1.73.06-3.29-.38-4.65-1.49-.68-.55-.92-1.21-.39-1.94.54-.73 1.24-.69 1.96-.2 2.04 1.38 4.09 1.38 6.13 0 .71-.48 1.42-.53 1.97.2.56.74.27 1.37-.38 1.93-1.35 1.14-2.92 1.54-4.64 1.49z"/><path d="m26.7 24.02c1.57-.07 2.8.55 3.69 1.86.46.67.36 1.27-.24 1.79-.58.5-1.15.41-1.72-.07-1.52-1.27-1.96-1.27-3.53.02-.57.47-1.14.55-1.72.05-.61-.52-.66-1.12-.21-1.79.89-1.32 2.13-1.92 3.72-1.85z"/><path d="m37.37 24.02c1.57-.07 2.8.55 3.69 1.87.45.68.35 1.27-.25 1.79-.58.5-1.15.39-1.72-.08-1.51-1.27-1.94-1.26-3.53.03-.58.47-1.14.54-1.72.04-.61-.53-.65-1.13-.2-1.79.89-1.32 2.14-1.91 3.73-1.85z"/><path d="m33.33 11.97c0 .85.01 1.7 0 2.55-.02.86-.43 1.46-1.33 1.46s-1.31-.61-1.31-1.48c-.01-1.66 0-3.32 0-4.99 0-.87.44-1.46 1.33-1.46s1.31.6 1.32 1.47v2.44z"/></g></svg>