<?xml version="1.0" encoding="UTF-8"?><svg id="Layer_1" xmlns="http://www.w3.org/2000/svg" viewBox="0 0 64 64"><defs><style>.cls-1{fill:#1a1a1a;}.cls-1,.cls-2{stroke-width:0px;}.cls-2{fill:#c8102e;}</style></defs><path class="cls-2" d="m53.62,11.33c-.97,2.07-2.27,3.7-4.07,4.85-.46.3-1.11.35-1.68.42-1.28.14-2.56.21-3.99.33.4,1.11.65,1.92.99,2.68.07.17.52.3.74.24,1.76-.45,3.13.7,2.8,2.57-.17.98-.65,1.96-1.2,2.79-.72,1.08-1.66,2.02-2.56,3.08.17.24.36.49.53.74.63.95.68,1.87-.17,2.6-1.5,1.29-2.66,2.7-3.5,4.56-1.01,2.21-4.27,2.76-6.25,2.52-.14-.02-.28-.06-.41-.11-2.03-.91-3.86-5.27-2.91-7.25.5-1.04.23-1.66-.45-2.42-.44-.49-.75-1.17-.91-1.82-.18-.72-.47-1.06-1.21-1.01-.74.05-1.49,0-2.24.06-3.27.23-4.6-1.82-4.92-4.42-.28-2.32.26-4.53,1.43-6.55,1.56-2.66,5.61-4.07,8.51-2.98.45.17.99.4,1.24.77.65.92,1.51.95,2.46.84.28-.03.56-.09.84-.13,2.47-.41,2.57-.55,2.21-3.19-2.04.32-3.76-.16-4.49-2.32-.92-2.74,1.05-3.96,2.97-5.18-.04-.11-.08-.22-.13-.32-1.58.24-3.21.32-4.73.75-8.79,2.48-13.81,8.34-15.08,17.35-.46,3.22.1,6.38,1.34,9.39.22.53.47,1.04.68,1.56.32.82.12,1.52-.7,1.87-.8.33-1.44-.06-1.71-.82-.71-2-1.63-3.98-1.97-6.05-1.33-8.01.96-14.99,6.91-20.5C27.77.84,34.71-1,42.5.76c11.68,2.63,18.99,13.97,17.23,25.31-1.07,6.88-4.57,12.22-10.44,15.99-.9.58-1.69.49-2.15-.21-.46-.7-.25-1.48.68-2.04,3.11-1.89,5.61-4.39,7.21-7.66,3.41-6.96,3.14-13.78-1.02-20.38-.07-.11-.18-.2-.39-.42Zm-8.01,11.56c-.04-.09-.08-.18-.12-.27-1.98.22-2.9-.78-3.35-2.56-.18-.72-.92-1.3-1.21-2.01-.21-.52-.3-1.25-.1-1.73.21-.49.8-.89,1.31-1.18,1.61-.9,3.34-1.36,5.2-1.3.4.01.88-.05,1.18-.27,1.4-1.05,2.36-2.45,2.86-4.13.11-.35-.02-.97-.28-1.21-2-1.91-4.27-3.4-6.93-4.25-.27-.09-.59-.24-.82-.16-1.95.72-3.91,1.44-5.81,2.28-.31.14-.37.85-.55,1.29.46.11,1.02.45,1.37.29,1.74-.75,2.97.18,3.13,1.86.16,1.68,0,3.4-.14,5.09-.03.38-.52.93-.89,1.02-1.59.37-3.2.69-4.82.85-1.6.17-3.11-.14-4.2-1.54-.2-.25-.67-.38-1.02-.4-3.89-.18-6.9,4.26-5.36,7.86.29.69.75,1.08,1.54,1.05,1.1-.04,2.2-.06,3.3-.01,1.63.08,2.61.93,3.1,2.45.21.65.5,1.32.92,1.84,1.12,1.35,1.41,2.7.56,4.32-.24.45-.18,1.16-.01,1.68.21.66.64,1.26,1.04,1.84.16.23.49.43.75.46,1.81.17,3.28-1.02,3.46-2.84.09-.88.48-1.42,1.24-1.82.57-.3,1.07-.72,1.6-1.09-1.28-1.82-1.28-2.24,0-3.79.5-.6,1.06-1.15,1.56-1.75.51-.61.98-1.26,1.47-1.89Z"/><path class="cls-1" d="m44.03,48.88c3.43-1.16,6.72-2.29,10.02-3.38,3.42-1.12,7.08-.06,9.35,2.67.91,1.1.79,1.89-.48,2.56-6.42,3.37-12.84,6.72-19.26,10.08-2.59,1.35-5.24,2.55-8.17,2.96-3.02.42-5.87-.37-8.67-1.28-4.12-1.34-8.2-2.79-12.3-4.19-.33-.11-.66-.2-.98-.3-.08.11-.14.16-.15.22-.33,2.51-1.13,3.2-3.7,3.21-2.13,0-4.27.02-6.4,0-2.23-.02-3.27-1.06-3.28-3.26,0-5.8,0-11.59,0-17.39,0-2.3,1.03-3.35,3.29-3.37,2.28-.02,4.55-.02,6.83,0,1.47.01,2.61.5,3.11,2.07.09.28.67.57,1.03.58,2.17.08,4.34,0,6.5.11,4.31.24,8.05,1.87,11.27,4.75.33.29.88.47,1.33.48,1.78.05,3.56.1,5.33,0,2.61-.14,4.54.66,5.34,3.48Zm16.35.1c-1.76-1.31-3.59-1.56-5.52-.92-3.71,1.22-7.4,2.5-11.1,3.76-.3.1-.65.2-.85.42-.98,1.02-2.19,1.2-3.52,1.19-4.44-.02-8.89,0-13.33-.01-.35,0-.81.09-1.04-.09-.41-.31-.93-.8-.93-1.22,0-.42.5-.94.91-1.24.26-.19.75-.1,1.14-.1,4.44,0,8.89,0,13.33,0,1.19,0,1.83-.49,1.84-1.33,0-.81-.69-1.34-1.82-1.34-2.31-.01-4.62-.03-6.93,0-.81.01-1.4-.24-1.98-.81-2.6-2.55-5.71-4.1-9.36-4.37-2.26-.17-4.54-.09-6.81-.19-.85-.04-1.1.25-1.09,1.08.04,3.41.05,6.82,0,10.24-.01.85.34,1.17,1.07,1.41,4.62,1.53,9.27,2.97,13.81,4.68,4.62,1.74,8.92,1.07,13.14-1.12,3.75-1.95,7.47-3.96,11.2-5.93,2.57-1.36,5.15-2.7,7.84-4.11Zm-49.8,9.72v-18.6c-2.32,0-4.55.04-6.79-.02-.89-.02-1.14.27-1.14,1.15.03,5.47.01,10.95.01,16.42,0,.34.05.68.08,1.04h7.83Z"/></svg>