<?xml version="1.0" encoding="UTF-8"?><svg id="Layer_1" xmlns="http://www.w3.org/2000/svg" viewBox="0 0 64 64"><defs><style>.cls-1{fill:#1a1a1a;}.cls-1,.cls-2{stroke-width:0px;}.cls-2{fill:#c8102e;}</style></defs><path class="cls-1" d="m16.05,48.88c-1.15,1.22-2.03,2.2-2.96,3.12-1.85,1.84-4.06,1.89-5.95.08-1.97-1.89-3.91-3.83-5.8-5.8-1.77-1.85-1.79-3.93-.05-5.77.95-1,2.05-1.85,3.26-2.94-1.2-1.13-2.14-1.99-3.04-2.88-2-1.98-2.02-4.17-.05-6.17,1.27-1.29,2.55-2.57,3.85-3.83,1.71-1.65,3.91-1.67,5.6,0,1.82,1.79,3.57,3.65,5.27,5.4,4.66-4.66,9.2-9.19,13.81-13.8-.11-.12-.32-.38-.56-.62-1.5-1.51-3.03-3-4.51-4.53-1.89-1.97-1.87-4.18.03-6.11,1.17-1.19,2.35-2.37,3.54-3.54,2.04-1.98,4.24-1.97,6.27.05.88.87,1.7,1.8,2.72,2.87.96-1.04,1.75-1.95,2.61-2.79,2.18-2.15,4.35-2.14,6.5,0,1.81,1.8,3.62,3.61,5.42,5.42,1.87,1.89,1.87,4.13,0,6.02-.92.93-1.88,1.82-3.03,2.92,1.05.96,1.99,1.76,2.86,2.64,2.09,2.09,2.06,4.34-.03,6.42-.45.45-.9.92-1.41,1.29-.57.42-1.21.46-1.72-.13-.48-.55-.5-1.18-.02-1.75.36-.43.79-.82,1.19-1.22,1.13-1.13,1.14-1.74.02-2.86-4.28-4.26-8.57-8.5-12.84-12.76-1.41-1.4-2.77-2.85-4.18-4.25-.94-.94-1.51-.92-2.44-.01-1.14,1.12-2.28,2.24-3.4,3.38-1.05,1.06-1.05,1.61.02,2.68,4.69,4.7,9.39,9.39,14.08,14.08.38.38.76.75,1.12,1.14.55.6.68,1.29.1,1.91-.62.66-1.36.57-1.99-.01-.86-.79-1.67-1.65-2.5-2.47-.25-.25-.51-.49-.69-.66-4.6,4.57-9.16,9.11-13.85,13.78.88.84,1.82,1.7,2.72,2.59.8.8.88,1.65.26,2.22-.61.56-1.37.47-2.15-.31-4.82-4.82-9.63-9.65-14.44-14.48-1.39-1.39-1.75-1.39-3.13-.02-1.01,1-2.01,2-3.02,3.01-1.1,1.1-1.11,1.69-.03,2.78,4.3,4.29,8.6,8.57,12.9,12.86,1.36,1.35,2.7,2.72,4.04,4.1.74.76,1.48,1.04,2.42.32.67-.51,1.36-.43,1.87.26.51.69.28,1.33-.31,1.89-1.38,1.29-3.81,1.33-5.25-.05-1.07-1.02-2-2.19-3.15-3.46Zm2.38-17.01c1.07,1.13,1.99,2.1,2.85,3.02,4.56-4.56,9.08-9.08,13.49-13.48-.87-.94-1.79-1.94-2.81-3.06-4.54,4.54-9.05,9.05-13.53,13.53Zm-4.75,15.49c-2.51-2.53-5.1-5.13-7.72-7.77-.87.87-1.83,1.81-2.76,2.78-.62.64-.62,1.36,0,1.99,1.94,1.97,3.9,3.93,5.87,5.87.54.54,1.24.71,1.81.15,1.03-1.01,1.97-2.11,2.81-3.02ZM47.37,13.86c1-.97,2.01-1.9,2.96-2.9.57-.6.54-1.32-.04-1.91-1.94-1.97-3.89-3.93-5.86-5.87-.57-.56-1.3-.69-1.91-.12-1.04.96-2,1.99-2.95,2.94,2.62,2.63,5.19,5.22,7.81,7.85Z"/><path class="cls-2" d="m64,46.66c0,9.66-7.64,17.33-17.27,17.33-9.7,0-17.36-7.68-17.34-17.38.03-9.5,7.81-17.22,17.34-17.19,9.6.03,17.27,7.69,17.27,17.24Zm-2.67.18c.09-8.1-6.34-14.65-14.49-14.76-8.01-.11-14.68,6.37-14.79,14.36-.11,8.25,6.25,14.78,14.55,14.92,7.99.14,14.64-6.42,14.73-14.52Z"/><path class="cls-2" d="m48.02,45.39c1.33,0,2.49,0,3.66,0,.88,0,1.56.29,1.65,1.26.08.83-.55,1.37-1.63,1.38-1.56.02-3.12.03-4.68,0-1.13-.02-1.63-.51-1.65-1.63-.03-2.45-.03-4.9,0-7.35.01-1.06.59-1.74,1.41-1.64.94.11,1.27.74,1.26,1.65-.02,2.05,0,4.11,0,6.32Z"/></svg>