<svg viewBox="0 0 64 64" xmlns="http://www.w3.org/2000/svg"><path d="m11.64 33.11c-.37-2.36-.77-4.55-1.06-6.76-.44-3.34-1.15-6.69-1.12-10.02.08-7.83 6.56-14.97 14.36-16.01 2.69-.36 5.45-.26 8.18-.26 2.87 0 5.77-.08 8.61.29 6.51.85 12.53 6.9 13.83 13.32.71 3.53.11 6.92-.44 10.35-.46 2.84-.93 5.67-1.4 8.51-.02.13 0 .27 0 .36 1.28-.28 2.51-.63 3.76-.79 3.4-.43 6.42 1.5 7.36 4.63.95 3.18-.42 6.35-3.52 7.93-1.08.55-1.6 1.29-1.55 2.52.06 1.63.06 3.27 0 4.9-.16 5.04-3.71 8.77-8.72 9.2-.6.05-1.2.07-1.84.11-.22 1.02.23 2.53-1.39 2.55-1.65.03-1.25-1.47-1.46-2.54h-26.43c-.26 1.03.19 2.62-1.53 2.54-1.52-.07-1.16-1.5-1.32-2.54-.59-.04-1.15-.06-1.71-.1-5.16-.38-8.78-4.2-8.87-9.38-.02-1.42-.08-2.85.02-4.26.11-1.55-.46-2.46-1.88-3.18-3.83-1.94-4.66-7.14-1.75-10.26 2.17-2.34 4.86-2.54 7.75-1.8.65.17 1.27.41 2.14.7zm35.02 11.37c0-.48 0-.86 0-1.25-.03-2.67.61-5.12 2.36-7.22.26-.31.42-.75.48-1.16.87-5.32 1.81-10.64 2.53-15.99 1.01-7.48-4.58-15.01-12.08-15.85-4.56-.51-9.22-.36-13.83-.26-8.77.2-15.33 8.27-13.94 16.93.83 5.12 1.65 10.23 2.5 15.34.07.41.18.87.43 1.17 1.65 2.04 2.2 4.41 2.22 6.96 0 .44.04.87.06 1.29 9.79-2.4 19.44-2.43 29.25.03zm-14.72 14.18c5.68 0 11.36.02 17.04 0 4.16-.02 6.92-2.79 6.99-6.95.02-1.21.07-2.42 0-3.62-.19-2.77.79-4.77 3.39-6.02 1.69-.81 2.33-2.8 1.77-4.57s-2.18-2.88-4.07-2.78c-4.43.24-7.62 3.55-7.74 8.05-.03 1.21.01 2.41-.01 3.62-.03 1.39-.84 1.84-2.12 1.39-1.8-.63-3.62-1.28-5.48-1.63-5.44-1.01-10.96-1.08-16.43-.41-2.79.34-5.53 1.15-8.24 1.97-1.55.47-2.31.13-2.34-1.52-.03-1.56.05-3.14-.16-4.67-.52-3.95-3.94-6.83-7.9-6.8-1.77.01-3.31 1.19-3.78 2.88-.52 1.86.24 3.73 2.07 4.64 2.24 1.11 3.22 2.87 3.12 5.32-.05 1.28-.02 2.56-.01 3.83.01 4.56 2.74 7.28 7.3 7.28h16.62z" fill="#1a1a1a"/><path d="m27 21.74c3.94-4.14 6.54-4.14 9.98.03.68-.45 1.38-.92 2.08-1.37.77-.5 1.49-.49 2.04.32.55.82.09 1.41-.56 1.89-.62.46-1.27.88-2.06 1.42.74.52 1.37.94 1.98 1.39.67.49 1.21 1.06.64 1.96-.48.76-1.18.84-2.13.24-.66-.41-1.3-.85-2.05-1.34-1.13 1.86-2.67 3.07-4.9 3.08-2.24 0-3.78-1.2-4.94-3.08-.72.48-1.36.91-2.02 1.33-.96.61-1.63.54-2.14-.19-.49-.69-.27-1.35.68-2.03.6-.43 1.2-.84 1.93-1.34-.76-.52-1.41-.95-2.03-1.4-.88-.65-1.07-1.32-.58-1.97.59-.79 1.3-.74 2.05-.24.67.44 1.35.89 2.01 1.32zm5.03 4.94c1.42-.02 2.65-1.28 2.61-2.7-.03-1.43-1.31-2.65-2.71-2.6-1.38.05-2.56 1.27-2.56 2.65 0 1.42 1.25 2.67 2.66 2.65z" fill="#c8102e"/></svg>