<?xml version="1.0" encoding="UTF-8"?><svg id="Layer_1" xmlns="http://www.w3.org/2000/svg" viewBox="0 0 3000 1080"><defs><style>.cls-1,.cls-2,.cls-3{fill:none;stroke:#c8102e;stroke-miterlimit:10;}.cls-1,.cls-4{opacity:.5;}.cls-3,.cls-5{opacity:.25;}</style></defs><path class="cls-2" d="m1749.74,506.35l-149.54,89.06v-148.18s149.65-89.08,149.65-89.08l149.65,89.08v148.18s-149.77-89.06-149.77-89.06Zm-249.42,149.15l249.39,148.49,249.45-148.49v-296.99s-249.45-148.49-249.45-148.49l-249.39,148.49v296.99Z"/><path class="cls-1" d="m1749.74,556.35l-149.54,89.06v-148.18s149.65-89.08,149.65-89.08l149.65,89.08v148.18s-149.77-89.06-149.77-89.06Zm-249.42,149.15l249.39,148.49,249.45-148.49v-296.99s-249.45-148.49-249.45-148.49l-249.39,148.49v296.99Z"/><path class="cls-3" d="m1749.74,606.35l-149.54,89.06v-148.18s149.65-89.08,149.65-89.08l149.65,89.08v148.18s-149.77-89.06-149.77-89.06Zm-249.42,149.15l249.39,148.49,249.45-148.49v-296.99s-249.45-148.49-249.45-148.49l-249.39,148.49v296.99Z"/><g class="cls-5"><path class="cls-2" d="m2248.58,506.35l-149.54,89.06v-148.18s149.65-89.08,149.65-89.08l149.65,89.08v148.18s-149.77-89.06-149.77-89.06Zm-249.42,149.15l249.39,148.49,249.45-148.49v-296.99s-249.45-148.49-249.45-148.49l-249.39,148.49v296.99Z"/><path class="cls-1" d="m2248.58,556.35l-149.54,89.06v-148.18s149.65-89.08,149.65-89.08l149.65,89.08v148.18s-149.77-89.06-149.77-89.06Zm-249.42,149.15l249.39,148.49,249.45-148.49v-296.99s-249.45-148.49-249.45-148.49l-249.39,148.49v296.99Z"/><path class="cls-3" d="m2248.58,606.35l-149.54,89.06v-148.18s149.65-89.08,149.65-89.08l149.65,89.08v148.18s-149.77-89.06-149.77-89.06Zm-249.42,149.15l249.39,148.49,249.45-148.49v-296.99s-249.45-148.49-249.45-148.49l-249.39,148.49v296.99Z"/></g><g class="cls-4"><path class="cls-2" d="m1250.89,506.35l-149.54,89.06v-148.18s149.65-89.08,149.65-89.08l149.65,89.08v148.18s-149.77-89.06-149.77-89.06Zm-249.42,149.15l249.39,148.49,249.45-148.49v-296.99s-249.45-148.49-249.45-148.49l-249.39,148.49v296.99Z"/><path class="cls-1" d="m1250.89,556.35l-149.54,89.06v-148.18s149.65-89.08,149.65-89.08l149.65,89.08v148.18s-149.77-89.06-149.77-89.06Zm-249.42,149.15l249.39,148.49,249.45-148.49v-296.99s-249.45-148.49-249.45-148.49l-249.39,148.49v296.99Z"/><path class="cls-3" d="m1250.89,606.35l-149.54,89.06v-148.18s149.65-89.08,149.65-89.08l149.65,89.08v148.18s-149.77-89.06-149.77-89.06Zm-249.42,149.15l249.39,148.49,249.45-148.49v-296.99s-249.45-148.49-249.45-148.49l-249.39,148.49v296.99Z"/></g></svg>