<?xml version="1.0" encoding="UTF-8"?><svg xmlns="http://www.w3.org/2000/svg" xmlns:xlink="http://www.w3.org/1999/xlink" viewBox="0 0 3000 1080"><defs><style>.cls-1{opacity:.3;}.cls-1,.cls-2,.cls-3,.cls-4,.cls-5,.cls-6,.cls-7{fill:none;stroke:#c8102e;stroke-miterlimit:10;}.cls-2,.cls-8{opacity:.5;}.cls-9,.cls-4{opacity:.7;}.cls-9,.cls-8,.cls-10,.cls-11{stroke-width:0px;}.cls-9,.cls-11{fill:#1a1a1a;}.cls-3{opacity:.4;}.cls-5{opacity:.9;}.cls-6{opacity:.8;}.cls-7{opacity:.6;}.cls-8{fill:url(#linear-gradient);}</style><linearGradient id="linear-gradient" x1="1667" y1="540" x2="3000" y2="540" gradientUnits="userSpaceOnUse"><stop offset="0" stop-color="#1a1a1a"/><stop offset="1" stop-color="#1a1a1a" stop-opacity=".6"/></linearGradient></defs><g id="Layer_2"><rect class="cls-8" x="1667" width="1333" height="1080"/><rect class="cls-11" width="1351" height="1080"/><polygon class="cls-9" points="1999.21 540.01 2347.68 0 1024.96 0 1024.94 1080 2347.66 1080 1999.21 540.01"/><rect class="cls-10" x="881" width="960" height="1080"/><polygon class="cls-11" points="1844.27 540.01 2192.73 0 870.02 0 870 1080 2192.72 1080 1844.27 540.01"/></g><g id="Layer_1"><polyline class="cls-2" points="2735.76 1080 2386.87 539.99 2735.78 0"/><polyline class="cls-7" points="2658.4 1080 2309.51 539.99 2658.42 0"/><polyline class="cls-4" points="2581.03 1080 2232.14 539.99 2581.05 0"/><polyline class="cls-6" points="2503.66 1080 2154.77 539.99 2503.68 0"/><polyline class="cls-5" points="2426.29 1080 2077.4 539.99 2426.31 0"/><polyline class="cls-5" points="2348.92 1080 2000.03 539.99 2348.94 0"/><polyline class="cls-5" points="2271.55 1080 1922.66 539.99 2271.57 0"/><polyline class="cls-5" points="2194.18 1080 1845.29 539.99 2194.2 0"/><polyline class="cls-1" points="2890.51 1080 2541.61 539.99 2890.52 0"/><polyline class="cls-3" points="2813.13 1080 2464.24 539.99 2813.15 0"/><polyline class="cls-2" points="1186.92 0 1535.81 540.01 1186.9 1080"/><polyline class="cls-7" points="1264.29 0 1613.18 540.01 1264.27 1080"/><polyline class="cls-4" points="1341.66 0 1690.55 540.01 1341.64 1080"/><polyline class="cls-6" points="1419.03 0 1767.92 540.01 1419.01 1080"/><polyline class="cls-5" points="1496.4 0 1845.29 540.01 1496.38 1080"/><polyline class="cls-5" points="1573.77 0 1922.66 540.01 1573.75 1080"/><polyline class="cls-5" points="1651.14 0 2000.03 540.01 1651.12 1080"/><polyline class="cls-5" points="1728.51 0 2077.4 540.01 1728.49 1080"/><polyline class="cls-1" points="1032.18 0 1381.07 540.01 1032.16 1080"/><polyline class="cls-3" points="1109.55 0 1458.44 540.01 1109.53 1080"/></g></svg>