<?xml version="1.0" encoding="UTF-8"?><svg xmlns="http://www.w3.org/2000/svg" xmlns:xlink="http://www.w3.org/1999/xlink" viewBox="0 0 3000 1080"><defs><style>.cls-1{opacity:.3;}.cls-1,.cls-2,.cls-3,.cls-4,.cls-5,.cls-6,.cls-7{fill:none;stroke:#c8102e;stroke-miterlimit:10;}.cls-2,.cls-8{opacity:.5;}.cls-3,.cls-9{opacity:.4;}.cls-9,.cls-10,.cls-8,.cls-11,.cls-12,.cls-13{stroke-width:0px;}.cls-9,.cls-10,.cls-12,.cls-13{fill:#1a1a1a;}.cls-10{opacity:.25;}.cls-4{opacity:.7;}.cls-5{opacity:.9;}.cls-6{opacity:.8;}.cls-7,.cls-12{opacity:.6;}.cls-8{fill:url(#linear-gradient);}</style><linearGradient id="linear-gradient" x1="1667" y1="540" x2="3000" y2="540" gradientUnits="userSpaceOnUse"><stop offset="0" stop-color="#1a1a1a"/><stop offset="1" stop-color="#1a1a1a" stop-opacity=".6"/></linearGradient></defs><g id="Layer_2"><rect class="cls-8" x="1667" width="1333" height="1080"/><rect class="cls-13" width="1351" height="1080"/><polygon class="cls-10" points="2154.25 540.01 2502.72 0 1180 0 1179.98 1080 2502.7 1080 2154.25 540.01"/><polygon class="cls-9" points="1999.21 540.01 2347.68 0 1024.96 0 1024.94 1080 2347.66 1080 1999.21 540.01"/><polygon class="cls-12" points="1845.21 540.01 2193.68 0 870.96 0 870.94 1080 2193.66 1080 1845.21 540.01"/><rect class="cls-11" x="716" width="960" height="1080"/><polygon class="cls-13" points="1690.27 540.01 2038.73 0 716.02 0 716 1080 2038.72 1080 1690.27 540.01"/></g><g id="Layer_1"><polyline class="cls-2" points="2425.76 1080 2076.87 539.99 2425.78 0"/><polyline class="cls-7" points="2348.4 1080 1999.51 539.99 2348.42 0"/><polyline class="cls-4" points="2271.03 1080 1922.14 539.99 2271.05 0"/><polyline class="cls-6" points="2193.66 1080 1844.77 539.99 2193.68 0"/><polyline class="cls-5" points="2116.29 1080 1767.4 539.99 2116.31 0"/><polyline class="cls-5" points="2038.92 1080 1690.03 539.99 2038.94 0"/><polyline class="cls-5" points="1961.55 1080 1612.66 539.99 1961.57 0"/><polyline class="cls-5" points="1884.18 1080 1535.29 539.99 1884.2 0"/><polyline class="cls-1" points="2580.51 1080 2231.61 539.99 2580.52 0"/><polyline class="cls-3" points="2503.13 1080 2154.24 539.99 2503.15 0"/><polyline class="cls-2" points="876.92 0 1225.81 540.01 876.9 1080"/><polyline class="cls-7" points="954.29 0 1303.18 540.01 954.27 1080"/><polyline class="cls-4" points="1031.66 0 1380.55 540.01 1031.64 1080"/><polyline class="cls-6" points="1109.03 0 1457.92 540.01 1109.01 1080"/><polyline class="cls-5" points="1186.4 0 1535.29 540.01 1186.38 1080"/><polyline class="cls-5" points="1263.77 0 1612.66 540.01 1263.75 1080"/><polyline class="cls-5" points="1341.14 0 1690.03 540.01 1341.12 1080"/><polyline class="cls-5" points="1418.51 0 1767.4 540.01 1418.49 1080"/><polyline class="cls-1" points="722.18 0 1071.07 540.01 722.16 1080"/><polyline class="cls-3" points="799.55 0 1148.44 540.01 799.53 1080"/></g></svg>