<?xml version="1.0" encoding="UTF-8"?><svg xmlns="http://www.w3.org/2000/svg" xmlns:xlink="http://www.w3.org/1999/xlink" viewBox="0 0 2500 1080"><defs><style>.cls-1{opacity:.5;}.cls-1,.cls-2,.cls-3{fill:none;stroke:#c8102e;stroke-miterlimit:10;}.cls-4{opacity:.7;}.cls-4,.cls-5,.cls-6,.cls-7{stroke-width:0px;}.cls-4,.cls-7{fill:#1a1a1a;}.cls-3{opacity:.25;}.cls-5{fill:url(#linear-gradient);opacity:.15;}</style><linearGradient id="linear-gradient" x1="1398" y1="540" x2="2731" y2="540" gradientUnits="userSpaceOnUse"><stop offset="0" stop-color="#1a1a1a"/><stop offset="1" stop-color="#1a1a1a" stop-opacity=".6"/></linearGradient></defs><g id="Layer_2"><rect class="cls-5" x="1398" width="1333" height="1080"/><rect class="cls-7" x="-269" width="1351" height="1080"/><polygon class="cls-4" points="1730.21 540.01 2078.68 0 755.96 0 755.94 1080 2078.66 1080 1730.21 540.01"/><rect class="cls-6" x="612" width="960" height="1080"/><polygon class="cls-7" points="1575.27 540.01 1923.73 0 601.02 0 601 1080 1923.72 1080 1575.27 540.01"/></g><g id="Layer_1"><path class="cls-3" d="m1730,321.95l218.96-130.4v216.97s-219.12,130.44-219.12,130.44l-219.12-130.44v-216.97s219.29,130.4,219.29,130.4Zm365.21-218.38l-365.16-217.43-365.25,217.43v434.85s365.25,217.43,365.25,217.43l365.16-217.43V103.57Z"/><path class="cls-1" d="m1730,431.95l218.96-130.4v216.97s-219.12,130.44-219.12,130.44l-219.12-130.44v-216.97s219.29,130.4,219.29,130.4Zm365.21-218.38L1730.04-3.85l-365.25,217.43v434.85s365.25,217.43,365.25,217.43l365.16-217.43V213.57Z"/><path class="cls-2" d="m1730,539.95l218.96-130.4v216.97s-219.12,130.44-219.12,130.44l-219.12-130.44v-216.97s219.29,130.4,219.29,130.4Zm365.21-218.38l-365.16-217.43-365.25,217.43v434.85s365.25,217.43,365.25,217.43l365.16-217.43v-434.85Z"/><path class="cls-3" d="m1730,1497.95l218.96-130.4v216.97s-219.12,130.44-219.12,130.44l-219.12-130.44v-216.97s219.29,130.4,219.29,130.4Zm365.21-218.38l-365.16-217.43-365.25,217.43v434.85s365.25,217.43,365.25,217.43l365.16-217.43v-434.85Z"/></g></svg>