<?xml version="1.0" encoding="UTF-8"?><svg id="Layer_1" xmlns="http://www.w3.org/2000/svg" viewBox="0 0 2500 1080"><defs><style>.cls-1{opacity:.5;}.cls-1,.cls-2,.cls-3{fill:none;stroke:#c8102e;stroke-miterlimit:10;}.cls-3{opacity:.25;}</style></defs><path class="cls-3" d="m1730,321.95l218.96-130.4v216.97s-219.12,130.44-219.12,130.44l-219.12-130.44v-216.97s219.29,130.4,219.29,130.4Zm365.21-218.38l-365.16-217.43-365.25,217.43v434.85s365.25,217.43,365.25,217.43l365.16-217.43V103.57Z"/><path class="cls-1" d="m1730,431.95l218.96-130.4v216.97s-219.12,130.44-219.12,130.44l-219.12-130.44v-216.97s219.29,130.4,219.29,130.4Zm365.21-218.38L1730.04-3.85l-365.25,217.43v434.85s365.25,217.43,365.25,217.43l365.16-217.43V213.57Z"/><path class="cls-2" d="m1730,539.95l218.96-130.4v216.97s-219.12,130.44-219.12,130.44l-219.12-130.44v-216.97s219.29,130.4,219.29,130.4Zm365.21-218.38l-365.16-217.43-365.25,217.43v434.85s365.25,217.43,365.25,217.43l365.16-217.43v-434.85Z"/></svg>