<svg viewBox="0 0 419.11 432.54" xmlns="http://www.w3.org/2000/svg"><g fill="none" stroke="#c8102e" stroke-miterlimit="10"><path d="m356.79.27-139.56 216 139.56 216" opacity=".5"/><path d="m325.84.27-139.56 216 139.57 216" opacity=".6"/><path d="m294.89.27-139.56 216 139.57 216" opacity=".7"/><path d="m263.94.27-139.55 216 139.56 216" opacity=".8"/><path d="m233 .27-139.56 216 139.56 216" opacity=".9"/><path d="m202.05.27-139.56 216 139.56 216" opacity=".9"/><path d="m171.1.27-139.56 216 139.57 216" opacity=".9"/><path d="m140.15.27-139.55 216 139.56 216" opacity=".9"/><path d="m418.68.27-139.55 216 139.56 216" opacity=".3"/><path d="m387.73.27-139.55 216 139.56 216" opacity=".4"/></g></svg>