<?xml version="1.0" encoding="UTF-8"?><svg id="Layer_1" xmlns="http://www.w3.org/2000/svg" viewBox="0 0 2500 1080"><defs><style>.cls-1{opacity:.5;}.cls-1,.cls-2,.cls-3{fill:none;stroke:#c8102e;stroke-miterlimit:10;}.cls-3{opacity:.25;}</style></defs><path class="cls-2" d="m1731.74,539.11l-204.3,121.67v-202.44s204.45-121.71,204.45-121.71l204.45,121.71v202.44s-204.61-121.67-204.61-121.67Zm-340.75,203.76l340.72,202.87,340.79-202.87v-405.74s-340.79-202.87-340.79-202.87l-340.72,202.87v405.74Z"/><path class="cls-1" d="m1731.74,638.11l-204.3,121.67v-202.44s204.45-121.71,204.45-121.71l204.45,121.71v202.44s-204.61-121.67-204.61-121.67Zm-340.75,203.76l340.72,202.87,340.79-202.87v-405.74s-340.79-202.87-340.79-202.87l-340.72,202.87v405.74Z"/><path class="cls-3" d="m1731.74,741.11l-204.3,121.67v-202.44s204.45-121.71,204.45-121.71l204.45,121.71v202.44s-204.61-121.67-204.61-121.67Zm-340.75,203.76l340.72,202.87,340.79-202.87v-405.74s-340.79-202.87-340.79-202.87l-340.72,202.87v405.74Z"/></svg>