<?xml version="1.0" encoding="UTF-8"?><svg xmlns="http://www.w3.org/2000/svg" xmlns:xlink="http://www.w3.org/1999/xlink" viewBox="0 0 2500 1080"><defs><style>.cls-1{opacity:.3;}.cls-1,.cls-2,.cls-3,.cls-4,.cls-5,.cls-6,.cls-7{fill:none;stroke:#c8102e;stroke-miterlimit:10;}.cls-2{opacity:.5;}.cls-8,.cls-4{opacity:.7;}.cls-8,.cls-9,.cls-10,.cls-11{stroke-width:0px;}.cls-8,.cls-11{fill:#1a1a1a;}.cls-3{opacity:.4;}.cls-5{opacity:.9;}.cls-6{opacity:.8;}.cls-7{opacity:.6;}.cls-9{fill:url(#linear-gradient);opacity:.15;}</style><linearGradient id="linear-gradient" x1="1398" y1="540" x2="2731" y2="540" gradientUnits="userSpaceOnUse"><stop offset="0" stop-color="#1a1a1a"/><stop offset="1" stop-color="#1a1a1a" stop-opacity=".6"/></linearGradient></defs><g id="Layer_2"><rect class="cls-9" x="1398" width="1333" height="1080"/><rect class="cls-11" x="-269" width="1351" height="1080"/><polygon class="cls-8" points="1730.21 540.01 2078.68 0 755.96 0 755.94 1080 2078.66 1080 1730.21 540.01"/><rect class="cls-10" x="612" width="960" height="1080"/><polygon class="cls-11" points="1575.27 540.01 1923.73 0 601.02 0 601 1080 1923.72 1080 1575.27 540.01"/></g><g id="Layer_1"><polyline class="cls-2" points="2466.76 1080 2117.87 539.99 2466.78 0"/><polyline class="cls-7" points="2389.4 1080 2040.51 539.99 2389.42 0"/><polyline class="cls-4" points="2312.03 1080 1963.14 539.99 2312.05 0"/><polyline class="cls-6" points="2234.66 1080 1885.77 539.99 2234.68 0"/><polyline class="cls-5" points="2157.29 1080 1808.4 539.99 2157.31 0"/><polyline class="cls-5" points="2079.92 1080 1731.03 539.99 2079.94 0"/><polyline class="cls-5" points="2002.55 1080 1653.66 539.99 2002.57 0"/><polyline class="cls-5" points="1925.18 1080 1576.29 539.99 1925.2 0"/><polyline class="cls-1" points="2621.51 1080 2272.61 539.99 2621.52 0"/><polyline class="cls-3" points="2544.13 1080 2195.24 539.99 2544.15 0"/><polyline class="cls-2" points="917.92 0 1266.81 540.01 917.9 1080"/><polyline class="cls-7" points="995.29 0 1344.18 540.01 995.27 1080"/><polyline class="cls-4" points="1072.66 0 1421.55 540.01 1072.64 1080"/><polyline class="cls-6" points="1150.03 0 1498.92 540.01 1150.01 1080"/><polyline class="cls-5" points="1227.4 0 1576.29 540.01 1227.38 1080"/><polyline class="cls-5" points="1304.77 0 1653.66 540.01 1304.75 1080"/><polyline class="cls-5" points="1382.14 0 1731.03 540.01 1382.12 1080"/><polyline class="cls-5" points="1459.51 0 1808.4 540.01 1459.49 1080"/><polyline class="cls-1" points="763.18 0 1112.07 540.01 763.16 1080"/><polyline class="cls-3" points="840.55 0 1189.44 540.01 840.53 1080"/></g></svg>