<?xml version="1.0" encoding="UTF-8"?><svg id="Layer_1" xmlns="http://www.w3.org/2000/svg" viewBox="0 0 3000 1080"><defs><style>.cls-1{opacity:.5;}.cls-1,.cls-2,.cls-3{fill:none;stroke:#c8102e;stroke-miterlimit:10;}.cls-3{opacity:.25;}</style></defs><path class="cls-3" d="m1784.69,538.79l-130.4-218.96h216.97s130.44,219.12,130.44,219.12l-130.44,219.12h-216.97s130.4-219.29,130.4-219.29Zm-218.38-365.21l-217.43,365.16,217.43,365.25h434.85s217.43-365.25,217.43-365.25l-217.43-365.16h-434.85Z"/><path class="cls-1" d="m1894.69,538.79l-130.4-218.96h216.97s130.44,219.12,130.44,219.12l-130.44,219.12h-216.97s130.4-219.29,130.4-219.29Zm-218.38-365.21l-217.43,365.16,217.43,365.25h434.85s217.43-365.25,217.43-365.25l-217.43-365.16h-434.85Z"/><path class="cls-2" d="m2002.69,538.79l-130.4-218.96h216.97s130.44,219.12,130.44,219.12l-130.44,219.12h-216.97s130.4-219.29,130.4-219.29Zm-218.38-365.21l-217.43,365.16,217.43,365.25h434.85s217.43-365.25,217.43-365.25l-217.43-365.16h-434.85Z"/></svg>