<svg viewBox="0 0 2500 1080" xmlns="http://www.w3.org/2000/svg" xmlns:xlink="http://www.w3.org/1999/xlink"><linearGradient id="a" gradientUnits="userSpaceOnUse" x1="1398" x2="2731" y1="540" y2="540"><stop offset="0" stop-color="#1a1a1a"/><stop offset="1" stop-color="#1a1a1a" stop-opacity=".6"/></linearGradient><path d="m1398 0h1333v1080h-1333z" fill="url(#a)" opacity=".15"/><path d="m-269 0h1351v1080h-1351z" fill="#1a1a1a"/><path d="m1730.21 540.01 348.47-540.01h-1322.72l-.02 1080h1322.72z" fill="#1a1a1a" opacity=".7"/><path d="m612 0h960v1080h-960z"/><path d="m1575.27 540.01 348.46-540.01h-1322.71l-.02 1080h1322.72z" fill="#1a1a1a"/><g fill="none" stroke="#c8102e" stroke-miterlimit="10"><path d="m1512.69 538.79-130.4-218.96h216.97s130.44 219.12 130.44 219.12l-130.44 219.12h-216.97s130.4-219.29 130.4-219.29zm-218.38-365.21-217.43 365.16 217.43 365.25h434.85s217.43-365.25 217.43-365.25l-217.43-365.16z" opacity=".25"/><path d="m1622.69 538.79-130.4-218.96h216.97s130.44 219.12 130.44 219.12l-130.44 219.12h-216.97s130.4-219.29 130.4-219.29zm-218.38-365.21-217.43 365.16 217.43 365.25h434.85s217.43-365.25 217.43-365.25l-217.43-365.16z" opacity=".5"/><path d="m1730.69 538.79-130.4-218.96h216.97s130.44 219.12 130.44 219.12l-130.44 219.12h-216.97s130.4-219.29 130.4-219.29zm-218.38-365.21-217.43 365.16 217.43 365.25h434.85s217.43-365.25 217.43-365.25l-217.43-365.16z"/></g></svg>