<?xml version="1.0" encoding="UTF-8"?><svg xmlns="http://www.w3.org/2000/svg" xmlns:xlink="http://www.w3.org/1999/xlink" viewBox="0 0 3000 1080"><defs><style>.cls-1,.cls-2{opacity:.5;}.cls-1,.cls-3,.cls-4{fill:none;stroke:#c8102e;stroke-miterlimit:10;}.cls-5{opacity:.7;}.cls-5,.cls-6,.cls-2,.cls-7,.cls-8{stroke-width:0px;}.cls-5,.cls-2,.cls-8{fill:#1a1a1a;}.cls-6{fill:url(#linear-gradient);}.cls-4{opacity:.25;}</style><linearGradient id="linear-gradient" x1="1667" y1="540" x2="3000" y2="540" gradientUnits="userSpaceOnUse"><stop offset="0" stop-color="#4d4d4d"/><stop offset="1" stop-color="#1a1a1a"/></linearGradient></defs><g id="Layer_2"><rect class="cls-6" x="1667" width="1333" height="1080"/><rect class="cls-8" x="0" width="1351" height="1080"/><polygon class="cls-2" points="2154.25 540.01 2502.72 0 1180 0 1179.98 1080 2502.7 1080 2154.25 540.01"/><polygon class="cls-5" points="1999.21 540.01 2347.68 0 1024.96 0 1024.94 1080 2347.66 1080 1999.21 540.01"/><rect class="cls-7" x="881" width="960" height="1080"/><polygon class="cls-8" points="1844.27 540.01 2192.73 0 870.02 0 870 1080 2192.72 1080 1844.27 540.01"/></g><g id="Layer_1"><path class="cls-4" d="m1784.69,538.79l-130.4-218.96h216.97s130.44,219.12,130.44,219.12l-130.44,219.12h-216.97s130.4-219.29,130.4-219.29Zm-218.38-365.21l-217.43,365.16,217.43,365.25h434.85s217.43-365.25,217.43-365.25l-217.43-365.16h-434.85Z"/><path class="cls-1" d="m1894.69,538.79l-130.4-218.96h216.97s130.44,219.12,130.44,219.12l-130.44,219.12h-216.97s130.4-219.29,130.4-219.29Zm-218.38-365.21l-217.43,365.16,217.43,365.25h434.85s217.43-365.25,217.43-365.25l-217.43-365.16h-434.85Z"/><path class="cls-3" d="m2002.69,538.79l-130.4-218.96h216.97s130.44,219.12,130.44,219.12l-130.44,219.12h-216.97s130.4-219.29,130.4-219.29Zm-218.38-365.21l-217.43,365.16,217.43,365.25h434.85s217.43-365.25,217.43-365.25l-217.43-365.16h-434.85Z"/></g></svg>