<?xml version="1.0" encoding="UTF-8"?><svg xmlns="http://www.w3.org/2000/svg" xmlns:xlink="http://www.w3.org/1999/xlink" viewBox="0 0 3000 1080"><defs><style>.cls-1{opacity:.3;}.cls-1,.cls-2,.cls-3,.cls-4,.cls-5,.cls-6,.cls-7{fill:none;stroke:#c8102e;stroke-miterlimit:10;}.cls-8{fill:url(#linear-gradient);}.cls-8,.cls-9,.cls-10,.cls-11,.cls-12{stroke-width:0px;}.cls-8,.cls-7{opacity:.6;}.cls-2,.cls-10{opacity:.5;}.cls-9,.cls-4{opacity:.7;}.cls-9,.cls-10,.cls-12{fill:#1a1a1a;}.cls-3{opacity:.4;}.cls-5{opacity:.9;}.cls-6{opacity:.8;}</style><linearGradient id="linear-gradient" x1="1747" y1="540" x2="3000" y2="540" gradientUnits="userSpaceOnUse"><stop offset="0" stop-color="#1a1a1a"/><stop offset="1" stop-color="#1a1a1a" stop-opacity=".6"/></linearGradient></defs><g id="Layer_2"><rect class="cls-8" x="1747" width="1253" height="1080"/><rect class="cls-12" width="1351" height="1080"/><polygon class="cls-10" points="2143.25 540.01 2491.72 0 1169 0 1168.98 1080 2491.7 1080 2143.25 540.01"/><polygon class="cls-9" points="1988.21 540.01 2336.68 0 1013.96 0 1013.94 1080 2336.66 1080 1988.21 540.01"/><rect class="cls-11" x="859" width="960" height="1080"/><polygon class="cls-12" points="1833.27 540.01 2181.73 0 859.02 0 859 1080 2181.72 1080 1833.27 540.01"/></g><g id="Layer_1"><polyline class="cls-2" points="2568.76 1080 2219.87 539.99 2568.78 0"/><polyline class="cls-7" points="2491.4 1080 2142.51 539.99 2491.42 0"/><polyline class="cls-4" points="2414.03 1080 2065.14 539.99 2414.05 0"/><polyline class="cls-6" points="2336.66 1080 1987.77 539.99 2336.68 0"/><polyline class="cls-5" points="2259.29 1080 1910.4 539.99 2259.31 0"/><polyline class="cls-5" points="2181.92 1080 1833.03 539.99 2181.94 0"/><polyline class="cls-5" points="2104.55 1080 1755.66 539.99 2104.57 0"/><polyline class="cls-5" points="2027.18 1080 1678.29 539.99 2027.2 0"/><polyline class="cls-1" points="2723.51 1080 2374.61 539.99 2723.52 0"/><polyline class="cls-3" points="2646.13 1080 2297.24 539.99 2646.15 0"/><polyline class="cls-2" points="1019.92 0 1368.81 540.01 1019.9 1080"/><polyline class="cls-7" points="1097.29 0 1446.18 540.01 1097.27 1080"/><polyline class="cls-4" points="1174.66 0 1523.55 540.01 1174.64 1080"/><polyline class="cls-6" points="1252.03 0 1600.92 540.01 1252.01 1080"/><polyline class="cls-5" points="1329.4 0 1678.29 540.01 1329.38 1080"/><polyline class="cls-5" points="1406.77 0 1755.66 540.01 1406.75 1080"/><polyline class="cls-5" points="1484.14 0 1833.03 540.01 1484.12 1080"/><polyline class="cls-5" points="1561.51 0 1910.4 540.01 1561.49 1080"/><polyline class="cls-1" points="865.18 0 1214.07 540.01 865.16 1080"/><polyline class="cls-3" points="942.55 0 1291.44 540.01 942.53 1080"/></g></svg>