<svg viewBox="0 0 2500 1080" xmlns="http://www.w3.org/2000/svg"><g fill="none" stroke="#c8102e" stroke-miterlimit="10"><path d="m1512.69 538.79-130.4-218.96h216.97s130.44 219.12 130.44 219.12l-130.44 219.12h-216.97s130.4-219.29 130.4-219.29zm-218.38-365.21-217.43 365.16 217.43 365.25h434.85s217.43-365.25 217.43-365.25l-217.43-365.16z" opacity=".25"/><path d="m1622.69 538.79-130.4-218.96h216.97s130.44 219.12 130.44 219.12l-130.44 219.12h-216.97s130.4-219.29 130.4-219.29zm-218.38-365.21-217.43 365.16 217.43 365.25h434.85s217.43-365.25 217.43-365.25l-217.43-365.16z" opacity=".5"/><path d="m1730.69 538.79-130.4-218.96h216.97s130.44 219.12 130.44 219.12l-130.44 219.12h-216.97s130.4-219.29 130.4-219.29zm-218.38-365.21-217.43 365.16 217.43 365.25h434.85s217.43-365.25 217.43-365.25l-217.43-365.16z"/></g></svg>