<?xml version="1.0" encoding="UTF-8"?><svg id="Layer_1" xmlns="http://www.w3.org/2000/svg" viewBox="0 0 1920 1080"><defs><style>.cls-1{opacity:.3;}.cls-1,.cls-2,.cls-3,.cls-4,.cls-5,.cls-6,.cls-7{fill:none;stroke:#c8102e;stroke-miterlimit:10;}.cls-2{opacity:.5;}.cls-3{opacity:.4;}.cls-8{opacity:.25;}.cls-8,.cls-9{stroke-width:0px;}.cls-4{opacity:.7;}.cls-5{opacity:.9;}.cls-6{opacity:.8;}.cls-7{opacity:.6;}</style></defs><polygon class="cls-8" points="1129.21 540.01 1477.68 0 154.96 0 154.94 1080 1477.66 1080 1129.21 540.01"/><rect class="cls-9" width="960" height="1080"/><polygon class="cls-9" points="974.27 540.01 1322.73 0 .02 0 0 1080 1322.72 1080 974.27 540.01"/><polyline class="cls-2" points="393.03 0 741.92 540.01 393.01 1080"/><polyline class="cls-7" points="470.4 0 819.29 540.01 470.38 1080"/><polyline class="cls-4" points="547.77 0 896.66 540.01 547.75 1080"/><polyline class="cls-6" points="625.13 0 974.02 540.01 625.11 1080"/><polyline class="cls-5" points="702.5 0 1051.39 540.01 702.48 1080"/><polyline class="cls-5" points="779.87 0 1128.76 540.01 779.86 1080"/><polyline class="cls-5" points="857.24 0 1206.13 540.01 857.22 1080"/><polyline class="cls-5" points="934.61 0 1283.5 540.01 934.59 1080"/><polyline class="cls-1" points="238.29 0 587.18 540.01 238.27 1080"/><polyline class="cls-3" points="315.66 0 664.55 540.01 315.64 1080"/></svg>