<?xml version="1.0" encoding="UTF-8"?><svg xmlns="http://www.w3.org/2000/svg" xmlns:xlink="http://www.w3.org/1999/xlink" viewBox="0 0 3000 1080"><defs><style>.cls-1,.cls-2,.cls-3{fill:none;stroke:#c8102e;stroke-miterlimit:10;}.cls-1,.cls-4{opacity:.5;}.cls-5{opacity:.7;}.cls-5,.cls-4,.cls-6,.cls-7{stroke-width:0px;}.cls-5,.cls-7{fill:#1a1a1a;}.cls-3{opacity:.25;}.cls-4{fill:url(#linear-gradient);}</style><linearGradient id="linear-gradient" x1="1667" y1="540" x2="3000" y2="540" gradientUnits="userSpaceOnUse"><stop offset="0" stop-color="#1a1a1a"/><stop offset="1" stop-color="#1a1a1a" stop-opacity=".6"/></linearGradient></defs><g id="Layer_2"><rect class="cls-4" x="1667" width="1333" height="1080"/><rect class="cls-7" width="1351" height="1080"/><polygon class="cls-5" points="1999.21 540.01 2347.68 0 1024.96 0 1024.94 1080 2347.66 1080 1999.21 540.01"/><rect class="cls-6" x="881" width="960" height="1080"/><polygon class="cls-7" points="1844.27 540.01 2192.73 0 870.02 0 870 1080 2192.72 1080 1844.27 540.01"/></g><g id="Layer_1"><path class="cls-3" d="m2000,321.95l218.96-130.4v216.97s-219.12,130.44-219.12,130.44l-219.12-130.44v-216.97s219.29,130.4,219.29,130.4Zm365.21-218.38l-365.16-217.43-365.25,217.43v434.85s365.25,217.43,365.25,217.43l365.16-217.43V103.57Z"/><path class="cls-1" d="m2000,431.95l218.96-130.4v216.97s-219.12,130.44-219.12,130.44l-219.12-130.44v-216.97s219.29,130.4,219.29,130.4Zm365.21-218.38L2000.04-3.85l-365.25,217.43v434.85s365.25,217.43,365.25,217.43l365.16-217.43V213.57Z"/><path class="cls-2" d="m2000,539.95l218.96-130.4v216.97s-219.12,130.44-219.12,130.44l-219.12-130.44v-216.97s219.29,130.4,219.29,130.4Zm365.21-218.38l-365.16-217.43-365.25,217.43v434.85s365.25,217.43,365.25,217.43l365.16-217.43v-434.85Z"/><path class="cls-3" d="m2000,1497.95l218.96-130.4v216.97s-219.12,130.44-219.12,130.44l-219.12-130.44v-216.97s219.29,130.4,219.29,130.4Zm365.21-218.38l-365.16-217.43-365.25,217.43v434.85s365.25,217.43,365.25,217.43l365.16-217.43v-434.85Z"/></g></svg>