<?xml version="1.0" encoding="UTF-8"?><svg id="Layer_1" xmlns="http://www.w3.org/2000/svg" viewBox="0 0 1920 1080"><defs><style>.cls-1{opacity:.3;}.cls-1,.cls-2,.cls-3,.cls-4,.cls-5,.cls-6,.cls-7{fill:none;stroke:#c8102e;stroke-miterlimit:10;}.cls-2{opacity:.5;}.cls-3{opacity:.4;}.cls-4{opacity:.7;}.cls-5{opacity:.9;}.cls-6{opacity:.8;}.cls-7{opacity:.6;}</style></defs><polyline class="cls-2" points="1654.03 1080 1305.14 539.99 1654.05 0"/><polyline class="cls-7" points="1576.66 1080 1227.77 539.99 1576.68 0"/><polyline class="cls-4" points="1499.29 1080 1150.4 539.99 1499.31 0"/><polyline class="cls-6" points="1421.92 1080 1073.03 539.99 1421.94 0"/><polyline class="cls-5" points="1344.55 1080 995.66 539.99 1344.57 0"/><polyline class="cls-5" points="1267.18 1080 918.29 539.99 1267.2 0"/><polyline class="cls-5" points="1189.81 1080 840.92 539.99 1189.83 0"/><polyline class="cls-5" points="1112.44 1080 763.55 539.99 1112.46 0"/><polyline class="cls-1" points="1808.77 1080 1459.87 539.99 1808.78 0"/><polyline class="cls-3" points="1731.4 1080 1382.51 539.99 1731.42 0"/><polyline class="cls-2" points="259.92 0 608.81 540.01 259.9 1080"/><polyline class="cls-7" points="337.29 0 686.18 540.01 337.27 1080"/><polyline class="cls-4" points="414.66 0 763.55 540.01 414.64 1080"/><polyline class="cls-6" points="492.03 0 840.92 540.01 492.01 1080"/><polyline class="cls-5" points="569.4 0 918.29 540.01 569.38 1080"/><polyline class="cls-5" points="646.77 0 995.66 540.01 646.75 1080"/><polyline class="cls-5" points="724.14 0 1073.03 540.01 724.12 1080"/><polyline class="cls-5" points="801.51 0 1150.4 540.01 801.49 1080"/><polyline class="cls-1" points="105.18 0 454.07 540.01 105.16 1080"/><polyline class="cls-3" points="182.55 0 531.44 540.01 182.53 1080"/></svg>