<svg viewBox="0 0 2500 1080" xmlns="http://www.w3.org/2000/svg" xmlns:xlink="http://www.w3.org/1999/xlink"><linearGradient id="a" gradientUnits="userSpaceOnUse" x1="1398" x2="2731" y1="540" y2="540"><stop offset="0" stop-color="#4d4d4d"/><stop offset="1" stop-color="#1a1a1a"/></linearGradient><path d="m1398 0h1333v1080h-1333z" fill="url(#a)"/><g fill="#1a1a1a"><path d="m-269 0h1351v1080h-1351z"/><path d="m1885.25 540.01 348.47-540.01h-1322.72l-.02 1080h1322.72z" opacity=".5"/><path d="m1730.21 540.01 348.47-540.01h-1322.72l-.02 1080h1322.72z" opacity=".7"/></g><path d="m612 0h960v1080h-960z"/><path d="m1575.27 540.01 348.46-540.01h-1322.71l-.02 1080h1322.72z" fill="#1a1a1a"/><path d="m1730 321.95 218.96-130.4v216.97s-219.12 130.44-219.12 130.44l-219.12-130.44v-216.97s219.29 130.4 219.29 130.4zm365.21-218.38-365.16-217.43-365.25 217.43v434.85s365.25 217.43 365.25 217.43l365.16-217.43z" fill="none" opacity=".25" stroke="#c8102e" stroke-miterlimit="10"/><path d="m1730 431.95 218.96-130.4v216.97s-219.12 130.44-219.12 130.44l-219.12-130.44v-216.97s219.29 130.4 219.29 130.4zm365.21-218.38-365.17-217.42-365.25 217.43v434.85s365.25 217.43 365.25 217.43l365.16-217.43v-434.86z" fill="none" opacity=".5" stroke="#c8102e" stroke-miterlimit="10"/><path d="m1730 539.95 218.96-130.4v216.97s-219.12 130.44-219.12 130.44l-219.12-130.44v-216.97s219.29 130.4 219.29 130.4zm365.21-218.38-365.16-217.43-365.25 217.43v434.85s365.25 217.43 365.25 217.43l365.16-217.43z" fill="none" stroke="#c8102e" stroke-miterlimit="10"/></svg>