<svg viewBox="0 0 2500 1080" xmlns="http://www.w3.org/2000/svg"><g fill="none" stroke="#c8102e" stroke-miterlimit="10"><path d="m1731.74 539.11-204.3 121.67v-202.44s204.45-121.71 204.45-121.71l204.45 121.71v202.44s-204.61-121.67-204.61-121.67zm-340.75 203.76 340.72 202.87 340.79-202.87v-405.74s-340.79-202.87-340.79-202.87l-340.72 202.87z"/><path d="m1731.74 638.11-204.3 121.67v-202.44s204.45-121.71 204.45-121.71l204.45 121.71v202.44s-204.61-121.67-204.61-121.67zm-340.75 203.76 340.72 202.87 340.79-202.87v-405.74s-340.79-202.87-340.79-202.87l-340.72 202.87z" opacity=".5"/><path d="m1731.74 741.11-204.3 121.67v-202.44s204.45-121.71 204.45-121.71l204.45 121.71v202.44s-204.61-121.67-204.61-121.67zm-340.75 203.76 340.72 202.87 340.79-202.87v-405.74s-340.79-202.87-340.79-202.87l-340.72 202.87z" opacity=".25"/></g></svg>