<svg viewBox="0 0 3000 1080" xmlns="http://www.w3.org/2000/svg" xmlns:xlink="http://www.w3.org/1999/xlink"><linearGradient id="a" gradientUnits="userSpaceOnUse" x1="1667" x2="3000" y1="540" y2="540"><stop offset="0" stop-color="#1a1a1a"/><stop offset="1" stop-color="#1a1a1a" stop-opacity=".6"/></linearGradient><path d="m1667 0h1333v1080h-1333z" fill="url(#a)" opacity=".5"/><path d="m0 0h1351v1080h-1351z" fill="#1a1a1a"/><path d="m2154.25 540.01 348.47-540.01h-1322.72l-.02 1080h1322.72z" fill="#1a1a1a" opacity=".25"/><path d="m1999.21 540.01 348.47-540.01h-1322.72l-.02 1080h1322.72z" fill="#1a1a1a" opacity=".4"/><path d="m1845.21 540.01 348.47-540.01h-1322.72l-.02 1080h1322.72z" fill="#1a1a1a" opacity=".6"/><path d="m716 0h960v1080h-960z"/><path d="m1690.27 540.01 348.46-540.01h-1322.71l-.02 1080h1322.72z" fill="#1a1a1a"/><g fill="none" stroke="#c8102e" stroke-miterlimit="10"><path d="m2425.76 1080-348.89-540.01 348.91-539.99" opacity=".5"/><path d="m2348.4 1080-348.89-540.01 348.91-539.99" opacity=".6"/><path d="m2271.03 1080-348.89-540.01 348.91-539.99" opacity=".7"/><path d="m2193.66 1080-348.89-540.01 348.91-539.99" opacity=".8"/><path d="m2116.29 1080-348.89-540.01 348.91-539.99" opacity=".9"/><path d="m2038.92 1080-348.89-540.01 348.91-539.99" opacity=".9"/><path d="m1961.55 1080-348.89-540.01 348.91-539.99" opacity=".9"/><path d="m1884.18 1080-348.89-540.01 348.91-539.99" opacity=".9"/><path d="m2580.51 1080-348.9-540.01 348.91-539.99" opacity=".3"/><path d="m2503.13 1080-348.89-540.01 348.91-539.99" opacity=".4"/><path d="m876.92 0 348.89 540.01-348.91 539.99" opacity=".5"/><path d="m954.29 0 348.89 540.01-348.91 539.99" opacity=".6"/><path d="m1031.66 0 348.89 540.01-348.91 539.99" opacity=".7"/><path d="m1109.03 0 348.89 540.01-348.91 539.99" opacity=".8"/><path d="m1186.4 0 348.89 540.01-348.91 539.99" opacity=".9"/><path d="m1263.77 0 348.89 540.01-348.91 539.99" opacity=".9"/><path d="m1341.14 0 348.89 540.01-348.91 539.99" opacity=".9"/><path d="m1418.51 0 348.89 540.01-348.91 539.99" opacity=".9"/><path d="m722.18 0 348.89 540.01-348.91 539.99" opacity=".3"/><path d="m799.55 0 348.89 540.01-348.91 539.99" opacity=".4"/></g></svg>