<?xml version="1.0" encoding="UTF-8"?><svg id="Layer_1" xmlns="http://www.w3.org/2000/svg" viewBox="0 0 2500 1080"><defs><style>.cls-1{opacity:.3;}.cls-1,.cls-2,.cls-3,.cls-4,.cls-5,.cls-6,.cls-7{fill:none;stroke:#c8102e;stroke-miterlimit:10;}.cls-2{opacity:.5;}.cls-3{opacity:.4;}.cls-4{opacity:.7;}.cls-5{opacity:.9;}.cls-6{opacity:.8;}.cls-7{opacity:.6;}</style></defs><polyline class="cls-2" points="2156.76 1080 1807.87 539.99 2156.78 0"/><polyline class="cls-7" points="2079.4 1080 1730.51 539.99 2079.42 0"/><polyline class="cls-4" points="2002.03 1080 1653.14 539.99 2002.05 0"/><polyline class="cls-6" points="1924.66 1080 1575.77 539.99 1924.68 0"/><polyline class="cls-5" points="1847.29 1080 1498.4 539.99 1847.31 0"/><polyline class="cls-5" points="1769.92 1080 1421.03 539.99 1769.94 0"/><polyline class="cls-5" points="1692.55 1080 1343.66 539.99 1692.57 0"/><polyline class="cls-5" points="1615.18 1080 1266.29 539.99 1615.2 0"/><polyline class="cls-1" points="2311.51 1080 1962.61 539.99 2311.52 0"/><polyline class="cls-3" points="2234.13 1080 1885.24 539.99 2234.15 0"/><polyline class="cls-2" points="607.92 0 956.81 540.01 607.9 1080"/><polyline class="cls-7" points="685.29 0 1034.18 540.01 685.27 1080"/><polyline class="cls-4" points="762.66 0 1111.55 540.01 762.64 1080"/><polyline class="cls-6" points="840.03 0 1188.92 540.01 840.01 1080"/><polyline class="cls-5" points="917.4 0 1266.29 540.01 917.38 1080"/><polyline class="cls-5" points="994.77 0 1343.66 540.01 994.75 1080"/><polyline class="cls-5" points="1072.14 0 1421.03 540.01 1072.12 1080"/><polyline class="cls-5" points="1149.51 0 1498.4 540.01 1149.49 1080"/><polyline class="cls-1" points="453.18 0 802.07 540.01 453.16 1080"/><polyline class="cls-3" points="530.55 0 879.44 540.01 530.53 1080"/></svg>