<?xml version="1.0" encoding="UTF-8"?><svg id="Layer_1" xmlns="http://www.w3.org/2000/svg" viewBox="0 0 1920 1080"><defs><style>.cls-1{opacity:.3;}.cls-1,.cls-2,.cls-3,.cls-4,.cls-5,.cls-6,.cls-7{fill:none;stroke:#c8102e;stroke-miterlimit:10;}.cls-2{opacity:.5;}.cls-3{opacity:.4;}.cls-4{opacity:.7;}.cls-5{opacity:.9;}.cls-6{opacity:.8;}.cls-7{opacity:.6;}</style></defs><polyline class="cls-2" points="1555.03 1080 1206.14 539.99 1555.05 0"/><polyline class="cls-7" points="1477.66 1080 1128.77 539.99 1477.68 0"/><polyline class="cls-4" points="1400.29 1080 1051.4 539.99 1400.31 0"/><polyline class="cls-6" points="1322.92 1080 974.03 539.99 1322.94 0"/><polyline class="cls-5" points="1245.55 1080 896.66 539.99 1245.57 0"/><polyline class="cls-5" points="1168.18 1080 819.29 539.99 1168.2 0"/><polyline class="cls-5" points="1090.81 1080 741.92 539.99 1090.83 0"/><polyline class="cls-5" points="1013.44 1080 664.55 539.99 1013.46 0"/><polyline class="cls-1" points="1709.77 1080 1360.87 539.99 1709.78 0"/><polyline class="cls-3" points="1632.4 1080 1283.51 539.99 1632.42 0"/><polyline class="cls-2" points="160.92 0 509.81 540.01 160.9 1080"/><polyline class="cls-7" points="238.29 0 587.18 540.01 238.27 1080"/><polyline class="cls-4" points="315.66 0 664.55 540.01 315.64 1080"/><polyline class="cls-6" points="393.03 0 741.92 540.01 393.01 1080"/><polyline class="cls-5" points="470.4 0 819.29 540.01 470.38 1080"/><polyline class="cls-5" points="547.77 0 896.66 540.01 547.75 1080"/><polyline class="cls-5" points="625.14 0 974.03 540.01 625.12 1080"/><polyline class="cls-5" points="702.51 0 1051.4 540.01 702.49 1080"/><polyline class="cls-1" points="6.18 0 355.07 540.01 6.16 1080"/><polyline class="cls-3" points="83.55 0 432.44 540.01 83.53 1080"/></svg>