<svg viewBox="0 0 2500 1080" xmlns="http://www.w3.org/2000/svg"><g fill="none" stroke="#c8102e" stroke-miterlimit="10"><path d="m2156.76 1080-348.89-540.01 348.91-539.99" opacity=".5"/><path d="m2079.4 1080-348.89-540.01 348.91-539.99" opacity=".6"/><path d="m2002.03 1080-348.89-540.01 348.91-539.99" opacity=".7"/><path d="m1924.66 1080-348.89-540.01 348.91-539.99" opacity=".8"/><path d="m1847.29 1080-348.89-540.01 348.91-539.99" opacity=".9"/><path d="m1769.92 1080-348.89-540.01 348.91-539.99" opacity=".9"/><path d="m1692.55 1080-348.89-540.01 348.91-539.99" opacity=".9"/><path d="m1615.18 1080-348.89-540.01 348.91-539.99" opacity=".9"/><path d="m2311.51 1080-348.9-540.01 348.91-539.99" opacity=".3"/><path d="m2234.13 1080-348.89-540.01 348.91-539.99" opacity=".4"/><path d="m607.92 0 348.89 540.01-348.91 539.99" opacity=".5"/><path d="m685.29 0 348.89 540.01-348.91 539.99" opacity=".6"/><path d="m762.66 0 348.89 540.01-348.91 539.99" opacity=".7"/><path d="m840.03 0 348.89 540.01-348.91 539.99" opacity=".8"/><path d="m917.4 0 348.89 540.01-348.91 539.99" opacity=".9"/><path d="m994.77 0 348.89 540.01-348.91 539.99" opacity=".9"/><path d="m1072.14 0 348.89 540.01-348.91 539.99" opacity=".9"/><path d="m1149.51 0 348.89 540.01-348.91 539.99" opacity=".9"/><path d="m453.18 0 348.89 540.01-348.91 539.99" opacity=".3"/><path d="m530.55 0 348.89 540.01-348.91 539.99" opacity=".4"/></g></svg>