<?xml version="1.0" encoding="UTF-8"?><svg xmlns="http://www.w3.org/2000/svg" xmlns:xlink="http://www.w3.org/1999/xlink" viewBox="0 0 3000 1080"><defs><style>.cls-1{opacity:.3;}.cls-1,.cls-2,.cls-3,.cls-4,.cls-5,.cls-6,.cls-7{fill:none;stroke:#c8102e;stroke-miterlimit:10;}.cls-8{fill:url(#linear-gradient);}.cls-8,.cls-9,.cls-10,.cls-11{stroke-width:0px;}.cls-8,.cls-7{opacity:.6;}.cls-2{opacity:.5;}.cls-9{opacity:.2;}.cls-9,.cls-11{fill:#1a1a1a;}.cls-3{opacity:.4;}.cls-4{opacity:.7;}.cls-5{opacity:.9;}.cls-6{opacity:.8;}</style><linearGradient id="linear-gradient" x1="1747" y1="540" x2="3000" y2="540" gradientUnits="userSpaceOnUse"><stop offset="0" stop-color="#1a1a1a"/><stop offset="1" stop-color="#1a1a1a" stop-opacity=".6"/></linearGradient></defs><g id="Layer_2"><rect class="cls-8" x="1747" width="1253" height="1080"/><rect class="cls-11" width="1351" height="1080"/><polygon class="cls-9" points="2143.25 540.01 2491.72 0 1169 0 1168.98 1080 2491.7 1080 2143.25 540.01"/><rect class="cls-10" x="859" width="960" height="1080"/><polygon class="cls-11" points="1833.27 540.01 2181.73 0 859.02 0 859 1080 2181.72 1080 1833.27 540.01"/></g><g id="Layer_1"><polyline class="cls-4" points="3343.03 1080 2994.14 539.99 3343.05 0"/><polyline class="cls-6" points="3265.66 1080 2916.77 539.99 3265.68 0"/><polyline class="cls-5" points="3188.29 1080 2839.4 539.99 3188.31 0"/><polyline class="cls-5" points="3110.92 1080 2762.03 539.99 3110.94 0"/><polyline class="cls-5" points="3033.55 1080 2684.66 539.99 3033.57 0"/><polyline class="cls-5" points="2956.18 1080 2607.29 539.99 2956.2 0"/><polyline class="cls-2" points="1948.92 0 2297.81 540.01 1948.9 1080"/><polyline class="cls-7" points="2026.29 0 2375.18 540.01 2026.27 1080"/><polyline class="cls-4" points="2103.66 0 2452.55 540.01 2103.64 1080"/><polyline class="cls-6" points="2181.03 0 2529.92 540.01 2181.01 1080"/><polyline class="cls-5" points="2258.4 0 2607.29 540.01 2258.38 1080"/><polyline class="cls-5" points="2335.77 0 2684.66 540.01 2335.75 1080"/><polyline class="cls-5" points="2413.14 0 2762.03 540.01 2413.12 1080"/><polyline class="cls-5" points="2490.51 0 2839.4 540.01 2490.49 1080"/><polyline class="cls-1" points="1794.18 0 2143.07 540.01 1794.16 1080"/><polyline class="cls-3" points="1871.55 0 2220.44 540.01 1871.53 1080"/></g></svg>