<svg viewBox="0 0 3000 1080" xmlns="http://www.w3.org/2000/svg" xmlns:xlink="http://www.w3.org/1999/xlink"><linearGradient id="a" gradientUnits="userSpaceOnUse" x1="1667" x2="3000" y1="540" y2="540"><stop offset="0" stop-color="#1a1a1a"/><stop offset="1" stop-color="#1a1a1a" stop-opacity=".6"/></linearGradient><path d="m1667 0h1333v1080h-1333z" fill="url(#a)" opacity=".5"/><path d="m0 0h1351v1080h-1351z" fill="#1a1a1a"/><path d="m1999.21 540.01 348.47-540.01h-1322.72l-.02 1080h1322.72z" fill="#1a1a1a" opacity=".7"/><path d="m881 0h960v1080h-960z"/><path d="m1844.27 540.01 348.46-540.01h-1322.71l-.02 1080h1322.72z" fill="#1a1a1a"/><g fill="none" stroke="#c8102e" stroke-miterlimit="10"><path d="m2000.74 539.11-204.3 121.67v-202.44s204.45-121.71 204.45-121.71l204.45 121.71v202.44s-204.61-121.67-204.61-121.67zm-340.75 203.76 340.72 202.87 340.79-202.87v-405.74s-340.79-202.87-340.79-202.87l-340.72 202.87z"/><path d="m2000.74 638.11-204.3 121.67v-202.44s204.45-121.71 204.45-121.71l204.45 121.71v202.44s-204.61-121.67-204.61-121.67zm-340.75 203.76 340.72 202.87 340.79-202.87v-405.74s-340.79-202.87-340.79-202.87l-340.72 202.87z" opacity=".5"/><path d="m2000.74 741.11-204.3 121.67v-202.44s204.45-121.71 204.45-121.71l204.45 121.71v202.44s-204.61-121.67-204.61-121.67zm-340.75 203.76 340.72 202.87 340.79-202.87v-405.74s-340.79-202.87-340.79-202.87l-340.72 202.87z" opacity=".25"/></g></svg>