<?xml version="1.0" encoding="UTF-8"?><svg xmlns="http://www.w3.org/2000/svg" xmlns:xlink="http://www.w3.org/1999/xlink" viewBox="0 0 2500 1080"><defs><style>.cls-1{opacity:.3;}.cls-1,.cls-2,.cls-3,.cls-4,.cls-5,.cls-6,.cls-7{fill:none;stroke:#c8102e;stroke-miterlimit:10;}.cls-2{opacity:.5;}.cls-3,.cls-8{opacity:.4;}.cls-8,.cls-9,.cls-10,.cls-11,.cls-12,.cls-13{stroke-width:0px;}.cls-8,.cls-9,.cls-12,.cls-13{fill:#1a1a1a;}.cls-9{opacity:.25;}.cls-4{opacity:.7;}.cls-5{opacity:.9;}.cls-6{opacity:.8;}.cls-7,.cls-12{opacity:.6;}.cls-10{fill:url(#linear-gradient);opacity:.15;}</style><linearGradient id="linear-gradient" x1="1398" y1="540" x2="2731" y2="540" gradientUnits="userSpaceOnUse"><stop offset="0" stop-color="#1a1a1a"/><stop offset="1" stop-color="#1a1a1a" stop-opacity=".6"/></linearGradient></defs><g id="Layer_2"><rect class="cls-10" x="1398" width="1333" height="1080"/><rect class="cls-13" x="-269" width="1351" height="1080"/><polygon class="cls-9" points="1885.25 540.01 2233.72 0 911 0 910.98 1080 2233.7 1080 1885.25 540.01"/><polygon class="cls-8" points="1730.21 540.01 2078.68 0 755.96 0 755.94 1080 2078.66 1080 1730.21 540.01"/><rect class="cls-11" x="447" width="960" height="1080"/><polygon class="cls-13" points="1421.27 540.01 1769.73 0 447.02 0 447 1080 1769.72 1080 1421.27 540.01"/><polygon class="cls-12" points="1576.21 540.01 1924.68 0 601.96 0 601.94 1080 1924.66 1080 1576.21 540.01"/></g><g id="Layer_1"><polyline class="cls-2" points="2156.76 1080 1807.87 539.99 2156.78 0"/><polyline class="cls-7" points="2079.4 1080 1730.51 539.99 2079.42 0"/><polyline class="cls-4" points="2002.03 1080 1653.14 539.99 2002.05 0"/><polyline class="cls-6" points="1924.66 1080 1575.77 539.99 1924.68 0"/><polyline class="cls-5" points="1847.29 1080 1498.4 539.99 1847.31 0"/><polyline class="cls-5" points="1769.92 1080 1421.03 539.99 1769.94 0"/><polyline class="cls-5" points="1692.55 1080 1343.66 539.99 1692.57 0"/><polyline class="cls-5" points="1615.18 1080 1266.29 539.99 1615.2 0"/><polyline class="cls-1" points="2311.51 1080 1962.61 539.99 2311.52 0"/><polyline class="cls-3" points="2234.13 1080 1885.24 539.99 2234.15 0"/><polyline class="cls-2" points="607.92 0 956.81 540.01 607.9 1080"/><polyline class="cls-7" points="685.29 0 1034.18 540.01 685.27 1080"/><polyline class="cls-4" points="762.66 0 1111.55 540.01 762.64 1080"/><polyline class="cls-6" points="840.03 0 1188.92 540.01 840.01 1080"/><polyline class="cls-5" points="917.4 0 1266.29 540.01 917.38 1080"/><polyline class="cls-5" points="994.77 0 1343.66 540.01 994.75 1080"/><polyline class="cls-5" points="1072.14 0 1421.03 540.01 1072.12 1080"/><polyline class="cls-5" points="1149.51 0 1498.4 540.01 1149.49 1080"/><polyline class="cls-1" points="453.18 0 802.07 540.01 453.16 1080"/><polyline class="cls-3" points="530.55 0 879.44 540.01 530.53 1080"/></g></svg>