<?xml version="1.0" encoding="UTF-8"?><svg xmlns="http://www.w3.org/2000/svg" xmlns:xlink="http://www.w3.org/1999/xlink" viewBox="0 0 3000 1080"><defs><style>.cls-1{fill:url(#linear-gradient);opacity:.6;}.cls-1,.cls-2,.cls-3,.cls-4,.cls-5{stroke-width:0px;}.cls-6,.cls-3,.cls-7{opacity:.5;}.cls-6,.cls-8,.cls-9{fill:none;stroke:#c8102e;stroke-miterlimit:10;}.cls-2{opacity:.7;}.cls-2,.cls-3,.cls-5{fill:#1a1a1a;}.cls-9,.cls-10{opacity:.25;}</style><linearGradient id="linear-gradient" x1="1667" y1="540" x2="3000" y2="540" gradientUnits="userSpaceOnUse"><stop offset="0" stop-color="#1a1a1a"/><stop offset="1" stop-color="#1a1a1a" stop-opacity=".6"/></linearGradient></defs><g id="Layer_2"><rect class="cls-1" x="1667" width="1333" height="1080"/><rect class="cls-5" width="1351" height="1080"/><polygon class="cls-3" points="2154.25 540.01 2502.72 0 1180 0 1179.98 1080 2502.7 1080 2154.25 540.01"/><polygon class="cls-2" points="1999.21 540.01 2347.68 0 1024.96 0 1024.94 1080 2347.66 1080 1999.21 540.01"/><rect class="cls-4" x="881" width="960" height="1080"/><polygon class="cls-5" points="1844.27 540.01 2192.73 0 870.02 0 870 1080 2192.72 1080 1844.27 540.01"/></g><g id="Layer_1"><path class="cls-8" d="m1749.74,506.35l-149.54,89.06v-148.18s149.65-89.08,149.65-89.08l149.65,89.08v148.18s-149.77-89.06-149.77-89.06Zm-249.42,149.15l249.39,148.49,249.45-148.49v-296.99s-249.45-148.49-249.45-148.49l-249.39,148.49v296.99Z"/><path class="cls-6" d="m1749.74,556.35l-149.54,89.06v-148.18s149.65-89.08,149.65-89.08l149.65,89.08v148.18s-149.77-89.06-149.77-89.06Zm-249.42,149.15l249.39,148.49,249.45-148.49v-296.99s-249.45-148.49-249.45-148.49l-249.39,148.49v296.99Z"/><path class="cls-9" d="m1749.74,606.35l-149.54,89.06v-148.18s149.65-89.08,149.65-89.08l149.65,89.08v148.18s-149.77-89.06-149.77-89.06Zm-249.42,149.15l249.39,148.49,249.45-148.49v-296.99s-249.45-148.49-249.45-148.49l-249.39,148.49v296.99Z"/><g class="cls-10"><path class="cls-8" d="m2248.58,506.35l-149.54,89.06v-148.18s149.65-89.08,149.65-89.08l149.65,89.08v148.18s-149.77-89.06-149.77-89.06Zm-249.42,149.15l249.39,148.49,249.45-148.49v-296.99s-249.45-148.49-249.45-148.49l-249.39,148.49v296.99Z"/><path class="cls-6" d="m2248.58,556.35l-149.54,89.06v-148.18s149.65-89.08,149.65-89.08l149.65,89.08v148.18s-149.77-89.06-149.77-89.06Zm-249.42,149.15l249.39,148.49,249.45-148.49v-296.99s-249.45-148.49-249.45-148.49l-249.39,148.49v296.99Z"/><path class="cls-9" d="m2248.58,606.35l-149.54,89.06v-148.18s149.65-89.08,149.65-89.08l149.65,89.08v148.18s-149.77-89.06-149.77-89.06Zm-249.42,149.15l249.39,148.49,249.45-148.49v-296.99s-249.45-148.49-249.45-148.49l-249.39,148.49v296.99Z"/></g><g class="cls-7"><path class="cls-8" d="m1250.89,506.35l-149.54,89.06v-148.18s149.65-89.08,149.65-89.08l149.65,89.08v148.18s-149.77-89.06-149.77-89.06Zm-249.42,149.15l249.39,148.49,249.45-148.49v-296.99s-249.45-148.49-249.45-148.49l-249.39,148.49v296.99Z"/><path class="cls-6" d="m1250.89,556.35l-149.54,89.06v-148.18s149.65-89.08,149.65-89.08l149.65,89.08v148.18s-149.77-89.06-149.77-89.06Zm-249.42,149.15l249.39,148.49,249.45-148.49v-296.99s-249.45-148.49-249.45-148.49l-249.39,148.49v296.99Z"/><path class="cls-9" d="m1250.89,606.35l-149.54,89.06v-148.18s149.65-89.08,149.65-89.08l149.65,89.08v148.18s-149.77-89.06-149.77-89.06Zm-249.42,149.15l249.39,148.49,249.45-148.49v-296.99s-249.45-148.49-249.45-148.49l-249.39,148.49v296.99Z"/></g></g></svg>