<svg viewBox="0 0 2500 1080" xmlns="http://www.w3.org/2000/svg" xmlns:xlink="http://www.w3.org/1999/xlink"><linearGradient id="a" gradientUnits="userSpaceOnUse" x1="1398" x2="2731" y1="540" y2="540"><stop offset="0" stop-color="#1a1a1a"/><stop offset="1" stop-color="#1a1a1a" stop-opacity=".6"/></linearGradient><path d="m1398 0h1333v1080h-1333z" fill="url(#a)" opacity=".15"/><path d="m-269 0h1351v1080h-1351z" fill="#1a1a1a"/><path d="m1730.21 540.01 348.47-540.01h-1322.72l-.02 1080h1322.72z" fill="#1a1a1a" opacity=".7"/><path d="m612 0h960v1080h-960z"/><path d="m1575.27 540.01 348.46-540.01h-1322.71l-.02 1080h1322.72z" fill="#1a1a1a"/><g fill="none" stroke="#c8102e" stroke-miterlimit="10"><path d="m2466.76 1080-348.89-540.01 348.91-539.99" opacity=".5"/><path d="m2389.4 1080-348.89-540.01 348.91-539.99" opacity=".6"/><path d="m2312.03 1080-348.89-540.01 348.91-539.99" opacity=".7"/><path d="m2234.66 1080-348.89-540.01 348.91-539.99" opacity=".8"/><path d="m2157.29 1080-348.89-540.01 348.91-539.99" opacity=".9"/><path d="m2079.92 1080-348.89-540.01 348.91-539.99" opacity=".9"/><path d="m2002.55 1080-348.89-540.01 348.91-539.99" opacity=".9"/><path d="m1925.18 1080-348.89-540.01 348.91-539.99" opacity=".9"/><path d="m2621.51 1080-348.9-540.01 348.91-539.99" opacity=".3"/><path d="m2544.13 1080-348.89-540.01 348.91-539.99" opacity=".4"/><path d="m917.92 0 348.89 540.01-348.91 539.99" opacity=".5"/><path d="m995.29 0 348.89 540.01-348.91 539.99" opacity=".6"/><path d="m1072.66 0 348.89 540.01-348.91 539.99" opacity=".7"/><path d="m1150.03 0 348.89 540.01-348.91 539.99" opacity=".8"/><path d="m1227.4 0 348.89 540.01-348.91 539.99" opacity=".9"/><path d="m1304.77 0 348.89 540.01-348.91 539.99" opacity=".9"/><path d="m1382.14 0 348.89 540.01-348.91 539.99" opacity=".9"/><path d="m1459.51 0 348.89 540.01-348.91 539.99" opacity=".9"/><path d="m763.18 0 348.89 540.01-348.91 539.99" opacity=".3"/><path d="m840.55 0 348.89 540.01-348.91 539.99" opacity=".4"/></g></svg>