<?xml version="1.0" encoding="UTF-8"?><svg id="Layer_2" xmlns="http://www.w3.org/2000/svg" viewBox="0 0 419.11 432.54"><defs><style>.cls-1{opacity:.3;}.cls-1,.cls-2,.cls-3,.cls-4,.cls-5,.cls-6,.cls-7{fill:none;stroke:#c8102e;stroke-miterlimit:10;}.cls-2{opacity:.5;}.cls-3{opacity:.4;}.cls-4{opacity:.7;}.cls-5{opacity:.9;}.cls-6{opacity:.8;}.cls-7{opacity:.6;}</style></defs><g id="Layer_1-2"><polyline class="cls-2" points="356.79 .27 217.23 216.27 356.79 432.27"/><polyline class="cls-7" points="325.84 .27 186.28 216.27 325.85 432.27"/><polyline class="cls-4" points="294.89 .27 155.33 216.27 294.9 432.27"/><polyline class="cls-6" points="263.94 .27 124.39 216.27 263.95 432.27"/><polyline class="cls-5" points="233 .27 93.44 216.27 233 432.27"/><polyline class="cls-5" points="202.05 .27 62.49 216.27 202.05 432.27"/><polyline class="cls-5" points="171.1 .27 31.54 216.27 171.11 432.27"/><polyline class="cls-5" points="140.15 .27 .6 216.27 140.16 432.27"/><polyline class="cls-1" points="418.68 .27 279.13 216.27 418.69 432.27"/><polyline class="cls-3" points="387.73 .27 248.18 216.27 387.74 432.27"/></g></svg>