<svg viewBox="0 0 2500 1080" xmlns="http://www.w3.org/2000/svg"><g fill="none" stroke="#c8102e" stroke-miterlimit="10"><path d="m1730 321.95 218.96-130.4v216.97s-219.12 130.44-219.12 130.44l-219.12-130.44v-216.97s219.29 130.4 219.29 130.4zm365.21-218.38-365.16-217.43-365.25 217.43v434.85s365.25 217.43 365.25 217.43l365.16-217.43z" opacity=".25"/><path d="m1730 431.95 218.96-130.4v216.97s-219.12 130.44-219.12 130.44l-219.12-130.44v-216.97s219.29 130.4 219.29 130.4zm365.21-218.38-365.17-217.42-365.25 217.43v434.85s365.25 217.43 365.25 217.43l365.16-217.43v-434.86z" opacity=".5"/><path d="m1730 539.95 218.96-130.4v216.97s-219.12 130.44-219.12 130.44l-219.12-130.44v-216.97s219.29 130.4 219.29 130.4zm365.21-218.38-365.16-217.43-365.25 217.43v434.85s365.25 217.43 365.25 217.43l365.16-217.43z"/></g></svg>