<?xml version="1.0" encoding="UTF-8"?><svg id="Layer_1" xmlns="http://www.w3.org/2000/svg" viewBox="0 0 250 180"><defs><style>.cls-1{fill:none;stroke:#c8102e;stroke-miterlimit:10;stroke-width:.85px;}.cls-2{fill:#c8102e;stroke-width:0px;}</style></defs><path class="cls-2" d="m93.68,30.3l27.77,47.33-27.77,47.33h-37.11l25.76-43.95,2-3.42-2.01-3.42-25.75-43.87h37.1m3.87-6.76h-52.78l31.72,54.05-31.72,54.13h52.78l31.73-54.09-31.73-54.09h0Z"/><path class="cls-2" d="m196.08,30.54l-25.76,43.95-2,3.42,2.01,3.42,25.75,43.87h-37.1l-27.77-47.33,27.77-47.33h37.11m11.8-6.76h-52.78l-31.73,54.09,31.73,54.09h52.78l-31.72-54.05,31.72-54.13h0Z"/><path class="cls-2" d="m108.31,154.26c-.51,3.65-3.44,4.67-8.5,4.67s-8.6-1.24-8.6-5.91c0-4.36,2.99-5.91,8.6-5.91,5.03,0,7.95,1.26,8.49,4.67h-4.55c-.45-1.46-1.8-1.87-3.94-1.87-2.62,0-4.12.62-4.12,3.11s1.49,3.11,4.12,3.11c2.1,0,3.48-.41,3.94-1.87h4.56Z"/><path class="cls-2" d="m117.86,158.93c-5.24,0-8.6-1.24-8.6-5.91,0-4.36,2.99-5.91,8.6-5.91s8.58,1.56,8.58,5.91c0,4.67-2.99,5.91-8.58,5.91Zm0-9.03c-2.62,0-4.12.62-4.12,3.11s1.49,3.11,4.12,3.11,4.1-.62,4.1-3.11-1.45-3.11-4.1-3.11Z"/><path class="cls-2" d="m136.97,155.82h-4.95v2.8h-4.11v-11.2h10.27c2.78,0,5.04,1.89,5.04,4.2,0,1.41-.84,2.66-2.12,3.42l2.27,3.58h-4.63l-1.77-2.8Zm-4.95-2.8h5.42c.93,0,1.68-.63,1.68-1.4s-.75-1.4-1.68-1.4h-5.42v2.8Z"/><path class="cls-2" d="m158.58,155.82v2.8h-13.82v-11.2h13.82v2.8h-9.71v1.4h8.96v2.8h-8.96v1.4h9.71Z"/><polyline class="cls-1" points="83.56 27.06 113.22 77.63 83.39 128.49"/></svg>