<svg viewBox="0 0 250 180" xmlns="http://www.w3.org/2000/svg"><g fill="#c8102e"><path d="m88.49 37.06 23.8 40.57-23.8 40.57h-21.44l19.79-33.77 4.01-6.84-4.01-6.84-19.77-33.68h21.42m7.74-13.52h-52.78l31.72 54.05-31.72 54.13h52.78l31.73-54.09-31.73-54.09z"/><path d="m181.28 37.3-19.79 33.77-4.01 6.84 4.01 6.84 19.77 33.68h-21.42l-23.8-40.57 23.8-40.57h21.44m23.6-13.52h-52.78l-31.73 54.09 31.73 54.09h52.78l-31.72-54.05z"/><path d="m91.86 158.62v-11.2h13.45v2.8h-9.34v1.4h8.59v2.8h-8.59v4.2z"/><path d="m120.09 155.82v2.8h-13.45v-11.2h4.11v8.4z"/><path d="m135.05 155.82v2.8h-13.82v-11.2h13.82v2.8h-9.71v1.4h8.96v2.8h-8.96v1.4z"/><path d="m147.03 153.02 5.98 5.6h-5.23l-3.36-3.15-3.36 3.15h-5.23l5.98-5.6-5.98-5.6h5.23l3.36 3.15 3.36-3.15h5.23z"/><path d="m154.03 158.62v-11.2h4.11v11.2z"/></g><path d="m91.09 28.69 28.71 48.94-28.5 48.58" fill="none" stroke="#fff" stroke-miterlimit="10" stroke-width=".85"/></svg>