<?xml version="1.0" encoding="UTF-8"?><svg id="Layer_2" xmlns="http://www.w3.org/2000/svg" viewBox="0 0 744.18 432.54"><defs><style>.cls-1{opacity:.3;}.cls-1,.cls-2,.cls-3,.cls-4,.cls-5,.cls-6,.cls-7{fill:none;stroke:#c8102e;stroke-miterlimit:10;}.cls-2{opacity:.5;}.cls-3{opacity:.4;}.cls-4{opacity:.7;}.cls-5{opacity:.9;}.cls-6{opacity:.8;}.cls-7{opacity:.6;}</style></defs><g id="Layer_1-2"><polyline class="cls-2" points="62.32 .27 201.88 216.27 62.32 432.27"/><polyline class="cls-7" points="93.27 .27 232.83 216.27 93.26 432.27"/><polyline class="cls-4" points="124.22 .27 263.77 216.27 124.21 432.27"/><polyline class="cls-6" points="155.17 .27 294.72 216.27 155.16 432.27"/><polyline class="cls-5" points="186.11 .27 325.67 216.27 186.11 432.27"/><polyline class="cls-5" points="217.06 .27 356.62 216.27 217.05 432.27"/><polyline class="cls-5" points="248.01 .27 387.57 216.27 248 432.27"/><polyline class="cls-5" points="278.96 .27 418.51 216.27 278.95 432.27"/><polyline class="cls-1" points=".43 .27 139.98 216.27 .42 432.27"/><polyline class="cls-3" points="31.38 .27 170.93 216.27 31.37 432.27"/><polyline class="cls-2" points="681.86 .27 542.3 216.27 681.87 432.27"/><polyline class="cls-7" points="650.91 .27 511.36 216.27 650.92 432.27"/><polyline class="cls-4" points="619.97 .27 480.41 216.27 619.97 432.27"/><polyline class="cls-6" points="589.02 .27 449.46 216.27 589.03 432.27"/><polyline class="cls-5" points="558.07 .27 418.51 216.27 558.08 432.27"/><polyline class="cls-5" points="527.12 .27 387.57 216.27 527.13 432.27"/><polyline class="cls-5" points="496.17 .27 356.62 216.27 496.18 432.27"/><polyline class="cls-5" points="465.23 .27 325.67 216.27 465.23 432.27"/><polyline class="cls-1" points="743.76 .27 604.2 216.27 743.76 432.27"/><polyline class="cls-3" points="712.81 .27 573.25 216.27 712.82 432.27"/></g></svg>