<svg viewBox="0 0 744.18 432.54" xmlns="http://www.w3.org/2000/svg"><g fill="none" stroke="#fff" stroke-miterlimit="10"><path d="m62.32.27 139.56 216-139.56 216" opacity=".5"/><path d="m93.27.27 139.56 216-139.57 216" opacity=".6"/><path d="m124.22.27 139.55 216-139.56 216" opacity=".7"/><path d="m155.17.27 139.55 216-139.56 216" opacity=".8"/><path d="m186.11.27 139.56 216-139.56 216" opacity=".9"/><path d="m217.06.27 139.56 216-139.57 216" opacity=".9"/><path d="m248.01.27 139.56 216-139.57 216" opacity=".9"/><path d="m278.96.27 139.55 216-139.56 216" opacity=".9"/><path d="m.43.27 139.55 216-139.56 216" opacity=".3"/><path d="m31.38.27 139.55 216-139.56 216" opacity=".4"/><path d="m681.86.27-139.56 216 139.57 216" opacity=".5"/><path d="m650.91.27-139.55 216 139.56 216" opacity=".6"/><path d="m619.97.27-139.56 216 139.56 216" opacity=".7"/><path d="m589.02.27-139.56 216 139.57 216" opacity=".8"/><path d="m558.07.27-139.56 216 139.57 216" opacity=".9"/><path d="m527.12.27-139.55 216 139.56 216" opacity=".9"/><path d="m496.17.27-139.55 216 139.56 216" opacity=".9"/><path d="m465.23.27-139.56 216 139.56 216" opacity=".9"/><path d="m743.76.27-139.56 216 139.56 216" opacity=".3"/><path d="m712.81.27-139.56 216 139.57 216" opacity=".4"/></g></svg>