<svg viewBox="0 0 250 180" xmlns="http://www.w3.org/2000/svg"><g fill="#c8102e"><path d="m73.5 77.59-31.72-54.05h52.78l31.73 54.09-31.73 54.09h-52.78z"/><path d="m173.17 77.91 31.73 54.05h-52.79l-31.73-54.09 31.73-54.09h52.79z"/><path d="m84.63 151.62c0 2.32-2.26 4.2-5.04 4.2h-5.04v2.8h-4.11v-11.2h9.15c2.78 0 5.04 1.89 5.04 4.2zm-4.11 0c0-.77-.75-1.4-1.68-1.4h-4.3v2.8h4.3c.93 0 1.68-.63 1.68-1.4z"/><path d="m94.98 155.82h-4.95v2.8h-4.11v-11.2h10.27c2.78 0 5.04 1.89 5.04 4.2 0 1.41-.84 2.66-2.12 3.42l2.27 3.58h-4.63zm-4.95-2.8h5.42c.93 0 1.68-.63 1.68-1.4s-.75-1.4-1.68-1.4h-5.42z"/><path d="m102.77 158.62v-11.2h4.11v11.2z"/><path d="m116.94 158.93c-5.24 0-8.6-1.24-8.6-5.91 0-4.36 2.99-5.91 8.6-5.91s8.58 1.56 8.58 5.91c0 4.67-2.99 5.91-8.58 5.91zm0-9.03c-2.62 0-4.12.62-4.12 3.11s1.49 3.11 4.12 3.11 4.1-.62 4.1-3.11-1.45-3.11-4.1-3.11z"/><path d="m136.05 155.82h-4.95v2.8h-4.11v-11.2h10.27c2.78 0 5.04 1.89 5.04 4.2 0 1.41-.84 2.66-2.12 3.42l2.27 3.58h-4.63zm-4.95-2.8h5.42c.93 0 1.68-.63 1.68-1.4s-.75-1.4-1.68-1.4h-5.42z"/><path d="m143.84 158.62v-11.2h4.11v11.2z"/><path d="m164.03 150.22h-5.41v8.4h-4.11v-8.4h-5.42v-2.8h14.94z"/><path d="m174.37 154.53v4.09h-4.11v-4.09l-6.16-7.11h4.86l3.36 3.88 3.36-3.88h4.86l-6.16 7.11z"/></g><path d="m89.41 28.69 28.71 48.94-28.5 48.58" fill="none" stroke="#fff" stroke-miterlimit="10" stroke-width=".85"/><path d="m81.81 28.69 28.71 48.94-28.5 48.58" fill="none" stroke="#fff" stroke-miterlimit="10" stroke-width=".85"/></svg>