<?xml version="1.0" encoding="UTF-8"?><svg id="Layer_1" xmlns="http://www.w3.org/2000/svg" viewBox="0 0 250 180"><defs><style>.cls-1{fill:none;stroke:#fff;stroke-miterlimit:10;stroke-width:.85px;}.cls-2{fill:#c8102e;stroke-width:0px;}</style></defs><polygon class="cls-2" points="73.5 77.59 41.78 23.54 94.56 23.54 126.29 77.63 94.56 131.72 41.78 131.72 73.5 77.59"/><polygon class="cls-2" points="173.17 77.91 204.9 131.96 152.11 131.96 120.38 77.87 152.11 23.78 204.9 23.78 173.17 77.91"/><path class="cls-2" d="m84.63,151.62c0,2.32-2.26,4.2-5.04,4.2h-5.04v2.8h-4.11v-11.2h9.15c2.78,0,5.04,1.89,5.04,4.2Zm-4.11,0c0-.77-.75-1.4-1.68-1.4h-4.3v2.8h4.3c.93,0,1.68-.63,1.68-1.4Z"/><path class="cls-2" d="m94.98,155.82h-4.95v2.8h-4.11v-11.2h10.27c2.78,0,5.04,1.89,5.04,4.2,0,1.41-.84,2.66-2.12,3.42l2.27,3.58h-4.63l-1.77-2.8Zm-4.95-2.8h5.42c.93,0,1.68-.63,1.68-1.4s-.75-1.4-1.68-1.4h-5.42v2.8Z"/><path class="cls-2" d="m102.77,158.62v-11.2h4.11v11.2h-4.11Z"/><path class="cls-2" d="m116.94,158.93c-5.24,0-8.6-1.24-8.6-5.91,0-4.36,2.99-5.91,8.6-5.91s8.58,1.56,8.58,5.91c0,4.67-2.99,5.91-8.58,5.91Zm0-9.03c-2.62,0-4.12.62-4.12,3.11s1.49,3.11,4.12,3.11,4.1-.62,4.1-3.11-1.45-3.11-4.1-3.11Z"/><path class="cls-2" d="m136.05,155.82h-4.95v2.8h-4.11v-11.2h10.27c2.78,0,5.04,1.89,5.04,4.2,0,1.41-.84,2.66-2.12,3.42l2.27,3.58h-4.63l-1.77-2.8Zm-4.95-2.8h5.42c.93,0,1.68-.63,1.68-1.4s-.75-1.4-1.68-1.4h-5.42v2.8Z"/><path class="cls-2" d="m143.84,158.62v-11.2h4.11v11.2h-4.11Z"/><path class="cls-2" d="m164.03,150.22h-5.41v8.4h-4.11v-8.4h-5.42v-2.8h14.94v2.8Z"/><path class="cls-2" d="m174.37,154.53v4.09h-4.11v-4.09l-6.16-7.11h4.86l3.36,3.88,3.36-3.88h4.86l-6.16,7.11Z"/><polyline class="cls-1" points="89.41 28.69 118.12 77.63 89.62 126.21"/><polyline class="cls-1" points="81.81 28.69 110.52 77.63 82.02 126.21"/></svg>