<?xml version="1.0" encoding="UTF-8"?>
<svg id="Layer_2" data-name="Layer 2" xmlns="http://www.w3.org/2000/svg" viewBox="0 0 560.42 50">
  <defs>
    <style>
      .cls-1 {
        fill: #c8102e;
      }

      .cls-1, .cls-2 {
        stroke-width: 0px;
      }

      .cls-2 {
        fill: #fff;
      }
    </style>
  </defs>
  <g id="Layer_2-2" data-name="Layer 2">
    <g>
      <polygon class="cls-1" points="14.66 24.98 0 0 24.4 0 39.06 25 24.4 50 0 50 14.66 24.98"/>
      <g>
        <path class="cls-2" d="M182.37,13.59V.09h-51.15v49.01h51.15v-13.49h-30.4v-5.66h30.4v-11.61h-30.4v-4.76h30.4Z"/>
        <path class="cls-2" d="M126.65.09v14.91h-20.18v34.1h-20.74V15h-20.09V.09h61.02Z"/>
        <path class="cls-2" d="M234.02.09h-31.46l-17.41,49.01h21.44l3.23-10.38h16.95l3.22,10.38h21.45L234.02.09ZM214.01,25.49l4.02-12.95h.56l4.07,12.95h-8.64Z"/>
        <path class="cls-2" d="M339.49,49.1h-18.53V15.64l-8.22,33.45h-29.98l-8.22-33.45v33.45h-18.53V.1h34.73l7.01,32.23L304.76.1h34.73v49Z"/>
        <g>
          <polygon class="cls-2" points="537.19 .06 523.03 14.01 509.35 .06 486.63 .06 509.98 23.47 486.57 49.05 509.36 49.05 523.31 33.2 537.22 49.05 560.42 49.05 536.39 23.19 560.32 .06 537.19 .06"/>
          <path class="cls-2" d="M495.92,24.54c0-7.85-3.52-13.9-8.72-18.12-5.2-4.24-12.6-6.36-22.22-6.36h-35.3v49h35.31c9.62,0,17.03-2.13,22.22-6.36,5.2-4.23,8.72-10.29,8.72-18.14v-.02ZM475.62,24.54c0,3.05-1.39,5.94-3.79,7.84-2.18,1.81-5.33,2.73-9.34,2.73h-12.05V14.01h12.05c4.01,0,7.15.92,9.34,2.73,2.4,1.89,3.8,4.77,3.8,7.81v-.02Z"/>
          <polygon class="cls-2" points="387.69 34.1 387.69 .07 366.56 .06 366.56 49.06 425.59 49.06 425.59 34.1 387.69 34.1"/>
        </g>
      </g>
    </g>
  </g>
</svg>