<svg viewBox="0 0 220 114" xmlns="http://www.w3.org/2000/svg"><path d="m110 0c-19.88 0-38.52 2.73-54.61 7.51 13.64-3.58 29.05-5.59 45.38-5.59 55.59 0 100.65 23.35 100.65 52.15s-45.06 52.16-100.65 52.16-100.5-23.29-100.64-52.03c-.09.93-.13 1.87-.13 2.81 0 31.48 49.25 57 110 57s110-25.52 110-57-49.24-57.01-110-57.01z" fill="#172d50"/><g fill="#1d7bb3"><path d="m168.72 32.65c-2.6 0-5.29 2.19-5.85 5.3-.35 2.02.53 4.38 3.42 4.38 2.49 0 5.36-1.83 6-5.49.28-1.59-.56-4.19-3.58-4.19z"/><path d="m149.67 34.29c.46-1.24.02-1.48-1.03-1.48h-5.57c-.88 0-1.05.3-1.27.83 0 0-1.33 3.49-2.34 6.2l-7.71 20.95c-5.31 15.43 6.32 16.08 8.71 16.2h5.1s1.15.08 1.52-.88c.46-1.18 1.09-2.87 1.09-2.87s.59-1.36-.51-.95c-1.24.47-3.47 1.1-5.43 1.06-1.55-.03-5.97-1.8-3.12-10.47l10.56-28.58z"/><path d="m65.28 32.2c1.25-7.07-5.02-14.29-16.33-14.32-9.44-.04-16.78 7-16.78 7s4.84-3.41 12.6-2.67c7.86.75 12.09 5.84 11.55 10.07-.99 7.84-7.67 12.25-13.35 12.25h-5.48l4.22-11.4c.03-.09.06-.19.09-.28.03-.08.05-.17.06-.24.08-.28.17-.55.23-.85.27-1.59-.56-4.19-3.58-4.19-2.33 0-4.72 1.75-5.59 4.36-.12.13-.2.31-.28.52l-10.52 28.31c-5.31 15.44 7.53 16.24 9.9 16.37 20.55 0 26.61-10.84 27.88-18.07.41-2.36.83-11.79-9.11-13.04l.03-.16c6.28-1.26 13.11-5.97 14.47-13.67zm-16.13 26.79c-.88 5.02-7.07 13.5-15.19 13.5-1.54-.04-6.13-.95-3.26-9.62l5.24-14.17h5.58c6.62 0 8.49 5.49 7.63 10.29z"/><path d="m167.54 46.68h-5.94c-.89 0-1.07.29-1.27.83-4.29 11.66-9.04 24.54-10.42 28.3-.43 1.24.23 1.17.86 1.17h5.93c1.03-.02 1.17-.56 1.27-.82l10.42-28.3c.46-1.24-.27-1.18-.85-1.18z"/><path d="m119.02 45.98c-9.64 0-19.6 7.49-21.64 19.07-.49 2.78-.13 5.52 1.22 7.67-1.24.34-2.76.66-4.13.63-1.54-.03-7.58-1.8-3.96-10.47l6.5-14.83c.57-1.24.15-1.48-.91-1.48h-5.3c-.88 0-1.07.29-1.34.83l-.23.52c-1.47-1.23-3.56-1.94-6.37-1.94-9.64 0-19.58 7.49-21.64 19.07-1.06 6.02 1.8 11.86 10.26 11.86 4.24 0 8.14-1.56 11.38-4.09 2.51 3.77 8.05 4.03 9.51 4.1h15.26-.01s0 0 .01 0c10.18 0 19.5-8.91 21.26-18.89 1.2-6.78-2.2-12.04-9.88-12.04zm-34.53 10.64c-.25 1.41-.64 2.98-1.16 4.57-.37.88-.67 1.72-.91 2.5-2.01 4.96-5.16 9.5-8.9 9.5s-4.51-3.9-3.7-8.5c1.41-7.97 6.85-15 10.93-15 3.13 0 4.53 2.48 3.75 6.92zm36.15 0c-1.15 6.54-5.41 16.58-10.98 16.58-3.79 0-4.51-3.9-3.7-8.5 1.41-7.97 6.85-15 10.92-15 3.14 0 4.53 2.48 3.75 6.92z"/></g></svg>