<?xml version="1.0" encoding="UTF-8"?><svg id="Layer_1" xmlns="http://www.w3.org/2000/svg" viewBox="0 0 380 110"><defs><style>.cls-1{fill:#c8102e;}.cls-1,.cls-2{stroke-width:0px;}.cls-2{fill:#fff;}</style></defs><path class="cls-1" d="m61.67,55l-17.85-29.98h29.71l17.86,30-17.86,30h-29.71l17.85-30.02ZM31.77,5L2,54.99l29.77,50.01h59.54l29.77-50.01L91.3,5H31.77Z"/><polygon class="cls-2" points="350.01 25.02 332.67 42.11 315.92 25.02 288.1 25.02 316.69 53.69 288.02 85.02 315.93 85.02 333.01 65.6 350.04 85.02 378.45 85.02 349.03 53.35 378.34 25.02 350.01 25.02"/><path class="cls-2" d="m299.47,55c0-9.61-4.31-17.01-10.68-22.19-6.36-5.19-15.43-7.79-27.21-7.79h-43.22v59.99h43.24c11.78,0,20.85-2.6,27.21-7.79,6.36-5.18,10.68-12.6,10.68-22.21l-.02-.02Zm-24.85,0c0,3.74-1.7,7.28-4.64,9.6-2.67,2.21-6.52,3.35-11.43,3.35h-14.76v-25.83h14.76c4.91,0,8.76,1.12,11.43,3.34,2.93,2.31,4.65,5.84,4.65,9.57l-.02-.02Z"/><polygon class="cls-2" points="166.95 66.71 166.95 25.05 141.07 25.02 141.07 85.02 213.36 85.02 213.36 66.71 166.95 66.71"/></svg>