<svg viewBox="0 0 217 140" xmlns="http://www.w3.org/2000/svg"><path d="m0 0h217v140h-217z" fill="#fff"/><path d="m11.28 11.67h194.44v116.67h-194.44z"/><g fill="#fff"><path d="m182.28 107.8c.83-2.37 3.43-7.43 6.59-7.43.59 0 .97.28 1.16.69.2.44.17 1.04-.05 1.56-1.1 2.64-4.26 4.61-7.71 5.18m-19.51-4.4c-.11 2.24-3.27 9.27-7.23 9.27-1.73 0-1.81-1.72-1.46-3.24.56-2.43 3.92-8.34 7.01-8.34 1.27 0 1.75 1.16 1.69 2.32m-93.27 7.79c-2.94 1.89-5.91 3.03-8.9 3.03-4.51 0-7.05-1.74-7.05-3.94 0-1.56 1.48-2.97 4.11-2.97 3.52 0 7.53 1.83 11.84 3.88m112.44-1.79c2.57-.41 10.74-1.71 11.89-5.8.95-3.36-2.21-5-5.44-5-6.43 0-12.93 3.98-14.58 10.53-.09.34-.15.69-.18 1.05-2 1.71-3.94 2.64-5.03 2.64-1.19 0-1.34-.82-.79-1.89l10.24-19.83h-8.33l-5.47 10.59c-.4-1.48-2.08-3.2-5.76-3.2-7 0-11.09 5.81-12.53 9.76-.25.69-.41 1.36-.49 2-1.97 1.68-3.89 2.58-4.96 2.58-1.19 0-1.34-.82-.79-1.89l2.97-5.75c1.53-2.96.17-6.22-3.94-6.22-3.56 0-6.82 1.92-10.81 4.84l2.24-4.33h-8.6l-2.53 4.91c-2.75 5.34-7.63 8.44-9.62 8.44-1.19 0-1.36-.84-.79-1.89l6.22-11.47h-8.6l-3.46 6.38c-1.29 2.38-4.49 5.91-9.71 5.91-3.53 0-7.16-.91-10.92-2.07 5.96-3.62 11.99-8.64 17.55-15.06 11.04-12.76 18.34-17.59 30.43-17.59 15.61 0 21.45 5.9 21.45 10.78 0 3.75-1.78 4.94-3.24 5.61l.22 1.27c6.92-.26 10.8-3.67 10.8-7.61 0-6.87-11.8-12.1-30.41-12.1-16.02 0-29.92 6.62-39.28 16.55-5.08 5.39-10.08 11.31-15.09 15.75-4.23-1.28-8.63-2.33-13.22-2.33-8.92 0-14.6 2.25-14.6 6.14 0 3.46 6.33 5.6 13.8 5.6 4.23 0 9.02-1.04 14.03-3.13 3.95 1.72 8.06 3.13 12.21 3.13 5.46 0 10.03-2.79 13.02-5.37-1.43 2.95.39 5.37 3.69 5.37 3.11 0 7.95-1.82 12.07-5.63l-2.65 5.13h8.6l.76-1.48c1.78-3.46 6.21-11.36 10.56-11.36 1.27 0 1.56 1.18.94 2.38l-2.77 5.36c-1.6 3.09.18 5.61 3.57 5.61 2.83 0 7.04-1.51 10.86-4.67.36 2.76 2.45 4.67 5.38 4.67 3.4 0 7.45-2.8 8.84-4.12-.22 1.99.79 4.12 3.69 4.12 2.36 0 6.5-1.55 10.33-4.77.48 2.66 2.74 5.1 7.72 5.1 4.1 0 9.29-1.77 12.65-3.94l-.03-1.54c-2.78 1.34-5.3 2.4-8.15 2.4-2.86 0-4.49-2.01-3.95-4.52m-63.47-16.52c.33-2.17-1.34-3.93-3.74-3.93s-4.62 1.76-4.95 3.93c-.34 2.18 1.34 3.93 3.74 3.93s4.62-1.76 4.95-3.93"/><path d="m23.43 33.32v-9.51h1.27v8.65h2.98v.86z"/><path d="m29.99 24.43c-.4 0-.72-.3-.72-.66s.32-.68.72-.68.71.3.71.68c0 .36-.32.66-.71.66zm-.61 8.89v-7.45h1.22v7.45z"/><path d="m36.83 33.32v-5.35c0-.69-.29-1.45-1.56-1.45-.69 0-1.02.1-1.41.26v6.54h-1.22v-7.06c.66-.32 1.53-.53 2.72-.53 2.07 0 2.68 1.15 2.68 2.21v5.38h-1.22z"/><path d="m42.81 33.46c-2.13 0-3.28-1.49-3.28-3.75 0-2.47 1.31-3.91 3.23-3.91.41 0 .77.06 1.17.17v-3.5h1.2v10.46c-.5.3-1.3.53-2.34.53zm1.13-6.82c-.3-.08-.61-.14-.93-.14-1.73 0-2.28 1.49-2.28 3.11 0 1.76.61 3.04 2.13 3.04.5 0 .84-.06 1.08-.21v-5.81z"/><path d="m47.81 30.06c.14 1.69.93 2.52 2.27 2.52.84 0 1.45-.21 1.84-.43l.32.8c-.46.28-1.24.51-2.25.51-1.95 0-3.32-1.23-3.32-3.88s1.24-3.84 3-3.84 2.86 1.16 2.83 3.65l-4.69.68zm1.81-3.54c-1.08 0-1.88.87-1.85 2.89l3.57-.54c0-1.69-.65-2.35-1.71-2.35z"/><path d="m65.04 33.32c-.01-.12-.73-7.12-.73-7.12-.06-.59-.07-1.12-.07-1.12h-.03s-.1.53-.26 1.12c0 0-1.96 6.95-2.02 7.12h-.84c-.04-.14-1.99-7.13-1.99-7.13-.15-.57-.26-1.11-.26-1.11h-.03s-.01.54-.07 1.11c0 0-.73 6.99-.75 7.13h-1.09l1.13-9.51h1.34l1.91 6.87c.18.64.25 1.08.25 1.08h.03s.07-.44.25-1.06l1.96-6.88h1.34l1.13 9.51s-1.2 0-1.2 0z"/><path d="m70.45 33.46c-1.94 0-2.83-.84-2.83-2.2 0-1.98 1.85-2.56 4.16-2.79v-.46c0-1.15-.69-1.48-1.65-1.48-.72 0-1.38.26-1.8.47l-.29-.72c.43-.24 1.26-.55 2.28-.55 1.38 0 2.6.59 2.6 2.42v4.78c-.57.32-1.44.53-2.47.53zm1.33-4.37c-1.88.24-3 .64-3 2.14 0 1.08.66 1.52 1.77 1.52.47 0 .93-.08 1.23-.25z"/><path d="m77.13 33.39c-1.35 0-1.85-.97-1.85-1.88v-4.88h-.86v-.76h.86v-1.71l1.22-.37v2.09h1.3v.76h-1.3v4.85c0 .59.26 1.08.94 1.08.12 0 .24-.03.36-.06v.77c-.14.04-.36.11-.66.11z"/><path d="m80.11 30.06c.14 1.69.93 2.52 2.27 2.52.84 0 1.45-.21 1.84-.43l.32.8c-.46.28-1.24.51-2.25.51-1.95 0-3.32-1.23-3.32-3.88s1.24-3.84 3-3.84 2.86 1.16 2.83 3.65l-4.69.68zm1.81-3.54c-1.08 0-1.88.87-1.85 2.89l3.57-.54c0-1.69-.65-2.35-1.71-2.35z"/><path d="m89.57 26.67c-.61-.18-1.3-.12-1.7.14v6.51h-1.22v-7.05c.73-.37 1.44-.57 3.21-.53z"/><path d="m92.2 24.43c-.4 0-.72-.3-.72-.66s.32-.68.72-.68.71.3.71.68-.32.66-.71.66zm-.61 8.89v-7.45h1.22v7.45z"/><path d="m97.44 33.46c-1.94 0-2.83-.84-2.83-2.2 0-1.98 1.85-2.56 4.16-2.79v-.46c0-1.15-.69-1.48-1.65-1.48-.72 0-1.38.26-1.8.47l-.29-.72c.43-.24 1.26-.55 2.28-.55 1.38 0 2.6.59 2.6 2.42v4.78c-.57.32-1.44.53-2.47.53zm1.33-4.37c-1.88.24-3 .64-3 2.14 0 1.08.66 1.52 1.77 1.52.47 0 .93-.08 1.23-.25z"/><path d="m101.88 33.32v-10.85h1.22v10.85s-1.22 0-1.22 0z"/><path d="m113.19 33.32v-4.49h-3.64v4.49h-1.27v-9.51h1.27v4.17h3.64v-4.17h1.27v9.51z"/><path d="m119.03 33.46c-1.94 0-2.83-.84-2.83-2.2 0-1.98 1.85-2.56 4.16-2.79v-.46c0-1.15-.69-1.48-1.65-1.48-.72 0-1.38.26-1.8.47l-.29-.72c.43-.24 1.26-.55 2.28-.55 1.38 0 2.6.59 2.6 2.42v4.78c-.57.32-1.44.53-2.47.53zm1.33-4.37c-1.88.24-3 .64-3 2.14 0 1.08.66 1.52 1.77 1.52.47 0 .93-.08 1.23-.25z"/><path d="m127.62 33.32v-5.35c0-.69-.29-1.45-1.56-1.45-.69 0-1.02.1-1.41.26v6.54h-1.22v-7.06c.66-.32 1.53-.53 2.72-.53 2.07 0 2.68 1.15 2.68 2.21v5.38h-1.22z"/><path d="m133.57 33.46c-2.13 0-3.28-1.49-3.28-3.75 0-2.47 1.31-3.91 3.23-3.91.41 0 .77.06 1.17.17v-3.5h1.2v10.46c-.5.3-1.3.53-2.34.53zm1.13-6.82c-.3-.08-.61-.14-.93-.14-1.73 0-2.28 1.49-2.28 3.11 0 1.76.61 3.04 2.13 3.04.5 0 .84-.06 1.08-.21v-5.81z"/><path d="m138 33.32v-10.85h1.22v10.85s-1.22 0-1.22 0z"/><path d="m141.95 24.43c-.4 0-.72-.3-.72-.66s.32-.68.72-.68.71.3.71.68c0 .36-.32.66-.71.66zm-.61 8.89v-7.45h1.22v7.45z"/><path d="m148.82 33.32v-5.35c0-.69-.29-1.45-1.56-1.45-.69 0-1.02.1-1.41.26v6.54h-1.22v-7.06c.66-.32 1.53-.53 2.72-.53 2.07 0 2.68 1.15 2.68 2.21v5.38h-1.22z"/><path d="m154.25 36.44c-.98 0-1.81-.21-2.31-.51l.37-.82c.41.24 1.06.44 1.73.44 1.37 0 1.89-.83 1.89-1.95v-.53c-.33.19-.84.32-1.49.32-1.78 0-2.93-1.41-2.93-3.68s1.15-4 3.39-4c1.04 0 1.78.25 2.21.53v7.22c0 1.88-1.08 2.97-2.86 2.97zm1.69-9.77c-.28-.15-.64-.21-1.06-.21-1.51 0-2.16 1.26-2.16 3.22s.62 3 2.05 3c.47 0 .88-.12 1.17-.3z"/></g></svg>