<?xml version="1.0" encoding="UTF-8"?><svg id="Layer_1" xmlns="http://www.w3.org/2000/svg" viewBox="0 0 320 110"><defs><style>.cls-1{fill:none;stroke:#c8102e;stroke-miterlimit:10;stroke-width:2px;}.cls-2{fill:#c8102e;stroke-width:0px;}</style></defs><path class="cls-2" d="m84.71,48.14l-2.46-6.9h-11.19l-2.46,6.9h-3.24l8.19-22.8h6.21l8.19,22.8h-3.24Zm-12.69-9.6h9.27l-4.62-13.08-4.65,13.08Z"/><path class="cls-2" d="m113.61,25.34v3.96h-7.08v18.84h-4.74v-18.84h-7.08v-3.96h18.9Z"/><path class="cls-2" d="m124.59,25.34c6.93,0,11.61,3.72,11.61,11.4s-4.68,11.4-11.61,11.4h-8.4v-22.8h8.4Zm.12,18.84c4.17,0,6.6-2.61,6.6-7.44s-2.43-7.44-6.6-7.44h-3.78v14.88h3.78Z"/><path class="cls-2" d="m158.91,48.14h-5.67l-6.15-8.67-6.15,8.67h-5.67l8.7-12.09-7.77-10.71h5.64l5.25,7.41,5.25-7.41h5.64l-7.8,10.68,8.73,12.12Z"/><path class="cls-2" d="m171.43,44.18h9.87v3.96h-14.61v-22.8h4.74v18.84Z"/><path class="cls-2" d="m191.71,44.78v3.36h-2.58c-3.21,0-5.61-1.59-5.61-4.83v-8.1h-3.03v-3.36h3.03v-3.84h4.59v3.84h3.57v3.36h-3.57v7.74c0,1.41.69,1.83,2.01,1.83h1.59Z"/><path class="cls-2" d="m205.37,25.34h4.53v22.8h-4.53v-3.3c-.87,2.13-2.88,3.66-5.4,3.66-4.02,0-6.72-3.6-6.72-8.49s2.7-8.52,6.72-8.52c2.88,0,4.71,1.95,5.4,4.08v-10.23Zm.18,14.67c0-3.33-1.35-5.4-3.84-5.4s-3.78,2.07-3.78,5.4,1.29,5.37,3.78,5.37,3.84-2.07,3.84-5.37Z"/><path class="cls-2" d="m76.52,61.34c5.4,0,8.67,2.55,8.67,7.14s-3.27,7.14-8.67,7.14h-5.37v8.52h-3.03v-22.8h8.4Zm.09,11.58c3.51,0,5.43-1.44,5.43-4.44s-1.92-4.44-5.43-4.44h-5.46v8.88h5.46Z"/><path class="cls-2" d="m100.71,73.79v10.35h-2.94v-3.3c-1.11,2.25-2.43,3.63-5.55,3.63s-5.4-2.19-5.4-5.16c0-3.75,3.75-4.47,6.63-4.77l4.32-.45v-.33c0-2.1-1.17-3.87-3.72-3.87-2.25,0-3.51,1.38-3.72,2.91h-3c.36-3.03,2.94-5.07,6.72-5.07,4.89,0,6.66,3.06,6.66,6.06Zm-2.94,3.51v-1.2l-3.21.33c-2.22.24-4.74.54-4.74,2.88,0,2.07,1.62,3.21,3.48,3.21,2.97,0,4.47-2.34,4.47-5.22Z"/><path class="cls-2" d="m107.85,71.51c.72-2.25,2.31-3.78,5.28-3.78v2.91h-.9c-2.94,0-4.38.93-4.38,3.81v9.69h-2.94v-16.08h2.94v3.45Z"/><path class="cls-2" d="m124.32,81.92v2.22h-2.1c-2.79,0-4.98-1.35-4.98-4.41v-9.45h-3.39v-2.22h3.39v-3.81h2.94v3.81h4.08v2.22h-4.08v9.45c0,1.71.87,2.19,2.34,2.19h1.8Z"/><path class="cls-2" d="m140.7,74.12v10.02h-2.94v-9.57c0-3.27-1.5-4.68-3.84-4.68s-3.84,1.44-3.84,4.74v9.51h-2.94v-16.08h2.94v3.27c.72-1.89,2.28-3.6,5.04-3.6,3.63,0,5.58,2.79,5.58,6.39Z"/><path class="cls-2" d="m159.04,76.97h-12.15c.24,3.48,2.01,5.34,4.68,5.34,2.34,0,3.57-1.08,4.17-2.88h3c-.93,3.42-3.54,5.04-7.17,5.04-4.86,0-7.65-3.54-7.65-8.37s2.85-8.37,7.62-8.37c4.5,0,7.56,3.18,7.56,8.13,0,.3-.03.72-.06,1.11Zm-12.12-2.22h9.18c-.18-2.88-1.92-4.86-4.56-4.86s-4.26,1.65-4.62,4.86Z"/><path class="cls-2" d="m165.4,71.51c.72-2.25,2.31-3.78,5.28-3.78v2.91h-.9c-2.94,0-4.38.93-4.38,3.81v9.69h-2.94v-16.08h2.94v3.45Z"/><path class="cls-2" d="m178.99,72.74c0-7.02,4.5-11.73,10.65-11.73,5.22,0,8.94,3.18,10.11,7.74h-3.15c-1.08-2.97-3.3-5.19-6.96-5.19-4.53,0-7.5,3.78-7.5,9.18s3.12,9.18,7.41,9.18c3.69,0,6.09-1.92,7.23-5.22h3.15c-1.53,5.16-5.22,7.77-10.38,7.77-6,0-10.56-4.68-10.56-11.73Z"/><path class="cls-2" d="m201.92,76.1c0-4.98,3.06-8.37,7.83-8.37s7.8,3.39,7.8,8.37-3.03,8.37-7.8,8.37-7.83-3.39-7.83-8.37Zm12.63,0c0-3.78-1.74-6.21-4.8-6.21s-4.83,2.43-4.83,6.21,1.77,6.21,4.83,6.21,4.8-2.43,4.8-6.21Z"/><path class="cls-2" d="m244.13,74.12v10.02h-2.94v-9.57c0-3.24-1.26-4.68-3.6-4.68s-3.6,1.44-3.6,4.74v9.51h-2.94v-9.57c0-3.24-1.26-4.68-3.6-4.68s-3.6,1.44-3.6,4.74v9.51h-2.94v-16.08h2.94v3.27c.72-1.92,2.16-3.6,4.8-3.6s4.47,1.95,5.04,4.02c.66-1.95,2.22-4.02,5.1-4.02,3.51,0,5.34,2.67,5.34,6.39Z"/><path class="cls-2" d="m263.78,76.1c0,4.95-2.94,8.37-6.84,8.37-2.4,0-4.68-1.53-5.67-3.84v9.39h-2.94v-21.96h2.94v3.9c.75-2.16,2.67-4.23,5.67-4.23,3.87,0,6.84,3.42,6.84,8.37Zm-3,0c0-3.78-1.74-6.21-4.8-6.21s-4.83,2.43-4.83,6.21,1.77,6.21,4.83,6.21,4.8-2.43,4.8-6.21Z"/><path class="cls-2" d="m280.17,73.79v10.35h-2.94v-3.3c-1.11,2.25-2.43,3.63-5.55,3.63s-5.4-2.19-5.4-5.16c0-3.75,3.75-4.47,6.63-4.77l4.32-.45v-.33c0-2.1-1.17-3.87-3.72-3.87-2.25,0-3.51,1.38-3.72,2.91h-3c.36-3.03,2.94-5.07,6.72-5.07,4.89,0,6.66,3.06,6.66,6.06Zm-2.94,3.51v-1.2l-3.21.33c-2.22.24-4.74.54-4.74,2.88,0,2.07,1.62,3.21,3.48,3.21,2.97,0,4.47-2.34,4.47-5.22Z"/><path class="cls-2" d="m297.93,74.12v10.02h-2.94v-9.57c0-3.27-1.5-4.68-3.84-4.68s-3.84,1.44-3.84,4.74v9.51h-2.94v-16.08h2.94v3.27c.72-1.89,2.28-3.6,5.04-3.6,3.63,0,5.58,2.79,5.58,6.39Z"/><path class="cls-2" d="m312.94,68.06h3.06l-7.38,21.96h-3.06l2.58-7.65h-2.85l-5.58-14.31h3.03l5.49,14.04,4.71-14.04Z"/><line class="cls-1" x1="33.27" y1="5.61" x2="33.27" y2="105"/></svg>