<?xml version="1.0" encoding="UTF-8"?><svg id="Layer_1" xmlns="http://www.w3.org/2000/svg" viewBox="0 0 664 110"><defs><style>.cls-1{fill:#c8102e;}.cls-1,.cls-2{stroke-width:0px;}.cls-2{fill:#fff;}</style></defs><path class="cls-1" d="m61.67,55l-17.85-29.98h29.71l17.86,30-17.86,30h-29.71l17.85-30.02ZM31.77,5L2,54.99l29.77,50.01h59.54l29.77-50.01L91.3,5H31.77Z"/><polygon class="cls-2" points="350.01 25.02 332.67 42.11 315.92 25.02 288.1 25.02 316.69 53.69 288.02 85.02 315.93 85.02 333.01 65.6 350.04 85.02 378.45 85.02 349.03 53.35 378.34 25.02 350.01 25.02"/><path class="cls-2" d="m299.47,55c0-9.61-4.31-17.01-10.68-22.19-6.36-5.19-15.43-7.79-27.21-7.79h-43.22v59.99h43.24c11.78,0,20.85-2.6,27.21-7.79,6.36-5.18,10.68-12.6,10.68-22.21l-.02-.02Zm-24.85,0c0,3.74-1.7,7.28-4.64,9.6-2.67,2.21-6.52,3.35-11.43,3.35h-14.76v-25.83h14.76c4.91,0,8.76,1.12,11.43,3.34,2.93,2.31,4.65,5.84,4.65,9.57l-.02-.02Z"/><polygon class="cls-2" points="166.95 66.71 166.95 25.05 141.07 25.02 141.07 85.02 213.36 85.02 213.36 66.71 166.95 66.71"/><path class="cls-1" d="m443.86,85.14l-2.19-6.54h-10.65l-2.19,6.54h-4.08l7.89-22.8h7.41l7.89,22.8h-4.08Zm-11.73-9.84h8.43l-4.2-12.48-4.23,12.48Z"/><path class="cls-1" d="m472.07,62.34v3.33h-7.35v19.47h-3.87v-19.47h-7.35v-3.33h18.57Z"/><path class="cls-1" d="m482.99,62.34c6.84,0,11.43,3.84,11.43,11.4s-4.59,11.4-11.43,11.4h-8.1v-22.8h8.1Zm.09,19.47c4.65,0,7.35-2.85,7.35-8.07s-2.7-8.07-7.35-8.07h-4.32v16.14h4.32Z"/><path class="cls-1" d="m516.66,85.14h-4.62l-6.81-9.3-6.81,9.3h-4.62l8.94-12.15-7.89-10.65h4.59l5.79,7.89,5.79-7.89h4.59l-7.89,10.65,8.94,12.15Z"/><path class="cls-1" d="m523.8,73.74c0-7.14,4.65-11.76,10.89-11.76,5.31,0,9.24,3.12,10.44,7.95h-4.05c-.96-2.73-2.94-4.8-6.39-4.8-4.17,0-6.9,3.48-6.9,8.61s2.88,8.61,6.87,8.61c3.36,0,5.55-1.77,6.6-4.83h4.02c-1.5,5.37-5.4,7.98-10.62,7.98-6.15,0-10.86-4.62-10.86-11.76Z"/><path class="cls-1" d="m547.03,77.04c0-4.98,3.15-8.43,8.13-8.43s8.16,3.45,8.16,8.43-3.15,8.46-8.16,8.46-8.13-3.45-8.13-8.46Zm12.45,0c0-3.54-1.53-5.79-4.32-5.79s-4.32,2.25-4.32,5.79,1.56,5.82,4.32,5.82,4.32-2.25,4.32-5.82Z"/><path class="cls-1" d="m590.35,74.97v10.17h-3.75v-9.45c0-3.03-1.08-4.41-3.18-4.41s-3.21,1.38-3.21,4.47v9.39h-3.75v-9.45c0-3.03-1.08-4.41-3.18-4.41s-3.21,1.38-3.21,4.47v9.39h-3.75v-16.17h3.72v3.33c.72-1.95,2.19-3.69,4.92-3.69s4.41,1.92,5.01,3.99c.66-1.98,2.22-3.99,5.1-3.99,3.6,0,5.28,2.67,5.28,6.36Z"/><path class="cls-1" d="m610.22,77.04c0,4.92-2.82,8.46-6.78,8.46-2.46,0-4.62-1.59-5.55-3.81v9.33h-3.72v-22.05h3.72v3.81c.75-2.16,2.61-4.17,5.55-4.17,3.93,0,6.78,3.51,6.78,8.43Zm-3.81,0c0-3.54-1.53-5.79-4.32-5.79s-4.32,2.25-4.32,5.79,1.56,5.82,4.32,5.82,4.32-2.25,4.32-5.82Z"/><path class="cls-1" d="m627.17,74.82v10.32h-3.72v-3.21c-1.02,2.13-2.4,3.57-5.49,3.57s-5.52-2.19-5.52-5.25c0-3.75,3.63-4.56,6.69-4.86l4.29-.45v-.27c0-1.89-1.08-3.42-3.33-3.42-2.01,0-3.12,1.2-3.33,2.55h-3.78c.39-3.18,3.15-5.19,7.11-5.19,4.98,0,7.08,2.91,7.08,6.21Zm-3.75,3.45v-.96l-2.91.3c-2.04.24-4.26.54-4.26,2.64,0,1.83,1.44,2.88,3.15,2.88,2.67,0,4.02-2.16,4.02-4.86Z"/><path class="cls-1" d="m645.29,74.97v10.17h-3.75v-9.45c0-3.06-1.29-4.41-3.42-4.41s-3.42,1.38-3.42,4.47v9.39h-3.75v-16.17h3.72v3.3c.75-1.98,2.34-3.66,5.13-3.66,3.72,0,5.49,2.76,5.49,6.36Z"/><path class="cls-1" d="m659.91,68.97h3.93l-6.93,22.05h-3.87l2.37-7.62h-3.33l-5.19-14.43h3.78l4.92,13.89,4.32-13.89Z"/></svg>