<svg viewBox="0 0 380 110" xmlns="http://www.w3.org/2000/svg"><path d="m61.67 55-17.85-29.98h29.71l17.86 30-17.86 30h-29.71zm-29.9-50-29.77 49.99 29.77 50.01h59.54l29.77-50.01-29.78-49.99z" fill="#c8102e"/><g fill="#fff"><path d="m350.01 25.02-17.34 17.09-16.75-17.09h-27.82l28.59 28.67-28.67 31.33h27.91l17.08-19.42 17.03 19.42h28.41l-29.42-31.67 29.31-28.33z"/><path d="m299.47 55c0-9.61-4.31-17.01-10.68-22.19-6.36-5.19-15.43-7.79-27.21-7.79h-43.22v59.99h43.24c11.78 0 20.85-2.6 27.21-7.79 6.36-5.18 10.68-12.6 10.68-22.21l-.02-.02zm-24.85 0c0 3.74-1.7 7.28-4.64 9.6-2.67 2.21-6.52 3.35-11.43 3.35h-14.76v-25.83h14.76c4.91 0 8.76 1.12 11.43 3.34 2.93 2.31 4.65 5.84 4.65 9.57l-.02-.02z"/><path d="m166.95 66.71v-41.66l-25.88-.03v60h72.29v-18.31z"/></g></svg>