<svg viewBox="0 0 375 45" xmlns="http://www.w3.org/2000/svg"><g fill="#d71240"><path d="m170.19 25.27h-8.19c-.14 0-.23-.12-.19-.27l6.87-13.49c.08-.21.34-.28.41 0l1.46 13.4c.04.25-.09.36-.35.36m14.83 12.18-3.79-30.07c-.21-1.64-.42-2.8-3.53-2.8h-15.96c-1.99 0-2.98.1-3.69 1.38l-17.47 31.93c-.75 1.27-.14 2.36 1.11 2.36h10.3c1.37-.02 2.06-.32 2.8-1.52 1-1.83 1.95-3.71 2.71-5.36.1-.13.21-.2.38-.2h13.22c.16 0 .35.14.37.29l.5 4.64c.18 1.71 1.03 2.14 2.39 2.14h8.5c1.83 0 2.46-.87 2.16-2.81"/><path d="m316.03 25.26h-8.19c-.14 0-.23-.11-.2-.28l6.86-13.48c.09-.22.36-.3.42 0l1.46 13.39c.04.24-.09.36-.35.36m14.85 12.19-3.81-30.07c-.21-1.64-.41-2.8-3.51-2.8h-15.96c-1.99 0-3 .1-3.71 1.36l-17.46 31.92c-.74 1.3-.15 2.39 1.11 2.39h10.3c1.37-.04 2.07-.34 2.79-1.52 1-1.84 1.95-3.71 2.73-5.36.09-.13.2-.2.38-.22h13.21c.16 0 .35.16.35.31l.51 4.64c.19 1.69 1.03 2.14 2.39 2.14h8.51c1.8 0 2.45-.88 2.15-2.81"/><path d="m270.69 37.87 2.74-15.05c.17-.81-.21-.84-.49-.41l-12.48 16.34c-.63.84-1.61 1.51-2.4 1.51h-3.02c-.82 0-1.5-.58-1.75-1.24l-6.03-16.56c-.26-.68-.47-.45-.57.15l-2.92 15.92c-.18.98-.83 1.73-1.84 1.73h-9.07c-1.33 0-1.93-.67-1.66-2.03l6.1-31.13c.4-1.98 1.45-2.54 2.94-2.54h9.94c1.83 0 3.09.39 3.58 1.7l5.27 14.31c.3.68.35.68.78.06l11.27-14.41c.96-1.24 1.76-1.68 3.45-1.68h12.49c2.16 0 2.46 1.14 2.17 2.67l-6.04 31.49c-.21 1.01-.95 1.65-2.04 1.65h-8.62c-1.85 0-2.03-1.25-1.81-2.49"/><path d="m215.09 20.26 2.43-13.2c.35-1.99 1.36-2.38 2.93-2.38h7.81c1.46 0 2.51.53 2.11 2.55l-6.01 30.49c-.39 1.98-1.4 2.54-2.63 2.54h-6.26c-1.12 0-2.03-.37-2.55-1.23l-8.46-14.42c-.19-.34-.35-.24-.4.02l-2.33 12.81c-.3 1.67-.75 2.9-2.55 2.9h-8.95c-1.47 0-2-.79-1.72-2.28l5.83-30.95c.38-2.09 1.51-2.44 2.54-2.44h6.47c1.6 0 2.37.63 3.4 2.38l7.84 13.22c.14.23.44.36.51-.02"/><path d="m361.48 13.85c-.05.73-.49 3.02-.83 4.43-.38 1.63-1.03 2.04-3.36 2.04h-6.36c-.41 0-.49-.13-.42-.46l1.45-7.61c.04-.1.11-.19.29-.19 1.66-.04 7.22-.08 7.78 0 1.22.12 1.52.66 1.45 1.79m6.95-9.32-24.87.05c-2.81 0-3.47.51-3.82 2.31l-6.07 31.22c-.27 1.41-.02 2.05 1.69 2.16.89.06 8.43 0 9.23 0 1.4 0 2.09-.67 2.34-1.78.79-3.43 1.79-8.84 2.02-10.05.11-.58.15-.63 1.13-.63h6.92c1.15 0 1.6.55 1.36 2.15l-1.36 8.38c-.18 1.11.27 1.93 1.58 1.93 1.78.01 7.96.07 9.08 0 1.73 0 2.43-.4 2.83-2.67l1.4-7.81c.45-2.45.49-5.87-3.42-7.17-.19-.06-.17-.24-.02-.26 3.16-.87 4.46-2.77 5.23-5.13.49-1.5.9-4.15 1.21-6.13.75-4.54-2.02-6.55-6.45-6.55"/><path d="m127.67 16.68 9.11-11.2c.49-.6.77-.97 1.77-.97h12.37c1.73 0 1.45 1.14 1.01 1.68l-18.22 21.95c-.13.17-.26.69-.29.9l-2.15 9.94c-.22 1.1-1.15 1.53-2.34 1.53h-9.28c-1.91 0-2.04-1.09-1.81-2.35l1.75-8.79c.07-.34.09-.5-.04-.77l-11.79-22.66c-.33-.78.2-1.44 1.21-1.44h10.38c1 0 1.82.36 2.16 1.1l5.39 11.09c.23.49.48.32.77-.01"/><path d="m47.32 45 42.4-17.62v-10.71l-42.4 17.62z"/><path d="m44.86 18.64-44.86-18.64v10.71l44.86 18.64 44.86-18.64v-10.71z"/><path d="m0 27.38 42.4 17.62v-10.71l-42.4-17.62z"/></g></svg>