<?xml version="1.0" encoding="UTF-8"?>
<svg id="Layer_1" data-name="Layer 1" xmlns="http://www.w3.org/2000/svg" width="500" height="500" viewBox="0 0 500 500">
  <defs>
    <style>
      .cls-1 {
        fill: #fff;
      }

      .cls-2 {
        fill: #b81027;
      }
    </style>
  </defs>
  <circle class="cls-2" cx="250" cy="250" r="250"/>
  <g>
    <path class="cls-1" d="M244.83,231.59h-34.98l-5.28,25.52h29.04v28.38h-34.98l-7.92,38.72h-34.1l7.92-38.72h-27.5l-7.92,38.72h-34.32l7.92-38.72h-23.1v-28.38h29.04l5.28-25.52h-23.32v-28.6h29.26l9.46-45.98h34.32l-9.46,45.98h27.5l9.46-45.98h34.1l-9.46,45.98h29.04v28.6ZM170.46,257.11l5.28-25.52h-27.5l-5.28,25.52h27.5Z"/>
    <path class="cls-1" d="M402.34,247.43v38.5h-22.22v38.28h-48.4v-38.28h-80.08v-48.18l42.46-80.74h86.02v90.42h22.22ZM292.56,247.43h39.16v-75.24l-39.16,75.24Z"/>
  </g>
</svg>