<?xml version="1.0" encoding="UTF-8"?><svg id="Layer_1" xmlns="http://www.w3.org/2000/svg" viewBox="0 0 480 600"><defs><style>.cls-1{fill:#eee;}.cls-1,.cls-2{stroke-width:0px;}.cls-2{fill:#ccc;}</style></defs><g id="north"><path class="cls-2" d="m303.12,96.89l.85.69v1.11s-.19.77-.19.77l-1.02-.18-.67-.61.6-.25.52-.42h-.77s-.42-.36-.42-.36l.18-.77h.94Z"/><path class="cls-2" d="m308.36,114.45l1.62-.15,1.53.79.69-.25v-.77s1.46-.32,1.46-.32l.61-.76,1.53.62-.69.84-.69.33-.1.85-.19,1.7-.76-.44-.43.68-1.36-.61h-.51s-.77.15-.94-.19c-.17-.34-.33-.77-.59-.78-.26,0-1.45-.1-1.45-.1l-.5-.95.77-.5Z"/><path class="cls-2" d="m315.92,117.54l-.27,1.19-.02,1.62-.76-.52-.59-.95.35-.34v-.85s1.29-.15,1.29-.15Z"/><path class="cls-2" d="m302.22,114.04l-.26.51.25.69,1.36.53.52-.42-.33-1.2-.93-.44-.6.33Z"/><path class="cls-2" d="m304.79,113.39v-1.02s.69.35.69.35v.85s-.02,1.11-.02,1.11l-.78.59-.67-1.03v-.77s.78-.08.78-.08Z"/><path class="cls-2" d="m322.68,81.51l1.36.36v.94s1,.78,1,.78l-.18,1.02-.94.16,1.01,1.21,1.36.78.76.69-.44.85.15,1.54.33,1.28.84.78.67,1.29.24,1.11-.52.51-.94.07-1.02-.52v-.85s-.5-.35-.5-.35l-1.02-.27-.41-1.03s-.16-.51-.42-.69c-.25-.17-.51-.26-.76-.61-.25-.34-.76-.86-1.09-1.21-.34-.35-.84-.69-.84-.69l-.59-.6-.16-.77.85-.07s.25.17.34-.08c.09-.26.26-.42.09-.77-.17-.34-.42-.69-.42-.69l-.84-.86s.77,0,1.02.01c.26,0,.68.18.68-.16,0-.34.09-.34-.08-.6-.17-.26-.76-.86-.76-.86,0,0-.34-.43.1-.85.43-.42,1.12-.84,1.12-.84Z"/><path class="cls-2" d="m304.09,127.21s-.05,0-.07,0c0,0,.06,0,.07,0Z"/><polygon class="cls-2" points="304.09 127.21 304.09 127.21 304.1 127.21 304.09 127.21"/><path class="cls-2" d="m435.17,160.74c-.11-.39-1.52-1.24-1.89-1.51-1.7-1.23-3.56-1.55-5.54-2.07.17.04-.87-1.74-.87-1.73-.16-.8.96-1.08,1.47-1.35-.84-.26-1.57-.46-2.44-.56-.68-.08-1.58-.59-2.24-.53-.34.03-.67.44-1.02.41-.33-.03-.67-.06-1-.1-.8-.1-1.57-.19-2.38-.19-.84-.01-1.67.02-2.5.05-.4.01-.81,0-1.21,0-.18,0-.08.68-.09.85-.18,1.76-1.78,2.6-3.27,1.75-.17.44-.3,1.27-.62,1.61-.32.34-1.16.55-1.61.71-.88.32-1.94.44-2.87.57-.28.04-1.13,0-1.34.18-.32.28-.09,1.15-.47,1.54-.33.34-1.53.81-1.3,1.41.18.45.1.47-.13.99-.19.44-.41.79-.69,1.18-.16.22-.33.48-.55.64-.31.23-.5-.1-.68,0-.59.28-1.21,1.66-1.55,2.22-1.54,2.57-3.79,4.81-6.83,5.38-1.79.34-3.48.84-5.29.55-.62-.1-1.22-.35-1.83-.5-.75-.19-.39.36-.56.86-.17.49-1.03.12-1.38.29-.43.21.29.65.26.81-.13.76-1.77,1.49-1.81.27-.04-1.19.1-1.32-.93-1.9-.62-.34-.95-1.45-1.28-2.06-.2-.37-1.71-.66-2.11-.8-.68-.25-1.21-.48-1.83-.86-.56-.34-1.32-1.04-1.96-1.19-1.53-.35-3.18-.56-4.66-1.08-1.33-.47-2.67-1.2-3.92-1.85-1.47-.76-3.16-1.26-4.1-2.64-.55-.8-.7-1.52-1.67-1.48-.82.04-1.22-.08-2-.36-1.75-.63-3.51-1.23-4.92-2.49-.51-.46-1.28-.71-1.71-1.25-.32-.41-.59-.85-.87-1.29-.39-.6-1.26-.7-1.92-.94-.81-.29-1.14-1.35-1.93-1.56-.3-.08-.66-.98-.82-.93-.35.1-.7.21-1.05.31.39,1.1,1.05,2.33,2.18,2.84.7.32,2.02-.14,2.48.41.84,1-.02,1.24-.96,1.23-.8,0-2.01.11-2.67-.37-.97-.7-1.72-1.58-2.68-2.27-.99-.72-1.15-.91-1.57-2.08-.28-.79-.21-1.91.5-2.29.48-.26.01-.68-.19-1.11-.18-.37-.11-.76-.1-1.18.8.82,1.51,1.73,2.3,2.55.36.37.78.9,1.29.69.53-.22.06-.74-.12-1.21-.71-1.83-2.44-3.06-3.29-4.81-.46-.94-.27-1.71-.5-2.7-.24-1.01-.51-2-.82-2.99-.14-.46-.4-.98-.45-1.46-.07-.65.27-.78-.26-1.23-1.03-.87-1.16-1.69-1.23-2.98.45.72.76,1.21,1.43,1.73.02-1.61.04-3.22.06-4.83,0-.61.28-2.34-.05-2.85-.6-.93-1.35.42-1.72.83.18-.59.37-1.19.55-1.78.19-.61.07-.66-.29-1.21-.24-.37-.09-1.25-.1-1.69-.02-.54.25-.38.76-.43-.34-.63-.62-1.25-.89-1.91-.18-.43-.69-1.08-.69-1.53,0-.19.37-.66.23-.8-.26-.26-.52-.53-.77-.79-.41-.42-.89-.39-1.48-.48,0,.46-.01.91-.02,1.37-.48-.46-.96-.92-1.43-1.38-.73.96-.63,1.89-.55,3.07-.73-.47-.92-.49-1.01-1.34-.12-1.19.12-.27.69-.89.27-.29,0-1.13.28-1.55.39-.57,1-.46,1.37-.91.25-.29.07-1.25.45-1.4.61-.23,1.09-.5,1.65-.84.43-.27,1.15.07.93-.72-.08-.3-.77-.79-1.01-1.04-.52-.53-.63-.09-1.29.1-.58.17-1.15.32-1.73.48-.46.13-1.28.09-1.48.48-.31.61-.52.93-1.12,1.26-1.41.78-.96-1.61-.95-2.32,0-.23-.71-1.02-.92-1.12-.64-.3-.88.28-1.19-.61.37-.05.74-.1,1.11-.16-.22-.49-.53-.79-.2-1.24.31-.43.11-.74,0-1.25-.14-.6-1.59-.64-2.14-.87.25-.55.25-.88.37-1.43.17-.75.44-1-.21-1.43-.26-.17-.92-1.16-1.04-1.17-.71,0-1.09-.19-.96.67-.63-.24-.83-.44-1.27-.95-.07.2-.21.39-.26.59-.18-.88-.18-1.15-.87-1.71-.6-.49-.98-.58-1.75-.37-.98.26-.95.59-.96,1.53,0,.73.1,1.56.57,2.14.88,1.09,2.32,1.19,3.08,2.35.14.22,1.32.82,1.33.69-.01.94-.3.71-1.2.76.13.41.26.82.39,1.23.02.06-.43.48-.48.68-.15.63-.47,1.56.11,2.08.52.46,1.57.76.78,1.44-.61.52-.78,1.15-.98,1.91.42-.16.8-.18.96-.62.14-.4.24-1.1.85-.9.44.15.79,1.52.41,1.77-.74.48-1.13.79-2.03.78-1.11-.01.73.91.98,1.04-.45-.06-.91-.13-1.36-.19.06.6.81.69,1.27.87-.48.01-.96.03-1.43.04-.63.02-.61-.07-.62.57,0,.77.5,1.46.92,2.07.48.7.96,1.41,1.43,2.12.45.68.57,1.42.77,2.22.42,1.65.31,2.94.17,4.62-.04.43.91,1.65,1.13,2.08.32.62.41,1.28.78,1.94-.6-.36-.83-.75-1.41-.32-.5.38-.64.83-.91,1.4-.79-.55-1.14-.57-1.97-.09-.49.29-1.09.34-1.65.46-.7.16-2.08-.61-2.52-1.13-.71-.81-.71-1.91-.91-2.91-.13-.64-.27-1.08-.1-1.71.19-.66.2-.84.01-1.5-.31-1.09-.42-2.2-.7-3.3-.2-.77-1.43-1.65-1.97-2.21-.21-.21-1.1-.73-1.39-.73-.22,0-.99.87-1.26.51-.52-.71-.5-.6-1.32-.31-.41.14-.92.13-1.35.18-.02-.4-.04-.81-.07-1.21-.01-.22-.27-.37-.25-.6.02-.18.19-.81,0-.87-.47-.16-.93-.29-1.41-.39-.24-.05-1.94-.39-1.73.45.2.8.34,1.13.04,1.89-.2-.2-.39-.4-.59-.61-.15.37-.29.74-.44,1.1-.05-.73.12-1.14-.75-1.12.59-.49.72-1.5-.06-1.87-.61-.29-.83-.58-1.27-1.14-.24,1.04-.32,1.92-1.23,2.55.53.42.75.49.81,1.16.05.55-.78.4-1.26.46.13-.81.31-1.54-.34-2.22-.26-.27-1.07-.24-1.19-.61-.1-.32-.2-.63-.3-.95.68.16,1.33.34,1.99.55.78.25.65-.51.66-1.04,0-.06-1.56-.17-1.8-.2-1.02-.15-.03-.63-.52-1.22-.41-.5-1.03-1.03-1.32-1.61-.28-.55-.34-1.33-.49-1.93-.29-1.11-.29-2.32-.38-3.46-.28.03-.57.05-.85.08.02-.23-.03-.75.1-.94.07-.11.37,0,.47-.14.38-.53.56-.78,1.14-1.06.42-.2,1.03-.07,1.52-.26.46-.18.48-.6.65-1.05-.64.08-1.2.12-1.8.36-.19.08-1.2.71-1.25.68-.49-.28-1.23-.5-1.4-1.06-.16-.55-.15-1-.15-1.57,0-.72.08-1.14.34-1.81.14-.37-.33-1.3-.44-1.68-.27-.95-.3-2.03-.5-3.01,1.33-.65,1.58,2.73,1.67,3.43.59-.9,1.1-1.8,1.49-2.8-.66-.21-1.39-.3-1.52-1.13-.18-1.07.55-.96,1.31-1,.69-.04,1.24-.33,1.96-.32.68,0,1.23-.26,1.88-.49-.49-.5-1.34-.35-1.96-.67-.38-.2-.82-.33-1.08-.68-.24-.31-.34-.64-.78-.58.02.4.05.8.07,1.2-.56-.81-1.02-.98-.39-1.77.35-.43,1.2-.26,1.48-.66.25-.37,1.1-1.26.17-1.49-.72-.18-1.27-.25-1.84-.71-2.24-1.79-3.88-4.17-5.07-6.75-.28-.62-.34-1.32-.64-1.93-.46-.95-.73-.81-1.78-.93-1.23-.14-1.76-1.83-2.27-2.73-.79-1.38-.98-2.4-.7-3.96.1-.55.48-1.1.77-1.58.43-.72.49-1,.5-1.84.29.14.91.29,1.1.53.13.16.09,1.02.3,1.03,1,.07,1.37.18,2.17-.4-.81-1.06-1.43-1.77-1.41-3.17,0-.64.02-1.28.02-1.92,0-.47-1.75-.07-1.96,0,.62-.45,1.09-.52.91-1.28-.1-.43-.63-1.02-.62-1.38.01-1-.21-2.56,1.24-2.02.01-1,.13-2.11-.22-3.08-.22-.6-.39-.9-.99-.91-.4,0-.79.04-1-.31-.64-1.02,0-1.75-.39-2.78-.37-.98-1.01-1.7-1.25-2.77-.43.2-1.13.46-1.47.1-.52-.54-1.1-.81-1.39-1.55-.31-.77-.23-1.07-.8-1.71-.37-.41-.57-.95-.82-1.44.72.31,1.71.91,2.18.03-1.11-.41-1.63-.87-2.14-1.93-.33-.68-.77-1.63.33-1.75-.71-.49-.34-1.01-.22-1.68.16-.89.5-.86,1.34-1.06-.08-.24-.17-.47-.25-.71-.24.29-1.54.46-1.53.54.01.18.08.42.05.59-.11.02-.21.04-.32.06-.04.26.04.57.05.83-1.11.04-2.13,0-1.55,1.33-.34-.08-1.37-.38-1.66-.21-.63.37-.02.9.24,1.28-.82.18-1.21.1-1.98-.24-.62-.28-1.22-1.04-1.84-1.15.17.34.41,1.35.7,1.53.82.53.09.48-.47.33.15.65.05.77.72.78.46,0,.92.01,1.38.02.62,0,2.25.82,1.77,1.56-.64-.59-1.24-.79-2.17-.6-.35.07-.69.39-1.09.44-.37.04-.78-.05-1.15-.08.03-.33.27-1.49.03-1.72-.48-.44-.96-.73-1.53-1.05,1.09-.71.29-1.53-.25-2.44-.42-.7-2.41-.25-2.98-.03.8-.87,1.47-1.1,2.63-.8-.26-.73-1.41-2.07-2.35-1.5.44-.86,1.28-1.49,2-.5.16.22.21-.24.37-.05.2.24.39.48.59.72.31.38-.21.78.49,1.03.22-.39.32-.94.79-.97.37-.03.72-.06,1.08-.16-.06-.62-1.64-1.94-2.22-2.11-1.06-.32-2.12.29-3.2-.09-1.14-.4-1.84-1.28-1.82-2.57,0-.51.01-1.35-.43-1.72-.32-.27-1.18-.27-1.6-.28-.7,0-.9-.46-1.53-.66-.43-.13-1.11-.01-1.57.01-.61.03-1.04.06-1.57-.24-.31-.18-1.23-.05-1.36-.26-.33-.53-.6-1.18-1.1-1.57-.53-.41-.84.57-1.26.31-.26-.16-1.15-1.12-1.31-1.1-.53.08-.93.08-1.46.03.25-.87.02-.85-.69-1.42-.24.92-.86,1.39-.93,2.3-.08,1.07-.5,1.44-1.64,1.37-2.03-.12-3.76-.7-4.18-2.93-.11-.59-.44-2.07.57-2.11.5-.02.98.07,1.39-.23.41-.3.85,0,1.13-.43.25-.38,0-.72-.26-1.06-.41-.52-.61-.42-1.27-.43-.37,0-.19-1.92-.9-2.08-.23.88-.2,2.35-.89,2.89-.68.53-1.97.85-2.82.65,0,.82.27,1.27.58,2.01.27.63.9,1.78.3,2.44-.12.13-.54-.03-.68.08-.14.1-.12.41-.26.51-.31.22-.47.34-.85.33-.93-.01-.97-.75-1.05-1.59-.07-.82.04-.32.55-.72.2-.15.5-.54.61-.76.45-.92-.3-1.15-1.07-1.35-.76-.2-1.48-.58-2.19-.9-.84-.38-.88-.74-.71-1.55-.96-.01-1.41-.05-1.87-.88-.4-.71-.75-1.4-1.08-2.15.38.39,1.02.65,1.35,1.04.37.43.42.95.86,1.4.23.24,1.2-.12.96-.51-.3-.48-.6-.96-.92-1.44-.6-.89-1.38-1.38-2.13-2.09-.96-.91-1.49-1.75-2.17-2.89-.53-.89-.82-1.89-.87-2.94-.03-.67-.69-2.77-.29-3.03.49-.32.08-.74.2-1.25.12-.5.31-1.03.35-1.54.1-1.32.25-1.96,1.65-2.23-.53-.34-1.1-1-1.7-.7-.35.17-1.04,1.29-1.25,1.26-1.39-.16-2.77-.3-4.17-.39-.27-.02-.39,1.2-.79,1.35-.77.29-1.45.5-2.28.4-1.22-.14-2.41-.6-3.57-.98-.29,1.07-.3,1.52-1.22,2.12.33.11,1.03.2,1.28.44.24.23.26.72.45,1,.15.21.45.87.71.9.67.08.53.19,1.02.52,1.46.97,2.6,2.45,3.72,3.83.53.66,1.14,1.24,1.73,1.84.17.18.09.58.19.8.13.28.43.55.62.79.97,1.24,1.83,2.53,2.76,3.8,1.78,2.46,3.35,4.98,4.93,7.57.76,1.25,1.78,2.76,1.83,4.29.03.97.06,1.6-.25,2.5-.2.59-.27,1.49-.58,2-.52.84-1.32.84-2.16.83-.28,0-.57-.47-.83-.44-.24.03-.71.63-.9.8-.77.68.78,1.19,1.04,1.43.52.47.8,1.05,1.38,1.51.56.44.94,1.3,1.46,1.83.29.3,1.37.06,1.32.47-.03.25.22.34.38.52.18.2-.75.92-.59,1.15.21.29.12.47.31.77.15.25.94-.43,1.09-.18.23.37.5.05.76.39.15.2-.75,1.2-.59,1.4.28.37,1.67,2.09,1.95,2.46.23.3-.23.6,0,.9.21.29,1.3,1.52,1.51,1.81,0,0-.33-1.02-.42-1.54-.06-.32.29.04.32-.25.03-.26-.28-1.17-.11-1.28.49-.32.9.75,1.4.47.52-.29,2.02-.76,2.25-.74.66.05-.52.6.18.64.93.06,1.08,2,1.13,2.06.5.7-3.4.29-2.76.86.31.28-.38,1.67-.39,2.07,0,.26.43.57.59.75,1.01,1.11,1.74,2.46,2.58,3.71.93,1.4,2.03,2.71,3.04,4.05,1.68,2.24,3.44,4.43,5.09,6.69,1.85,2.53,3.54,5.17,5.38,7.7,1.82,2.51,3.75,4.98,5.22,7.72.68,1.27,1.71,2.79,1.94,4.22.14.86.15,3.97,1.34,3.98,1.72.02,2.82.09,4.37-.77.15-.08.13-1.89.08-2.08-.21-.75-.99-.98-1.61-1.3.91-.76.63-1-.04-1.78-.75-.87-1.07-1.22-2.23-1.24.84-.98-.73-2.23-1.37-2.96-.71-.81-1.32-1.74-2.1-2.47-.97-.89-1.78-1.68-2.31-2.93-.31-.73-.9-2.65.21-2.99.87,1.51,1.59,3.1,2.46,4.6.44.76.62,1.54,1.31,2.1.28.23,1.67,1.69,1.9,1.63.34-.07,1.09-.55,1.4-.47.24.06.6.71.74.94.49.79,1.1,1.19,1.79,1.83.81.76,1.1,1.06,2.16,1.41.59.19,1.4-.87,1.77-1.28-.5-.17-.99-.35-1.49-.51-.84-.27-.97-.4-1.49-1.11-.72-.98-.4-2.06.23-2.93.11.19.31.33.42.52.07-.17.24-.85.42-.85.18,0,1.02-.11,1.13.01.38.42-.95,1.02-.96,1.48,0,.87.64.99,1.42.97,1.07-.04,1.2-.27,1.29.81-.31,0-.63,0-.94-.01.61.72.58.69,1.48.43.45-.13.98.22,1.41.38.27-1.4.28-2.67.22-4.1.21.17,1.26,1.32,1.2,1.34.83-.3.71.14.99.91-.61-.11-1.36-.4-1.37.56,0,.81.08,1.2-.62,1.72-.15.11-1.64.62-1.57.4-.28.82-.06,1.02.35,1.8-.82.57-1.14-.82-1.87-.28-.09.07-.4,1.09-.36,1.19.08.2.77.46.96.58.19.11.53.79.72.68.27-.17.8-.35.92-.65.17-.41.43-.48.82-.69.19-.1-.04-.78-.08-.98.11.29.22.57.33.86.3-.64.55-1.29.79-1.95-.07.65-.13,1.31-.19,1.96.97.01.81-.28,1.55-.83.33-.25.65-.16.74-.59.07-.34.14-.68.22-1.02.44.32,1.07.59,1.09,1.22.01.46-1.06.72-1.42.91-.66.35-.22.72-.65,1.1-.32.29-.97-.07-1.37.32-.17.17-.38-.04-.59.12-.27.21-.09.58-.53.71-.19.06-.41.03-.59.1-.19.08-.2.42-.44.42-1.09-.01-1.63-.72-2.53-1.31-.22.58-.11,1.03-.28,1.58-.14.44-.29.95-.16,1.41.12.42.37,1.28,1.07,1.03.52-.18.44-1.06.44-1.45.59.91,1.31,1.82,2.45,2.08.05-.44.14-.84.02-1.28.37,0,1.17.16,1.01-.49-.12-.51-.2-1.01-.48-1.47.61.54,1.12.8,1.86,1.13-.52.69.23.57.14.94-.08.34-.45,1.03-.4,1.33.17,1.08-.55,1.62-.57,2.58-.01.91.64,1.76.56,2.75-.01.16-.43.32-.3.48.17.22.33.44.5.66.19.25.7.37.98.5-.79.06-1.82-.22-1.96.65-.03.21,1,.34,1.21.4.3.07.28.57.04.57-1.46-.02-.44.29-.37,1.12.04.5.71,1.17.95,1.71-.68-.51-1.35-1.02-2.02-1.55-.37-.29-.64-.34-1.11-.44-.2-.04-.08-.84-.08-1.04-.18.06-.42,0-.6.08.01-1.2-.18-2.05-1.42-2.58-.71-.3-.69.24-.67-.77,0-.47-.36-.73-.58-1.13-.46-.82-.55-1.83-1.16-2.53-1.05-1.22-1.44,1.31-1.56,1.99-.52-.88-.58-1.84-.56-2.82-1.37.68-1.06,2.36-.92,3.6.1.94,1.89,2.63,2.45,3.37,1.77,2.31,3.06,5.1,4.5,7.63,1.62,2.84,2.57,5.78,3.54,8.9.23.74.39,1.49.56,2.25.23,1.06.35,1.09,1.29,1.67,1.11.68,3.27-.77,4.03-1.51.98-.95,2.14-2.05,3.6-2.03.79,0,1.57,0,2.36.05,1.2.07,1.24-.08,1.42,1.1-.29-.03-1.72-.29-1.91.03-.33.55-.77,1.05-.5,1.73.35.89.9.95,1.71.96.87.01.68-.59,1.26.36-1.8.29,1.7,1.65,2.11,1.4,0,0,0,0,0,0-.01,0-.07,0-.07,0,.02,0,.05,0,.07,0,0,0,0,0,0,0,0,0,0,0,0,0,.54.03,1.09.07,1.63.1-.47.29-.78.6-1.33.54-.5-.05-1-.15-1.5-.15-.81,0-.83-.03-1.31.61-.37.48-.62.45-1.25.47-1.01.03-1.45.54-2.14,1.28-.65.69-1.7,1.28-1.36,2.23.1.28.67,2.92.27,2.51-.63-.65-.91-.88-1.12-1.73-.13-.51-.34-.87-.6-1.33-.25-.45-.77-.72-1.14-1.08-.46-.44-.74-1.05-1.17-1.53-.58-.65-1.54-1.94-2.36-2.01.84,3.33,2.25,6.49,3.81,9.55.67,1.32,1.46,2.58,2.19,3.87.28.5.2.61.75.45.38-.11.85-.18,1.21-.37.62-.32,1.19-.98,1.72-1.43-.2.4-.41.79-.61,1.19.6.06,1.19.12,1.79.18.4.04.65.81.84,1.13-.28-.16-1.05,1.04-1.34,1.42-.33.42-.6.22-1.14.14-.46-.06-1.07-.69-1.36-.43-.47.41-.94.82-1.41,1.23-.19.17-.3,1.33-.25,1.58.12.53.78,1.2,1.07,1.66.78,1.2.96,2.12,1.24,3.54.22,1.09.08,2.25.34,3.33.31,1.29.64,2.55,1.03,3.81.22.7.33,1.36.71,1.99.51.86.54.85,1.53.91.85.05.73-.2,1.36-.65.45-.32,1.09-.5,1.59-.74-.37.57-.76,1.12-1.17,1.66-.45.6-.7.62-1.48.61-1.55-.02-2.6.05-3.63,1.3-.52.64-.65,1.24-.83,2.06-.16.73.48,1.49.83,2.1.39.66-.01,3.02-.02,3.8.45-.44.53-.56.65-1.17.04-.23.08-1.14.31-1.25.88-.39,1.53-.41,2.5-.45,0,.43.06.75-.18,1.11-.27.39.03.62.24,1.03-.23.1-.58.17-.77.33-.18.15-.19.51-.41.63-.53.28-.98.46-1.36.92-.53.64-.82.91-.83,1.78,0,.72.23,1.35.67.33.3-.69,1.02-1.53,1.9-1.09.52.26.67.86.54,1.33-.32,1.12-2.08,1-1.1,2.42-1.28-.34-2.79-.58-3.6-1.68-.19-.26-1.53.3-1.84.42-.75.28-.17.72-.09,1.39.19,1.54.55,3,.48,4.55-.08,1.73-.31,2.97-1.13,4.52-.35.65-.64,1.1-1.13,1.65-.62.7-.6.78-.58,1.72.04,1.64-.07,3.25-.18,4.89-.17,2.62-.71,5.26-.96,7.88-.8,1.14-1.6,2.29-2.41,3.43-.71,1-1.94,1.85-2.88,2.66-1.04.89-1.72,2.09-2.62,3.12-.69.79-2.79.52-3.74.38.01,0,.13,0,.13,0-.24-.36-3.43-.78-3.29.04-.75.22-1.87.43-2.49.92-.44.34-.88.69-1.32,1.03-.26.21-1.41.84-1.6,1.24.03,0,.06,0,.08,0,0,0-.1.06-.1.06,0-.02.01-.04.02-.06-.35,0-1.17-.08-1.33.12-.34.42-.65.91-1.06,1.26-.43.36-.87.7-1.27,1.09-.37.36-.99-.24-1.19-.02-1.47,1.64-3.21,2.95-4.86,4.4-.64.56-.57,2.37-.58,3.14-.01,1.14-.1,2.32,0,3.48.15,1.86,1.66,3.7,2.8,5.11.54.66,1,1.47,1.75,1.88.7.39,1.41.74,2.14,1.08,1.45.69,2.76,1.32,4.33,1.65,1.07.23,2.11.13,3.19.51.66.23,1.37.36,2.06.52,1.47.35,2.37,1.82,3.25,2.87.48.57,1.12,1.06,1.54,1.68.36.53.72,1.37,1.24,1.75,1.34.98,2.67,1.97,4.01,2.94.56.4.88,1.25,1.47,1.58.6.33,1.67.32,2.34.45.63.12,3.98,1.35,3.26,1.92.63-.1,1.25-.24,1.89-.23,1.74.02,3.28.15,4.84.95,1.22.63,2.33,2.17,3.31,3.17,1.12,1.15,2.25,1.96,3.16,3.31.81,1.22,1.46,2.48,2.03,3.82.63,1.48.98,2.97,1.44,4.51.43,1.43.21,2.87.47,4.33.32,1.82.21,3.13-.02,4.98-.08.67-.38,1.52-.27,2.18.09.51-.02.8.49.92.46.11,1.23.24.84.88-1.22-.89-1.45.54-1.67,1.55-.26,1.2.05,2.95-.57,3.97-1.22,2.02-1.75,4.31-2.83,6.4-.46.89-.67,1.92-1.17,2.77-.56.97-1.64,1.5-2.45,2.25-1.52,1.4-2,3.46-2.34,5.46,0,0,.03-.08.04-.07.17.18-.27,1.49-.34,1.66-.17.44-.52.74-1,.55-.6-.23-1.17.09-1.67.58-.79.77-.66,1.14-.05,2,.24.34.08.81.04,1.22-.02.19-.68.21-.86.24.06-.49.11-.96.1-1.45-.47.4-.64,1.06-1.11,1.4-.22.16-.86.28-.98.5-.39.68-.78,1.35-1.21,2-.77,1.18-2.6,1.28-3.32,2.48-.85,1.42-.44,3.42.69,4.64.58.63,1.04.77,1.87.71.46-.03.56.15.69-.33.11-.4.09-.77.1-1.18.02-1.73.71-2.61,2.25-3.35.35-.17.5-.43.73-.74.12-.15.68.32.84.41.68.42.91.76.9,1.5,0,.45-.01.91-.02,1.36,0,.59-.61,1.01-.79,1.53-.2.57.32,1.8.7,2.19.35.35.4.48.52.97.06.26.73.35.97.43.28.1,1.62-.85,1.96-1.02.42-.2.69-.76,1.07-1.05.34-.26.95-.1,1.34-.07.86.06,1.29.15,2.04.56,1.05.57,2.73,1.71,2.8,3.04.09,1.85-.15,3.68.41,5.46.32,1.02,3.28,1.68,4,.98.69-.67,1.11-1.1,2.07-1.26.62-.11,1.4.53,1.93.08,1.08-.9,1.58-2.11,2.81-2.78.74-.4,1.33-.7,2.14-.9.8-.2.85-.52,1.38-1.18.41-.5.94-1.15,1.57-1.35.67-.22,1.36-.3,1.97-.67.63-.38,1.26-.99,1.91-1.3.76-.37,1.51-.54,1.86-1.33.18-.41.2-1.38.46-1.66.2-.22.73-.13.9-.39.13-.22.32-.74.57-.81.34-.1.68-.12.92-.39.6-.7.97-1.21,1.26-2.09.32-.97,1.11-.98,1.75-1.7.42-.47.79-1.6,1.39-1.65.96-.08.98-1.09,1.16-1.94.21-1,.9-1.64,1.36-2.55.41-.79.8-1.54,1.31-2.27.21-.3.04-.81.24-1.1.14-.19.69-.24.69-.5,0-.76.26-1.22.74-1.84.98-1.24,1.94-1.96,2.07-3.64.08-1.12.25-1.29.95-2.17.48-.59.88-1.18,1.26-1.83.35-.6.92-1.12,1.17-1.77.42-1.08.46-1.15,1.53-1.58,1.27-.51,1.29-2.74,2.72-3.2.79-.25.87-1.06,1.09-1.82.22-.76.93-1.11,1.54-1.6.51-.41,1.15-.96,1.78-1.13.62-.17,1.53.24,1.98-.27.53-.6.39-1.38.23-2.13-.16-.73.16-1.14.37-1.84.27-.85.53-1.64.9-2.45.27-.6.26-1.38.58-1.93.42-.74.63-2.21,1.18-2.78.48-.5,1.5-.7,2.13-.92.59-.2,1.34-.5,1.73-.98.54-.67.73-1.24,1.16-1.93.2-.33.72-.57.86-.93.11-.29,0-.82.01-1.13,0-.6.65-1.19.71-1.85.06-.72.04-1.42.39-2.09.35-.68.71-1.34.94-2.08.14-.44.35-1.97.97-2.05.86-.11.78-.9,1.21-1.59.4-.65,1.06-.89,1.27-1.6.13-.45-.03-.95.08-1.41.1-.42.27-.79.34-1.22.25-1.41.7-3.26,1.77-4.31.53-.51,1.14-1.34.44-1.92-.41-.34-1.59-.11-2.16-.2-1-.15-1.2-.3-1.86-1.08-.41-.49-.47-1.19-.73-1.78-.56-1.28-.49-2.89-.57-4.26-.23.05-.46.11-.68.16-.02-1.39-.12-2.86.33-4.15.38-1.08,1.46-2.43,2.37-3.12.48-.37,1.23-.92,1.46-1.48.26-.63.32-1.4.61-1.99.28-.57.52-1.52,1.06-1.87.82-.54,1.31-.6,2.3-.72,1.2-.15,2.6-1.49,3.71-2.08,1.23-.66,2.75-.89,3.73-1.97,1.01-1.13,3-.92,4.46-.98,1.43-.05,2.89.03,4.32.04,1.75.02,3.43.05,5.16.36.98.17,1.86.53,2.86.64.4.05,1.6.02,1.54.42-.13.88-.26,1.72-.51,2.57-.19.64-.73,1.37-.8,2-.15,1.29.61,3.14.97,4.37,1.26-.93,2.17-2.17,2.4-3.73.08-.58.94-1.13,1.41-1.46.77-.55,1.1-.67,1.31-1.57-1-.13-1.67-.29-2.6-.71-.86-.39-.82-1.02-.86-1.85-.08-1.65.27-3.36.49-4.99.1-.78.18-1.56.27-2.34.04-.4.16-.8.24-1.2.06-.31.39-.37.47-.63.11-.33-.11-.77.04-1.08.19-.39.37-.78.56-1.16.26-.55,1.13-1.07,1.58-1.49-.6.04-1.44.3-1.61-.53-.12-.55.35-1.43.6-1.91.38-.74.6-1.18,1.57-1.13.46.02,1.4.36,1.68.73.59.78.97.64,1.48-.16.64-1,1.16-1,2.06-1.61,1.06-.72,1.64-2.45,2.77-3,1.13-.55,2.58-1.45,2.78-2.75.12-.79-.06-2.23.53-2.81.51-.49,1.04-.94,1.58-1.39.16-.14.06-.79.06-1,0-.37-.2-.25-.55-.29-.89-.08-.75-.93.01-1.15.56-.16.44-1.09.5-1.63.1-.93.3-1.01,1.03-1.6-.74-.41-.97-.59-1.4-1.32-.33-.57.51-.97.57-1.52.05-.51.45-1.06.63-1.56.32-.87-.59-.44-.59-1.19,0-.48.01-.95.02-1.43,0-.48.23-.35.69-.4.2-.02,1.42-1.06,1.35-1.25-.39-1.13-1.84-3.64-.26-4.34.6-.26,1.46-.91,1.47-1.63,0-.28-.11-.87.07-1.1.27-.35.48-.5.44-.94-.04-.49-.17-1.96.19-2.27.59-.5,1.17-.95,1.65-1.56.94-1.2,1.71-2.49,2.58-3.74.31-.44,1.46-2.03,1.3-2.62Zm-118.92,156.04c-.88,1.01-3.03,3.66-4.67,2.84-.87-.44-.83-1.44-.43-2.32.53-1.18,1.37-1.08,2.34-1.59,1.63-.87,3.1-2.67,4.45-3.89-.63,1.63-.56,3.69-1.68,4.96Zm28.67-110.87c-.04,3.57-4.21,2.36-6.14,3.77-2.21,1.62-3.53,4.77-6.73,3.82.68-1.32,1.06-2.18,1.24-3.65.12-.99,1.06-1.61,1.07-2.85.03-2.22-1.88-.36-2.04-1.4-.18-1.15.2-2.27,1.48-2.63-.65-2.7,4.58-2.11,6.06-1.54,1.45.56,2.35,1.06,3.93,1.24,1.56.18,1.14,2.19,1.12,3.24Zm7.88-30.69l-.42,1.21-.82.6-1.21-.62.02-1.82.43-2.02,1.02-.6,1,.82.39,1.42-.42,1.01Zm21.1,32.7l-1.62-.02-.42.81-1.22.59-1.01-.42.42-1.41,1.03-1.41,1.42-.19,2.23.43.8,1.02-1.63.59Z"/></g><g id="south"><path class="cls-1" d="m240.57,316.15l1.59.79.52-.44-.76-.46-1.08-.59-1.41-.02,1.14.72Z"/><path class="cls-1" d="m262.2,301.17l.97-.69,1.03-.63s1.1-.95,1.1-1.14c0-.19.79-1.59.79-1.59l.05,1.22s.51.13.51-.06c0-.19.08-1.02.08-1.02,0,0,.26-.57.52-.7.26-.12.71-.44.71-.44,0,0,.01-.9.01-1.09,0-.19,0-.64,0-.64,0,0-.26-.07-.25-.32,0-.26-.12-.45.2-.7.32-.25.33-.51.33-.51,0,0,.01-1.22.02-1.41,0-.19.27-1.34.27-1.34l-.12-.96-.53,1.21-.2.89-.4,1.08-.83.12-.46.57s-.39.51,0,.45c.38-.06,1.03-.18,1.03-.18l-.2.57-.52.63-.25-.39-.45.31-.52.44.46-.76s-.44-.52-.38-.71.33-.64.33-.64c0,0,.46-.57.39-.83-.06-.26-.82-1.29-.82-1.29,0,0,.18,1.03-.02,1.28-.19.25-.52.25-.58.44s-.78.7-.78.7l-.14.57v.7s-.46.38-.46.38v1.02s.3.84.3.84h.58s.13-.5.13-.5c0,0,.12.32.12.58,0,.26-.21,1.15-.21,1.15l-.63-.71s-.33.51-.58,0c-.25-.52-.31-.71-.31-.71l-.39.57s-.33.7-.33.96c0,.26.25.71.25.9,0,.19.38.26.38.45,0,.19-.07.77-.07.77l-.52.95.38.2Z"/><path class="cls-1" d="m276.31,315.05l.71-.38.14-.7s.13-.51-.19-.52c-.32,0-.9.57-.9.57l-.52.63.76.39Z"/><path class="cls-1" d="m41.63,544.19h.77s.42.44.42.44l-.6.5-.51.16-.51-.35.44-.76Z"/><path class="cls-1" d="m80.86,568.24c-.71-.12-1.17-.17-1.87-.04-.33.06-.53,1.23-.59,1.59-.11.72-.3,1.45-.2,2.18.11.8,1.08,1.67,1.47,2.41.67,1.26.8,2.72.38,4.07-.23.74-.69.75-1.3,1.19-.46.33-1.08-.42-1.35-.85-.01,1.01.25,1.82.84,2.66.33.48,1.18,1.38.58,1.73-.39.23-1.03.07-1.48.13-1.3.18-1.69.85-2.23,1.97-.2.42.24.68.4,1.08.21.53.24,1.11.19,1.67-.06.63-.26.8-.68,1.3-.26.31-.9.42-1.05.76-.13.29-.25.58-.37.87-.08.18-.45-.11-.63.15-.54.8-.53,1.64-.54,2.55,0,.54,2.61.98,2.98.81.26-.12.86-1.37.65-1.58-.38-.39-1.1-.79-.78-1.41.47.54.49.89,1.12.51.71-.43.21-.76.43-1.34.19-.5,1.28-1,1.61-1.44.39-.53,1.01-.46,1.66-.56-.02.19.11.41.08.6.95-.31,4.2.85,4.74-.38.25-.57.74-.94.96-1.52.29-.75,1.57-.81,2.28-1.08.3-.12,1.97-.36,2.06-.52.25-.42,1.79-.1,2.31-.32.69-.3.51-.7.52-1.4,0-.16,1.39-.07,1.71-.16-.34-.2-.94-.4-1.19-.7-.61-.73-.06-.6.69-.59-.52-.97,1.22-1.09.23-2.1-.49-.5-1.13-1.41-1.88-1.42-.87-.01-1.07.7-1.91.97-.12.04-.8-.14-.85-.24-.24-.59,1.04-.71,1.29-.84-.59-.27-1.06-.41-1.7-.54-.65-.13-.97-.8-1.53-.95-.66-.17-1.18.54-1.6.92-.17.15-.58,1.04-.7.99-.35-.14-.7-.28-1.04-.42.48-.54,1.28-.98,1.51-1.64.3-.86.24-1.59.67-2.43.6.77.86,1.57,1.94,1.56-.1-.62,2.5-.31,2.93-.31.38,0,.02-1.76-.17-1.71-1.14.27-1.22-.24-1.96-.92-.69-.64-1.39-1.26-2.11-1.87-.44-.37-.48-.48-.7-1.11-.09-.26.09-.99,0-1.08-.57-.64-1.14-1.23-1.76-1.81-.35-.33-1.7-.58-2.2-.81-.96-.45-1.44.88-1.87,1.41"/><path class="cls-1" d="m283.45,307.71c-.35.53-.73,1.2-1.31,1.49-.2.1-1.82.49-1.92.64-.6.99,1.76,1.15,2.17.35.02,1.55-1.18,1.36-2.26,1.93-.69.36-.99,1.08-1.69,1.42-.78.38.25,1.3-.66,1.59-.77.24-1.01.45-1.86.5-1.05.06-.46-.38-1.37-.65-.81-.24-2.12,1.75-2.41.4-.26.32-1,1.33-1.43,1.39-.37.05-1.7-.58-2.13-.69-.39-.1-1.14,1.12-1.71.71-.68-.5.93-1.05,1.24-1.1.73-.12,1.1-.56,1.64-.97.27-.21,1.31.5,1.41-.14.12-.76.74-.21,1.25-.4.66-.25.76-1.24,1.54-.3,0-.22.18-.42.2-.64.8.63.78-.36,1.29-.82.24.28.58.49.95.59.08-.61.45-2.07-.3-2.39-1.35-.58-.74-1.08-.35-2.1.11.35.72,2.81,1.51,1.84.22-.27-.04-.26-.25-.52-.47-.61.22-.22.32-.28.13-.07.61.05.76.06.32.03.09-.41.21-.63.1-.17-.17-.37-.02-.61.18-.29.42-.54.65-.8.4-.47.24-1.16.5-1.52.23-.32,1.22-.64,1.23-.88.06-.79.21-1.58.21-2.37-.98.87-.29,1.92-1.4,2.53-.4.22-1,.35-1.33.63-.33.29-.44,1.19-.85,1.1-.31-.07-1.68-.28-1.52-.94.14-.6,1.13-.3,1.07-.79-.15-1.19,1.47-1.18.77-2.58-.3.52-.84,1.92-1.75,1.52-.92-.4.18-1.89-1.07-1.68.58.61.06,1.71-.03,2.5-.39-.51-.69-1.15-1.33-1.36-.05.81-.1,1.62-.16,2.43-.4-.8-1.02-1.52-.8-2.41.2-.79.3-1.58.35-2.4-1.67.29-1.07,1.34-1.25,2.74-1.67-.11-.99-.4-1.32-1.87,0,.67-.44.84-1.01,1.02-.53.18-.38.6-.62,1.01-.17.28-.99.82-.52,1.18.31.24.85.71,1.24.55.56-.22,1.37-1.54,2.09-.87,1.28,1.21-1.04,1.52-1.42,1.91.06-.06,1.27,1.97,1.49,2.26-.5-.35-1.15-1.03-1.58-.27-.18.31-.24,1.22-.72,1.06-.23-.08-.55.02-.77.13.12-.93.09-1.91.8-2.61-.56.13-1.8.25-1.8.99,0,.29.08.46-.16.62-.42.27-.2.63-.24.67-.56.43-1.52.06-1.61.88-.03.33.56,1.03.56,1.54,0,.51,2.42.03,2.88-.02.67-.07.74.43,1.15-.48.21-.45,1.04-.52,1.48-.45-.12.2-.08.5-.2.7.89.03,1.75-.09,2.63-.23-1.15,1.12-2.64,1.39-4.25,1.7-.58.12-5.3.43-3.28,1.38-.69.47-2.32.5-2.66,1.08.49.17.91.51,1.18.95-1.48-.02-2.87-.39-4.35-.48.88-.18,1.48-.59,2.23-1.08.22-.14,1-.15,1.32-.27.32-.13.41-.88.51-1.19.19-.57.6-1.96,0-2.45-.56-.46-2.07.04-2.31.65,0-.26-.15-1.54.13-1.63.49-.15,1.25.29,1.43-.23.25-.72.94.25.95-.75,0-.14.97-.37,1.2-.76-1.05-.6-.21-1.03.54-1.02.54,0,.55-.94,1.54-.84-.97-.29-3.28-1.01-4.11-.21-.98.96-.94,2.39-2.66,2.26.94-.92.96-1.45.97-2.75,0-.34.2-.42.45-.66.36-.35-.24-.32-.09-.58.28-.51.44-.79,1.12-.93.18,2.23,2.59-.21,3.59-.72-.31-.2-.62-.41-.93-.61.74-.44,2.63-.24,1.64-1.52.65.18.97-.12.69-.76.78-.16,1.58,1.67,1.5-.11-.02-.48-.7-1.37-1.33-1.02-.71.39-2.24.98-2.33,1.92-.13,1.31-.85,1.34-2.05,1.47.06-.71.12-1.42.11-2.13-.75.46-.86,1.73-1.43,2.01-.89.43-1.81.67-2.6,1.26-1.04.76-1.52.44-1.7,1.84-.17,1.33,1.16.42,1.58-.03,1.16.86-.83,1.35-1.35,1.66-.32.19-1.69,1.86-1.78,1.01-.06-.62.1-2.05-.8-2.2-.55-.09-2.46,1.73-2.71,2.2,0,.03-.02.05-.03.08,0-.02.01-.05.03-.08.01-.03.02-.07.04-.1-.63.61-.66,1.41-1.22,1.95-.56.54-2.45,1.74-1.96-.02-.96.78-2.24,1.43-3.1,2.27-.69.68-.59,1.45-1.14,2.05-1.27,1.41-3.27,1.58-3.37,3.69-1.72-.31-3.07-1.44-4.41-2.53.43-.19.86-.39,1.29-.58-.87-1.26-1.69-2.51-2.48-3.82-.73-1.22-.87-2.85-1.11-4.24-.29-1.61-.5-2.68.41-4.07.58-.88.44-1.61.45-2.59.01-1.02.45-2.01.46-3.07-.7.22-1.33.38-2.05.49.51-.98.53-1.53.54-2.64,0-.91-1.09-1.36-1.87-.81-1.58,1.1-2.68,1.63-4.63,1.02-1.63-.51-2.64-2.14-3.79-3.32-.19-.19-1.06-.63-1.1-.87-.06-.29.52-.62.4-.94-.32-.91-.57-1.7-.7-2.65,1.08.33.87-2.26,1.15-3.06.52-1.48,1.19-2.4,2.76-2.44,1.55-.04,2.85.12,4.35.46.88.2,2.8,1.75,3.4,1.17,1.22-1.19-1.89-1.97-2.53-2.25-1.34-.59-2.29-.94-3.84-.66-2.06.37-7.5-.47-8.05,2.48.23,0,1.13-.13,1.28.02.07.07.05,1.29-.02,1.36-.81.95-1.96-.64-1.98,1,0,.85-.13,1.86-1.05,2.08-1.1.26-.8-1.26-.74-2.02-1.66,1.48-3.57,2.39-5.24,3.87-.77.69-1.9,1.09-2.6,1.75-.3.28-.51,1.04-.85,1.41-.32.36-1.34.28-1.8.34-.55.07-1.17,1.91-1.54,2.36-.67.81-1.64,1.7-1.97,2.73-.78,2.47-.69,4.63-.48,7.19.18,2.29.05,4.64.07,6.93,0,.92.38,1.87.31,2.78-.08,1.09-.73,2.12-.83,3.22-.08.84.14,2.62-.5,3.21-1.07,1-1.81,1.82-2.62,3.04-1.23,1.87-1.76,4.15-2.9,6.07-1.21,2.03-2.76,3.69-4.54,5.21-.73.63-1.5,1.22-2.25,1.83-.99.82-2,.21-3.21.43-1.2.22-1.76.57-3.02.51-1.19-.06-1.97.19-1.77,1.64.16,1.2.31,2.17.13,3.37-.16,1.09-1.04,1.92-1.19,2.97-.33,2.37-.31,4.82-1.43,6.92-1.12,2.1-.23,4.37-.58,6.66-.37,2.36-1.59,3.98-2.27,6.22-.27.89-1.41,1.43-1.42,2.09-.01,1.22-.67,2.12-.94,3.29-.22.96-.45,1.89-.8,2.81-.17.46-.3,1.22-.64,1.58-.41.44-.88.81-1.1,1.37-.44,1.12-.91,1.97-1.61,2.95-.61.87-1.49,1.45-2.09,2.29-.71.99-1.43,1.88-2.25,2.78-.68.75-1.15,2.14-1.77,3-.64.9-.79,1.85-1.43,2.56-.61.68-1.52,1.74-2.3,2.17-.94.51-2.22.93-2.95,1.74-.7.78-1.34,2.04-2.33,2.38-1.22.42-2.23.72-3.51.85-.94.09-1.75,1.57-2.36,2.12-.71.63-1.82,1.47-2.67,1.85-.37.16-1.22.07-1.43.43-.34.57-.65,1.02-1.11,1.51-.65.7-.53,1.88-1.19,2.71-.28.35-.72.63-1.06.94-.27.25-.55.49-.82.74-.22.19.03.52-.11.69-.58.7-1.66,1.53-2.44,2.01-.71.44-1.27,2.03-1.79,2.73-.85,1.14-1.38,1.39-2.69,1.97-.42.19-1.05.13-1.51.18-.47.05-1.11.86-1.46,1.16-1.92,1.64-1.9,4.01-3.17,6.02-.48.76-.48.71-1.39.7-.4,0-.65.79-.87,1.1-.2.28-.59.93-.94.93-.79,0-1.25-.14-1.82.42-.93.91-1.65.99-2.87.97-1.04-.01-2.05.99-2.86,1.5-1.63,1.03-2.92,2.39-4.81,3.3-.64.31-1.38,1.77-1.88,2.36-.67.79-1.21,1.73-1.97,2.42-.64.59-1.84,1.64-1.17,2.71.7,1.1,1.79,2.37-.2,1.91-1.58-.36-2.21-2.15-3.73-.76-1.07.98-1.67,2.27-2.57,3.42-.71.91-2.29.85-3.4,1.28-1.41.54-2.17-.04-2.67-1.38-1.89,1.3-3.33,2.25-5.66,2.31-.37,0-.74,0-1.11,0-.95-.01-.55,0-1.03.67-.13.18.09.41-.1.61-.24.25-.48.49-.72.74-.37.38-.35.93-.27,1.4.04.23-1.32,1.6-1.54,2.07-.45.96-1.22,1.54-2.03,2.2-.74.6-1.4,1.21-1.94,2-.62.9-1.53,1.13-2.54,1.51.37.99,2.17.5,2.15,1.84-.02,1.58-1.12,1.42-2.41,1.4-1.56-.02-.41,1.28-1.41,2-.28.21-1.41.65-1.5.87-.2.48-.39,1.08-.73,1.48-.76.9-1.36,1.22-1.59,2.53-.05.26-.05.62-.15.86-.06.14-.55.11-.6.25-.17.46-.02,1.25-.02,1.76-.02,1.57-.34,2.3,1.03,3.21.89.59,2.39,1.73,1.71,3-.48-1.49-.5-1.52-1.97-2.03-1.52-.53-1.45-.64-1.82-2.2-.64.43-.8,1.15-1.3,1.52-.18.13-.57-.08-.79.06-.3.19-.65.37-.93.6-.19.16-1.38,1.29-1.38,1.52,0,.68,1.13.69.58,1.54-.57-.43-1.01-1.11-1.66-.72-.85.51-.82.8-1.06,1.77-.26,1.06,2.7,2.06,2.06,3.63-.42-.47-1.31-1.72-2-1.73-1.11-.01-2.31.24-1.33,1.61.38.52,2.03,1.16.95,2-1.01.79-.64,1.37-.5,2.62-.9-.74-.84-.76-.68-1.92.16-1.15.5-1.24-.59-2.14-1.04-.85-3.34.82-3.65,1.94-.26.91.81,3.57,1.27,4.26.24.36,1.55,1.79,1.47,2.17-.12.56-1.36.89-1.72,1.43.42-1.26.43-1.99-1.08-2.23,1.16-1.53-.01-3.24-1.14-4.28-.49.68-.54.64-1.2.9-1.28.52-.28.79-1,1.49-.2.2-.49.41-.66.64-.19.28.28.56-.1.79-.78.47-.31.97-1.17,1.43-1.42.77-1.08,2.1.49,2.12.65,0,.95.78,1.66.79.85,0,1.3-.04,1.96.54-1.74.48-4.21-.2-5.83-.87-.58-.24-.41,2.17-.05,2.54,1.04,1.06,1.71.72,3.12.95-.36.39-1.52.32-1.59.58-.19.71.05,1.12.71,1.46-.6,1.32-2.81-2.67-3.29-3.37-.42.37-2.06,1.75-.62,2.13,1.05.28.96,2.4,2.27,2.85-1.38.52-2.75-3.37-3.9-2.27-.67.65-.02,3.86.25,4.6.26.73.53,1.38.95,2.03.61.94,1.08.52,2.15.31.59-.12,1.25-1.09,1.62-.55.41.61,1.24,1.28.81,2.05-.88-.82-1.48-1.13-2.72-.75-.6.18-1.1.28-1.59.68-.21.17-.37,1.17-.12,1.26,2.45.85,3.15,2.71,4.18,4.96-1.11.1-2.31-2.65-3.13-3.41-1.18-1.1-2.55-1.82-3.71-2.91.42,0,1.68.25,1.73-.2.09-.77-.19-1.13-.55-1.82-.8-1.54-.87-2.61-.85-4.37-1.34-.13-1.24,1.52-1.91,2.49-.62.9-.51.56-.19,1.32.18.43,1.19,1.11,1.18,1.55-.02.51-.7.84-1.09.77-.98-.18-1.05-.38-1.48.51-.58,1.22-1.14,2.45-1.68,3.7.83.28,1.89,1.01,2.56.12.2.61,1.56,2.93,2.43,1.73.37-.5.57-1.07,1.2-1.14.62-.06,1.31-.37,1.39.49-.37,0-1.21-.19-1.46.09-.28.32-.85,1.27-1.2,1.42-1.14.47-2.09-.86-2.97-1.15-3.02-.98-3.14,2.98-2.79,4.83-1.42-.32-1.05,2.07-1.06,2.98.49-.04,1.41.07,1.81-.22.8-.58,1.42-1.19,2.48-1.17.68,0,2.09-1.09,2.65-1.47.9-.62,1.73-1.29,2.52-2.05-.02,1.94-1.51,2.16-3.03,3.12.91.04,1.82.08,2.73.12-.94.2-1.78.41-2.68.75-.77.29-1.47,0-2.19.44-.86.51-1.53.93-2.24,1.62-.52.51.1,2.02.14,2.65,1.1-.22,2.35-.43,3.26-1.16.5-.4.3-.71.95-.96.77-.29,1.54-.58,2.31-.88-.32,1.43-.98,1.63-2.3,2.16-1.12.45-3.46.95-3.99,2.09-.88,1.93,1.8.71,2.35.75,1.41.11,2.91.07,4.29.3-1.49.33-2.56.78-2.68,2.53-.72-.2-2.19-.75-2.88-.27-1.02.71-1.69.6-2.79,1.01-.52.19-.92.23-1.2.7-.38.62-.36,1.05-1.05.72-1.06-.5-2.06-.33-3.16-.03-1.13.31-1.36,1.91-1.48,2.85-.22,1.71.28,2,.87,3.45.34.85,0,2.42.38,3.04.56.94,1.89-.37,2.66-.91-.33,1.27.91.8,1.07-.14.14-.86.91-1.71,1.32-2.55.31-.65.36-1.4.66-2.05.42-.9.59-.91,1.55-1.35-.82,1.14-1.13,2.67-1.59,3.99,1.53.54,2.4.13,3.59-.72.62,1.19-3.19,1.88-4,2.43-1.03.7-.62,1.23-.75,2.37-.1.87-.44,1.73-.71,2.55.48-.33.97-.66,1.45-.99.44-.3.88.27,1.2.08.28-.16.44-1.09.86-1.39.42-.31.77-.71,1.14-1.07.58-.57.77-.52.78-1.42,0-.51.29-.85.74-.98,1.81-.53,2.32-1.71,3.74-2.91-.38.8-.69,1.85-1.23,2.55-.32.42-.28.66-.81.72-.34.04-1.47-.03-1.59.45-.18.69-.44.78-.1,1.41.26.5.52.99-.2.98.07,0-1.46,1.94-1.84,2.26-.71.58-.71,1.81-1.45,2.01-1.31.36-.22,1.33.25,2.05.67,1.03.99.82,2.08.84,1.06.01,1.76.43,2.77.63-.3-1.24,2.62-.74,3.41-.73,1.11.01,2.33.2,3.42.38,1.61.27,3.05.46,4.69.48.89.01,1.18.11,1.83-.45.54-.46,1.57-.47,2.25-.42,1.99.14,1.28-.65,1.44-2.1.17-1.54,1.59-2.14,2.88-2.6.99-.35,2.64.55,3.6.9.66.24.64.92,1.33.48.61-.4.88-1.07,1.26-1.69.34.66-.75,2.63-.46,2.86.84.65,1.65,1.24,2.5,1.85,1.65,1.2-.3,1.54-.45,2.55-.14.87.67,1.09,1.25,1.55.35.28,1.95,1.78,2.49,1.59.29-.11.32-1.01.61-1.1.37-.12,1.05.84,1.44.79.89-.12,1.16-1.27,2.35-1.25.95.01,1.84.65,2.69,1.06-.16-1.53.43-2.69,2.22-2.17,1.92.56,2.77,1.72,3.83,3.35.44.67,1.7,4.3,2.41,2.04.07-.23-.03-.51.05-.73.12-.32.5-.18.54-.6.09-.91.18-1.82.27-2.72.32,1.18.49,3.43,1.74,4.03-.77.75-1.4,1.32-2.33,1.85,1.14.44,3.84,1.91,4.52.06.19-.52-.37-1.88.34-1.87.95.01,1.89.04,2.84.12-.44.79-1.55,2.9.35,2.91,1.11,0,1.66-.21,2.58-.83.62-.41.48-1.6.82-1.86.32-.24,1.28-.14,1.72-.22,1.31-.24.74,1.32.58,2.05-.25,1.19,1.89,1.09,2.44,2.15.39.74.55,1.28.71,2.1.07.38,1.6.21,1.96.19,1.15-.06,2.89.48,3.9.14.8-.27,3.6-.4,3.39-1.44-.12-.57-.24-1.31.52-1.58.52-.18.37,1.91.34,2.18.55,1.08,1.97-.15,2.48-.68,1.24-1.29,1.29-.36,2.83-.45.94-.06,2.21-.89,3.04-1.27.46-.21.31-.53.32-1,0-.72.38-.66,1.04-.92-.16-.04-.39-.06-.51-.17.15.13,1.45-.09,1.89-.05.97.09,1.2.31,1.95.95-.13-1.81.86-1.67,2.08-2.62.51-.4.98-.77,1.19-1.38.37-1.06.1-.91-.9-1.35.8-.49,5.86-.26,3.7-2.79-2.06-2.41,1.18-3.22,2.62-4.47.84-.72,1.16-1.57,2.12-2.19.95-.62,1.48-1.44,2.31-2.19,1.71-1.54,4.33-2.93,4.57-5.41.22-2.28.51-4,1.98-5.9.84-1.09,1.34-1.7,2.52-2.39.47-.28.97-.24,1.51-.29.68-.06,1.24-.44,1.85-.73,1.96-.95,4.58-.52,6.45-1.43.25-.12.18-.41.51-.43.23-.02.66.03.86-.06.29-.13.98-.53.91-.85-.12-.51-.6-.77-.71-1.2-.14-.52.2-1.31.36-1.79.09-.25.18-.51.27-.77-.53.47-.95.8-1.59,1.11-.31.15-.67,0-1,.13-.16.06-.19.96-.34,1.22-.93,1.58-2.31,1.9-3.96,2.24.23-1,1.33-.88,1.81-1.6.38-.56-.02-1.23.95-1.18-1.47-.49.67-1.28,1.32-1.53,1.21-.47,1.45-1.31.01-1.33-1.21-.01-1.11-1.16-2.42-.94-.75.12,1.06-1.97,1.07-2,.77-.96.97-1.33,1.14-2.55-1.56.05.34-.88,1.04-1.18.87-.58.89-1.23,1.09-2.17.22-1.06.44-1.12,1.12-1.94.56-.67,1.02-1.47,1.56-2.17.12-.16-.62-.98-.52-1.44.33-1.44,1.73-2.37,1.75-3.67,0-.45-.99-.9-1.18-1.46-.18-.52.02-1.24.11-1.75.28-1.6.91-2.77,1.39-4.31.21-.65.48-1.31.91-1.86.35-.45,1.34-.94,1.4-1.52.21-2.43,3.53-5.01,4.85-7.1.85-4,.77-7.73.1-11.74-.29-1.73.1-3.67.33-5.38.25-1.81,2.08-3.26,2.02-4.95-.03-.8-.57-1.94-.4-2.65.26-1.08.77-1.42,1.44-2.29.6-.78.99-1.86,1.79-2.48.87-.67,1.12-1.74,2.19-2.13,2.07-.75.84-3.97-.2-5.24-.58-.72-3.53-4.1-3.01-4.82.85,1.31,2.67,2.16,3.87,3.11,1.38,1.1,1.82,2.5,2.19,4.13,1.49-1.34,3.42-2.15,5.15-3.16,1.8-1.05,3.45-2.58,5.33-3.42,1.86-.83,3.5-2.62,5.35-3.25,1.33-.45,1.94-.83,3-1.75.74-.65,1.69-.96,2.41-1.65-.68-.64-1.51-1.25-2.1-1.99-.92-1.16-1.35-2.45-2.12-3.68-1.28-2.03-5.11-1.68-5.48-4.09,1.62.86,3.23,1.72,4.85,2.58,1.34.72,3.46,1.84,4.56,2.91.78.77,1.26,1.9,2.01,2.73,1.03,1.12,1.14.69,2.42.13.7-.31,1.75.26,2.21-.72.25-.55.06-2.34-.74-2.23.14-1.39,1.39-2.64,2.1-3.82.86,1.04,1.13-.39,1.97-.32.8.07,1.62,1.9,2.45,2.16.69.22,1.46-.22,2.14-.14,1.06.11,1.37.75,1.86,1.56-2.56.77-6.07.69-7.97,2.55,2.15.03,4.25-.63,6.39-.84.98-.1,1.83-.36,2.75-.74.89-.37,1.36-1.08,2.34-1.44-.76.88-1.56,1.24-1.03,2.33.28.59,1.68.45,2.19,1.23.73,1.12,4,1.73,5.02.87-1.37-.48-1.47-1.88-1.65-3.14-.19-1.29.48-2.22.79-3.44.45.33.57.79.71,1.3.1.36-.35.44-.39.76-.04.38.27.37.12.86-.11.34-.14.52-.14.87-.01,1.03,1.35,3.78,2.64,2.27.5-.58.95-1.16,1.5-1.69.19-.19.68-.18.81-.37.18-.28.07-.79.18-1.11.3-.8,2.12-3.54.04-3.5.58-.81.28-1.86-.66-2.1-.86-.23,0-1.39-1.35-1.6-1.06-.16-1.3.85-1.98-.42-.34-.62-1.77-1.15-1.92-.24-.05.31-.61,2.64-1.07,1.79-.24-.44.44-1.83.2-2.52-.14-.41-1.63-1.21-1.72-.61-.13.86-.17,2.3-1.29,2.41.59-.71.86-1.57.54-2.47-.62.28-1.45.91-2.09,1.04-.94.2-1.63-.16-1.95.96-.19-.31-.39-.63-.59-.95-.06.34-.12.68-.18,1.02-.68-.06-.39-.67-.35-1.23.05-.69.85-.58,1.47-.72.57-.13,2.75-.5,2.97-.86.26-.43-.48-.74-.85-.89-.8-.32-.78-.47-1.09-1.28-.38-1.01-.57-2.11-.81-3.16-.58-2.59-.76-4.76-.4-7.39.14-1.03.06-2.18.48-3.14.71-1.61.48-1.64-1.09-2.32.68,0,1.83.3,2.14-.35.42-.87.97-1.88.28-2.78.71.6,1.53,1.15,2.47.37.39-.32.31-1.22.7-1.53.29-.23,1-.23,1.38-.37.95-.34,2.09-.68,2.92-1.27.33-.24.9-.86,1.32-.85.29,0,1.52.19,1.62-.08.89-2.35,2-3.18,4.42-3.78,1.27-.31,1.16-1.8,1.85-2.79.76-1.08.91-1.43,1.31-2.72.38-1.21.76-1.64,1.73-2.38.43-.33.83-3.08,1.09-3.78.81-2.18,1.72-4.3,2.68-6.42.31-.68.99.07.59-.91-.26-.64-.08-.84.17-1.49.35-.93.4-2.12,1.03-2.9.53-.66,1.71-1.85,2.52-2.17.87-.35,2.05.45,2.98.68.28-.69-.03-.99-.45-1.47-.42-.47-.27-.84-.23-1.47.04-.7.07-.77.55-1.28.38-.42,1.18-.28,1.47-.62.11-.13.1-1.39.13-1.6.09-.61.48-.65,1.01-.91.67-.33.19-.6.61-1.06.39-.43,1.03-.75,1.55-1.01.97-.47.96-1.91,1.82-2.15,1.6-.46.61-1.29.63-2.52.02-1.78,1.12-4.6,2.52-5.78,1.94-1.62,4.02-3.54,5.21-5.77.56-1.04.97-1.59,1.27-2.77.09-.37.6-.89.95-1.02.2-.07,1.69-.87.61-1.08-1.31-.26-1.73-.37-2.64-1.36-1.1-1.2-.96-2.17-1.03-3.75-.03-.59,0-2.26-.5-2.64-.69-.53-1.19-.73-1.57-1.55-.23-.5-.97-.58-1.28-1.04-1.23-1.84-.75-3.34-.32-5.42.14.13.37.18.51.33-.35-1.31,2.69-6.1,3.7-3.86-.46.38-2.1,1.28-1.69,1.84.4.55,1.53-.35,2.01-.72.31-.24.74-.34,1.09-.48.57-.23.35-.81.58-1.13.61-.85,1.68-1.12,1.69-2.28,0-.5.95-1.56,1.36-1.79.63-.35,1.91-.04,1.96-.82.12-1.82.84-3.16.61-4.97Zm-220.35,227c-.73,1.41-1.09,2.01-2.64,1.99.01-.84-.03-1.65-.09-2.48-.04-.6-1.16-1.52-1.57-1.95-.51-.52-1.74-.13-1.73-1,0-.79.81-1.4,1.58-1.39.98.01,1.2.75,2.05,1.25.84.49.51,1.5,1.61,1.74.72.15,1.19,1.06.8,1.83Zm3.3-23.03l-1.16,1.01v1.02s-1.03-.27-1.03-.27l-.89-.52-.25-.39-.77.12h-.64s.39-.9.39-.9v-.77s.91-.25.91-.25h.64s.77-.5.77-.5l.77.14.51.39h.64s.52-.24.52-.24l.25.64-.65.5Zm11-23.59c-.87,1.09-2.15,2.59-1.47,3.98.53,1.09-.23,2.96-.24,4.2,0,.28.32,2.13.28,2.2-.64.94-.46,1.48-1.63,1.75-.23.05-.43,1.82-.39,2.07.12.76.88,1.33.87,2.14-.02,1.43-1.58,2.76-2.73,3.61.11-.85.18-1.09-.28-1.8-.22-.33-1.08-1.03-1.47-1.03-1.9-.02-2.86-.26-4.34-1.59.82.01,1.64.02,2.46.03.92.01,1.85.48,2.42-.22.7-.85.72-1.51.86-2.58.14-1,.06-1.33-.75-1.95-.82-.61-1.59-1.26-2.49-1.72-.86-.44-1.86.45-1.77-1.11.03-.51.84-.45.27-1.25-.25-.35-.69-.69-.75-1.1-.14-.93-.5-1.47-.31-2.39.51,1.22.99,2.18,1.75,3.27.96,1.35,2.26,1.53,3.71,2.17.3.13,1.57.45,1.61.16.07-.53.37-1.53.27-2.05-.11-.56-.79-1.33-1.19-1.74-.47-.48-.4-1.23-.81-1.87.83,0,1.28-.2,1.7.53.45.78.63.85,1.48,1.18.12-.95-.06-1.18-.23-2.05-.19-.98.28-1.28.92-1.91,1.17-1.14,1.16-2.84,1.69-4.38.32-.91.8,1.29.81,1.35.12.65.19,1.6-.23,2.13Zm26.74,8.69c.13,1.03.08,2.05.06,3.08-.01,1.02.39,2.59-.77,2.92-.21-1.16-.18-2.5-.84-3.47-.78-1.16-1.29-2.41-.44-3.46.82-1.02,1.36-1.83.72-3.2-.54-1.14-3.15-.44-3.94-.22-1.69.47-4.15,1.21-5.66.06-.68-.52-1.62-1.78-1.68-2.66-.06-.93.46-1.62.47-2.53.01-.87-.34-1.8-.64-2.61-.4-1.08-.47-1.64-.51-2.78-.04-1.14-.31-1.89-.72-2.93-.22-.56-.48-2.15.47-1.72.94.43.97,1.43,1.5,2.27.6.97.61,1.21.65,2.44.03,1.01.39,1.6.52,2.54.18,1.31.19,2.22.97,3.32.31.43.24.94.27,1.47.03.49.49.5.92.68.67.28,1.58-.42,2.28-.63,1.85-.56,3.43-.75,5.22.1.52,1.3.29,2.48,1.11,3.69.48.71-.08,2.7.04,3.62Zm11.54-28.84c.06,1.09.31,1.99.91,2.92.61.95.62,1.14.49,2.25-1.81-.26-3.5-.8-5.27-1.12-.91-.16-.79-1.1-.7-1.99.07-.76.02-1.83.31-2.54.43-1.08.63-1.73.65-2.89,0-.32,1-.73,1.29-.73.42,0,.58-.98.66-1.27.48-1.83.33-3.51.19-5.38,1.09-.8.99-.79,2.05.08.39.32.02.48.24.85.18.3.56.58.81.83.48.49-.37,3.72-.62,4.42-.3.81-.89,1.34-.96,2.22-.07.81-.09,1.54-.04,2.34Zm5.44-7.02c-.18.28.67,1.55.83,1.88-1.63.04-.89,2.48-.81,3.32.12,1.31-.36,2.62-1.83,2.92-.11-1.28-.23-2.47-.14-3.75.06-.87.1-1.47.56-2.24.29-.49-.34-.69-.75-1.01-.5-.4,2.33-4.81,2.78-5.52.3-.12.6-.25.9-.37-.02,1.42-.16,2.56.46,3.85-1.25-.01-1.34-.12-2.01.92Zm17.49-9.28c-.14.16-.33.21-.58.05-1.29-.8-2.23-1.71-2.21-3.31.02-1.41.5-2.36,1.2-3.58.48,1.41,1.09,2.65,1.74,3.98.2.41.31,2.31-.15,2.86Zm9.81-5.37c-.08.21-1.42.27-1.7.31-.12-1.32-.44-2.59-.58-3.9-.12-1.02.45-3.2,1.62-1.69.22.28,1.01,1.05.91,1.34-.28.82-.11,1.29.08,2.14.15.67-.09,1.17-.33,1.79Zm9.95-16.04c-.2.87-.26,1.77-.34,2.66-.08.89.05,2.09-.16,2.94-.31,1.24-.98,1.44-2.07,1.64-.56-.86-.39-1.29-.33-2.27.06-.97.13-1.94.14-2.92,0-.47-.11-.71-.3-1.16-.27-.63,0-.63.53-1.06.8-.67,2.16-1.49,2.43-1.15.41.5.25.67.1,1.31Z"/><path class="cls-1" d="m167.5,513.21s-.1.04-.17.07c0,0,0,0,0,0,.06-.02.11-.05.17-.07Z"/><path class="cls-1" d="m253.88,308.28s-.03.06-.03.08c0-.03.02-.05.03-.08Z"/><path class="cls-1" d="m36.92,527.49c.63-1.06.66-1.58.68-2.81.15.64.18,1.68.6,2.19.32.4.48.44.97.61.76.26-.1.61.26,1.06.14.18.92.13,1.03-.06.38-.64.57-.07.94-.43.85-.82-1.09-1.27.2-2.13.41.32.27.59.26.86,0,.19.86.27,1,.27.02-2.03-.37-5.9-3.32-4.88-.75.26-.96.4-1.5.98-.49.53-.8.63-1.14,1.3-.4.77-.74.92-.75,1.87-.01.94-.75,1.58-1.33,2.25.73.94,1.73-.45,2.1-1.09Z"/><path class="cls-1" d="m37.46,528.69l-.68.16-.69.76.68.35s.86-.25,1.11-.24c.26,0,1.11-.07,1.11-.07l-.84-.78-.68-.18Z"/></g><path class="cls-1" d="m281.08,42.07l-.85-.44-.6.25.68.44.59.69.18-.94Z"/><path class="cls-1" d="m269.85,32.03l.15.72.1.47.27-1.45-.52.25Z"/><path class="cls-1" d="m272.46,215.1s-.05,0-.08,0c0,.02-.02.04-.02.06,0,0,.09-.06.1-.06Z"/></svg>