<svg viewBox="0 0 1612.82 192.77" xmlns="http://www.w3.org/2000/svg"><path d="m36.94 13.8v64.4h-29.52v-64.4zm-28.44 1.07v62.25h27.37v-62.24h-27.37z"/><path d="m164.2 13.8v64.4h-34.88l-50.98-38.24v38.24h-29.52v-64.4h32.2l53.66 40.25v-40.25zm-28.44 1.07v41.32l-1.72-1.29-53.38-40.02h-30.77v62.25h27.37v-39.31l52.41 39.31h33.45v-62.25h-27.37z"/><path d="m278.88 13.8v16.1h-38.91v48.3h-29.52v-48.3h-38.91v-16.1h107.33zm-106.25 1.07v13.95h38.91v48.3h27.37v-48.29h38.91v-13.95h-105.18z"/><path d="m360.06 13.8c19.97 0 36.22 10.83 36.22 24.15 0 8.11-6.02 15.29-15.24 19.68l16.29 20.57h-33.24l-12.75-16.1h-35.55v16.1h-29.52v-64.4zm-72.71 1.07v62.25h27.37v-16.1h37.14l.32.41 12.42 15.69h30.5l-14.91-18.83-.84-1.06 1.22-.58c4.46-2.12 8.16-4.94 10.7-8.14 2.61-3.3 3.93-6.85 3.93-10.57 0-6.07-3.6-11.81-10.14-16.17-6.67-4.45-15.56-6.9-25.01-6.9h-72.71zm27.37 13.95h39.98c3.43 0 6.67.9 9.13 2.54 2.59 1.73 4.02 4.07 4.02 6.58s-1.43 4.85-4.02 6.58c-2.46 1.64-5.7 2.54-9.13 2.54h-39.98v-18.25zm1.07 17.17h38.91c6.66 0 12.07-3.61 12.07-8.05s-5.42-8.05-12.07-8.05h-38.91z"/><path d="m464.71 12.01c40.18 0 61.65 8.94 61.65 33.99 0 26.83-21.47 33.99-61.65 33.99-37.63 0-61.78-7.16-61.78-33.99 0-25.04 21.46-33.99 61.78-33.99zm-45.51 8.56c-5.12 2.64-8.84 5.95-11.36 10.11-2.58 4.25-3.83 9.26-3.83 15.32 0 6.41 1.37 11.66 4.19 16.05 2.68 4.18 6.6 7.46 11.98 10.04 9.73 4.66 23.88 6.83 44.54 6.83 10.57 0 19.21-.5 26.43-1.53 7.83-1.11 14.04-2.85 18.98-5.29 5.13-2.54 8.83-5.81 11.33-10.01 2.58-4.34 3.83-9.6 3.83-16.08 0-6.06-1.25-11.07-3.83-15.32-2.52-4.16-6.23-7.47-11.35-10.11-9.75-5.03-24.6-7.48-45.4-7.48s-35.75 2.45-45.51 7.48zm23.15 40.69c-5.58-2.97-8.29-7.96-8.29-15.26s2.71-12.29 8.29-15.26c4.81-2.56 11.71-3.7 22.36-3.7 18.32 0 30.53 3.22 30.53 18.96 0 7.29-2.71 12.28-8.27 15.26-4.8 2.56-11.66 3.7-22.25 3.7s-17.55-1.14-22.36-3.7zm22.36 2.63c18.72 0 29.45-3.58 29.45-17.89s-10.4-17.89-29.45-17.89-29.58 3.58-29.58 17.89 10.73 17.89 29.58 17.89z"/><path d="m591.75 13.8c38.43 0 58.97 8.47 58.97 32.2 0 25.42-20.53 32.2-58.97 32.2h-56.35v-64.4zm-55.27 1.07v62.25h55.27c10.1 0 18.37-.47 25.28-1.45 7.48-1.05 13.42-2.69 18.15-5.01 4.9-2.4 8.43-5.5 10.81-9.46 2.46-4.1 3.66-9.07 3.66-15.2 0-5.73-1.19-10.46-3.65-14.48-2.41-3.93-5.95-7.06-10.83-9.56-9.32-4.77-23.52-7.08-43.41-7.08h-55.27zm27.37 13.95h27.91c18.88 0 30.59 2.87 30.59 17.17 0 6.85-2.84 11.47-8.67 14.11-4.73 2.15-11.29 3.06-21.92 3.06h-27.91v-34.33zm1.07 33.27h26.83c17.9 0 29.52-2.54 29.52-16.1s-11.29-16.1-29.52-16.1h-26.83z"/><path d="m770.92 13.8v32.2c0 26.83-24.15 33.99-56.29 33.99s-56.4-7.16-56.4-33.99v-32.2h29.51v32.2c0 14.31 10.73 17.89 26.88 17.89s26.78-3.58 26.78-17.89v-32.2zm-28.44 1.07v31.12c0 7.21-2.59 12.2-7.91 15.24-4.43 2.54-10.77 3.72-19.94 3.72s-15.58-1.18-20.03-3.72c-5.33-3.04-7.93-8.03-7.93-15.24v-31.11h-27.37v31.12c0 6.27 1.38 11.68 4.11 16.06 2.55 4.1 6.39 7.48 11.41 10.04 8.98 4.58 22 6.81 39.81 6.81s30.75-2.23 39.71-6.81c5.01-2.56 8.84-5.94 11.39-10.04 2.73-4.39 4.11-9.79 4.11-16.06v-31.12h-27.37z"/><path d="m840.15 12.01c36.09 0 57.08 7.22 60.98 26.83h-32.69c-3.19-8.4-12.93-10.73-28.29-10.73-18.85 0-29.58 3.58-29.58 17.89s10.73 17.89 29.58 17.89c15.09 0 25-2.33 28.26-10.73h32.8c-3.68 20.98-24.72 26.83-61.06 26.83s-61.78-7.16-61.78-33.99c0-25.04 21.46-33.99 61.78-33.99zm-45.51 8.56c-5.12 2.64-8.84 5.95-11.36 10.11-2.58 4.25-3.83 9.26-3.83 15.32 0 6.41 1.37 11.66 4.19 16.05 2.68 4.18 6.6 7.46 11.98 10.04 9.73 4.66 23.88 6.83 44.54 6.83 19.54 0 33-1.74 42.38-5.47 5.1-2.03 8.99-4.63 11.89-7.95 2.73-3.12 4.53-6.81 5.49-11.26h-30.78c-1.77 3.98-5.07 6.75-10.06 8.46-4.53 1.55-10.54 2.27-18.91 2.27-10.65 0-17.55-1.14-22.36-3.7-5.58-2.97-8.29-7.96-8.29-15.26s2.71-12.29 8.29-15.26c4.81-2.56 11.71-3.7 22.36-3.7 12.66 0 24.89 1.32 29.01 10.73h30.63c-2.11-8.57-7.84-14.7-17.49-18.71-9.68-4.02-23.47-5.98-42.15-5.98-20.86 0-35.75 2.45-45.51 7.48z"/><path d="m939.54 13.8v64.4h-29.52v-64.4zm-28.44 1.07v62.25h27.37v-62.24h-27.37z"/><path d="m1066.81 13.8v64.4h-34.88l-50.98-38.24v38.24h-29.52v-64.4h32.2l53.66 40.25v-40.25zm-28.44 1.07v41.32l-1.72-1.29-53.38-40.03h-30.77v62.25h27.37v-39.31l52.41 39.31h33.45v-62.24h-27.37z"/><path d="m1137.5 12.01c34.97 0 55.76 6.78 60.57 25.04h-33.1c-3.86-6.95-13.25-8.94-27.47-8.94-18.85 0-29.58 3.58-29.58 17.89s10.73 17.89 29.58 17.89c11.19 0 19.53-1.28 24.42-5.37h-21.8v-14.31h59.03v33.99h-21.47v-2.81c-10.04 3.37-23.49 4.6-40.18 4.6-37.63 0-61.78-7.16-61.78-33.99 0-25.04 21.46-33.99 61.78-33.99zm-45.51 8.56c-5.12 2.64-8.84 5.95-11.36 10.11-2.58 4.25-3.83 9.26-3.83 15.32 0 6.41 1.37 11.66 4.19 16.05 2.68 4.18 6.6 7.46 11.98 10.04 9.73 4.66 23.88 6.83 44.54 6.83 17.93 0 30.59-1.45 39.84-4.55l1.41-.47v3.23h19.32v-31.84h-56.88v12.16h23.69l-2.27 1.9c-4.65 3.88-12.4 5.62-25.11 5.62-10.65 0-17.55-1.14-22.36-3.7-5.58-2.97-8.29-7.96-8.29-15.26s2.71-12.29 8.29-15.26c4.81-2.56 11.71-3.7 22.36-3.7 7.84 0 13.53.61 17.92 1.91 4.79 1.42 8.12 3.73 10.16 7.03h31.06c-2.52-7.9-8.4-13.57-17.93-17.3-9.63-3.77-23.11-5.6-41.21-5.6-20.86 0-35.75 2.45-45.51 7.48z"/><path d="m1375.14 13.8v16.1h-38.91v48.3h-29.52v-48.3h-38.91v-16.1h107.33zm-106.25 1.07v13.95h38.91v48.3h27.37v-48.29h38.91v-13.95h-105.18z"/><path d="m1495.23 13.8v64.4h-29.52v-24.15h-53.66v24.15h-29.52v-64.4h29.52v24.15h53.66v-24.15zm-28.44 1.07v24.15h-55.81v-24.14h-27.37v62.25h27.37v-24.15h55.81v24.15h27.37v-62.25h-27.37z"/><path d="m1606.38 13.8v16.1h-69.76v8.05h64.4v16.1h-64.4v8.05h69.76v16.1h-99.28v-64.4zm-98.21 1.07v62.25h97.13v-13.95h-69.76v-10.2h64.4v-13.95h-64.4v-10.2h69.76v-13.95z"/><path d="m97.17 146.56v18.89h-90.69v-75.58h27.71v56.69z"/><path d="m104.94 165.45v-75.58h27.71v75.58z" fill="#c8102e"/><path d="m145.65 165.45v-75.58h90.7v18.9h-62.98v9.45h57.95v18.89h-57.95v28.34h-27.71z" fill="#c8102e"/><path d="m340.89 108.77h-36.53v56.68h-27.71v-56.68h-36.53v-18.9h100.77z" fill="#c8102e"/><path d="m376.39 165.45v-75.58h52.91c36.09 0 55.37 9.95 55.37 37.79 0 29.83-19.28 37.79-55.37 37.79zm52.91-18.89c16.81 0 27.71-2.98 27.71-18.9s-10.6-18.89-27.71-18.89h-25.19v37.79z"/><path d="m494.5 165.45v-75.58h27.71v75.58z" fill="#c8102e"/><path d="m647.96 125.56v39.89h-20.16v-3.3c-9.42 3.95-22.06 5.4-37.73 5.4-35.33 0-58-8.4-58-39.89 0-29.39 20.16-39.89 58-39.89 32.84 0 52.36 7.95 56.87 29.39h-31.08c-3.62-8.16-12.44-10.5-25.79-10.5-17.7 0-27.77 4.2-27.77 20.99s10.08 20.99 27.77 20.99c10.51 0 18.33-1.5 22.93-6.3h-20.47v-16.8h55.42z" fill="#c8102e"/><path d="m756.55 127.66 40.31 37.79h-35.27l-22.67-21.26-22.67 21.26h-35.27l40.31-37.79-40.31-37.79h35.27l22.67 21.26 22.67-21.26h35.27z"/><g fill="#c8102e"><path d="m899.57 118.22c0 15.63-15.26 28.34-34.01 28.34h-34.01v18.89h-27.71v-75.58h61.72c18.75 0 34.01 12.71 34.01 28.34zm-27.71 0c0-5.21-5.09-9.45-11.34-9.45h-28.97v18.89h28.97c6.25 0 11.34-4.24 11.34-9.45z"/><path d="m1001.56 146.56v18.89h-93.21v-75.58h93.21v18.9h-65.5v9.45h60.46v18.89h-60.46v9.45z"/><path d="m1073.95 146.56h-33.38v18.89h-27.71v-75.58h69.28c18.75 0 34.01 12.71 34.01 28.34 0 9.51-5.66 17.95-14.31 23.09l15.29 24.14h-31.21l-11.97-18.89zm-33.38-18.9h36.53c6.25 0 11.34-4.24 11.34-9.45s-5.08-9.45-11.34-9.45h-36.53v18.89z"/><path d="m1126.54 165.45v-75.58h27.71v75.58z"/><path d="m1260.46 146.56v18.89h-93.21v-75.58h93.21v18.9h-65.5v9.45h60.46v18.89h-60.46v9.45z"/><path d="m1380.09 89.87v75.58h-32.75l-47.87-44.88v44.88h-27.71v-75.58h30.23l50.39 47.24v-47.24z"/><path d="m1505.21 136.06c-3.46 24.62-23.21 31.49-57.33 31.49s-58-8.4-58-39.89c0-29.39 20.16-39.89 58-39.89 33.89 0 53.59 8.47 57.26 31.49h-30.69c-3-9.86-12.14-12.6-26.56-12.6-17.7 0-27.77 4.2-27.77 20.99s10.08 20.99 27.77 20.99c14.17 0 23.47-2.73 26.54-12.6h30.8z"/><path d="m1608 146.56v18.89h-93.21v-75.58h93.21v18.9h-65.5v9.45h60.46v18.89h-60.46v9.45z"/></g></svg>