<svg viewBox="0 0 385.34 80.12" xmlns="http://www.w3.org/2000/svg"><g fill="#c8102e"><path d="m22.72 34.78c-13.09 0-21.48-3.11-21.48-14.78 0-10.89 7.46-14.78 21.48-14.78s21.44 3.89 21.44 14.78c0 11.66-7.47 14.78-21.44 14.78zm0-22.55c-6.55 0-10.29 1.56-10.29 7.78s3.73 7.78 10.29 7.78 10.24-1.56 10.24-7.78-3.62-7.78-10.24-7.78z"/><path d="m46.52 6h10.26v14c0 6.22 3.73 7.78 9.35 7.78s9.31-1.56 9.31-7.78v-14h10.26v14c0 11.66-8.4 14.78-19.58 14.78s-19.62-3.11-19.62-14.78v-14z"/><path d="m111.79 27h-12.37v7h-10.26v-28h25.66c6.95 0 12.6 4.71 12.6 10.5 0 3.53-2.1 6.65-5.3 8.55l5.66 8.94h-11.56l-4.43-7zm-12.37-7h13.53c2.32 0 4.2-1.57 4.2-3.5s-1.88-3.5-4.2-3.5h-13.53z"/><path d="m160.59 5.22c13.06 0 20.06 1.55 20.06 10.11h-10.26c0-3.11-3.73-3.11-9.8-3.11s-9.7 0-9.7 1.94c0 2.37 3.94 2.17 9.85 2.34h.04c12.52.36 20.36 1.16 20.36 8.94h-.02c0 7.78-7.98 9.33-20.51 9.33s-20.53-1.56-20.53-10.11h10.27c0 3.11 4.24 3.11 10.26 3.11s10.17 0 10.17-2.33c0-2.74-4.38-2.55-10.29-2.72h-.04c-12.52-.36-19.9-1.16-19.9-8.55s7.51-8.94 20.04-8.94zm-14.55 2.14c-3.43 1.3-5.02 3.47-5.02 6.81s1.52 5.3 4.94 6.47c3.19 1.1 7.74 1.42 14.51 1.62h.04s0 0 0 0c.56.02 1.11.03 1.63.04 5.29.12 9.11.21 9.11 3.15 0 .72-.32 1.31-.96 1.73-.52.35-1.27.6-2.29.77-1.84.3-4.41.3-7.38.3-5.95 0-10.32 0-10.7-3.11h-9.35c.06 1.8.48 3.27 1.28 4.46.83 1.24 2.07 2.19 3.79 2.9 3.05 1.27 7.53 1.81 14.98 1.81s11.68-.53 14.79-1.72c3.58-1.37 5.25-3.64 5.25-7.15v-.47h.01c-.14-3.2-1.75-5.17-5.16-6.35-3.62-1.25-9.04-1.5-14.74-1.66h-.04c-.65-.02-1.27-.03-1.87-.05-5.08-.11-8.43-.19-8.43-2.75 0-1.55 1.73-1.98 3.04-2.16 1.72-.25 4.11-.25 7.14-.25s5.53 0 7.28.4c1.82.42 2.79 1.31 2.96 2.71h9.35c-.06-1.81-.46-3.28-1.22-4.47-.79-1.24-1.98-2.19-3.63-2.9-2.94-1.27-7.35-1.81-14.75-1.81s-11.52.51-14.55 1.67z"/><path d="m223.39 6v28h-10.26v-10.5h-18.66v10.5h-10.26v-28h10.26v10.5h18.66v-10.5zm-9.8.47v10.5h-19.6v-10.5h-9.33v27.06h9.33v-10.5h19.6v10.5h9.33v-27.06z"/><path d="m247.72 5.23c13.98 0 21.44 3.89 21.44 14.78 0 11.66-7.47 14.78-21.44 14.78-13.09 0-21.48-3.11-21.48-14.78 0-10.89 7.46-14.78 21.48-14.78zm-15.75 3.7c-1.77 1.14-3.06 2.57-3.93 4.38-.89 1.83-1.34 4.09-1.34 6.7 0 2.76.49 5.12 1.47 7.02.93 1.81 2.29 3.23 4.14 4.35 3.36 2.01 8.26 2.95 15.41 2.95 3.67 0 6.66-.22 9.17-.66 2.7-.48 4.85-1.23 6.55-2.28 1.77-1.1 3.05-2.51 3.92-4.34.9-1.9 1.34-4.2 1.34-7.03 0-5.17-1.72-8.79-5.27-11.08-3.37-2.17-8.5-3.23-15.71-3.23s-12.38 1.06-15.75 3.23zm7.89 17.69c-1.95-1.3-2.89-3.46-2.89-6.61s.95-5.31 2.89-6.61c1.7-1.13 4.12-1.63 7.86-1.63s6.19.5 7.87 1.63c1.91 1.29 2.84 3.45 2.84 6.61s-.94 5.31-2.89 6.61c-1.69 1.13-4.1 1.63-7.82 1.63s-6.16-.5-7.86-1.63zm7.86 1.17c6.51 0 10.24-1.56 10.24-7.78s-3.62-7.78-10.24-7.78-10.29 1.56-10.29 7.78 3.73 7.78 10.29 7.78z"/><path d="m297.74 6c6.95 0 12.6 4.71 12.6 10.5 0 3.53-2.1 6.65-5.3 8.55l5.66 8.94h-11.56l-4.43-7h-12.37v7h-10.26v-27.99zm-25.2.47v27.06h9.33v-7h13.09l4.43 7h10.46l-5.21-8.23-.26-.41.41-.25c1.54-.91 2.82-2.13 3.7-3.52.9-1.42 1.38-3.02 1.38-4.63 0-5.53-5.44-10.03-12.13-10.03h-25.2zm9.33 6.07h14c2.57 0 4.67 1.78 4.67 3.96s-2.09 3.97-4.67 3.97h-14zm.47 7.46h13.53c2.32 0 4.2-1.57 4.2-3.5s-1.88-3.5-4.2-3.5h-13.53z"/><path d="m348.76 6v7h-13.53v21h-10.27v-21h-13.53v-7zm-36.86.47v6.07h13.53v21h9.33v-21h13.53v-6.07z"/></g><path d="m12.66 42v21h23.33v7h-33.59v-28zm-9.8.47v27.06h32.66v-6.07h-23.32v-21h-9.33z"/><path d="m58.4 41.23c13.98 0 21.44 3.89 21.44 14.78 0 11.66-7.47 14.78-21.44 14.78-13.09 0-21.48-3.11-21.48-14.78 0-10.89 7.46-14.78 21.48-14.78zm-15.75 3.7c-1.77 1.14-3.06 2.57-3.93 4.38-.89 1.83-1.34 4.09-1.34 6.7 0 2.76.49 5.12 1.47 7.02.93 1.81 2.29 3.23 4.14 4.35 3.36 2.01 8.26 2.95 15.41 2.95 3.67 0 6.66-.22 9.17-.66 2.7-.48 4.85-1.23 6.55-2.28 1.77-1.1 3.05-2.51 3.92-4.34.9-1.9 1.34-4.2 1.34-7.03 0-5.17-1.72-8.79-5.27-11.08-3.37-2.17-8.5-3.23-15.71-3.23s-12.38 1.06-15.75 3.23zm7.89 17.69c-1.95-1.3-2.89-3.46-2.89-6.61s.95-5.31 2.89-6.61c1.7-1.13 4.12-1.63 7.86-1.63s6.19.5 7.87 1.63c1.91 1.29 2.84 3.45 2.84 6.61s-.94 5.31-2.89 6.61c-1.69 1.13-4.1 1.63-7.82 1.63s-6.16-.5-7.86-1.63zm7.86 1.17c6.51 0 10.24-1.56 10.24-7.78s-3.62-7.78-10.24-7.78-10.29 1.56-10.29 7.78 3.73 7.78 10.29 7.78z"/><path d="m122.89 42v28h-12.13l-17.73-16.62v16.62h-10.26v-28h11.2l18.66 17.5v-17.5zm-9.8.47v18.11l-.79-.74-18.53-17.37h-10.55v27.06h9.33v-17.23l.79.74 17.6 16.5h11.48v-27.06h-9.33z"/><path d="m147.2 41.23c12.16 0 19.39 2.95 21.07 10.89h-11.51c-1.34-3.02-4.61-3.89-9.55-3.89-6.55 0-10.29 1.56-10.29 7.78s3.73 7.78 10.29 7.78c3.89 0 6.79-.56 8.49-2.33h-7.58v-6.22h20.53v14.78h-7.47v-1.22c-3.49 1.46-8.17 2-13.98 2-13.09 0-21.48-3.11-21.48-14.78 0-10.89 7.46-14.78 21.48-14.78zm-15.75 3.7c-1.77 1.14-3.06 2.57-3.93 4.38-.89 1.83-1.34 4.09-1.34 6.7 0 2.76.49 5.12 1.47 7.02.93 1.81 2.29 3.23 4.14 4.35 3.36 2.01 8.26 2.95 15.41 2.95 6.21 0 10.6-.62 13.8-1.96l.65-.27v1.46h6.53v-13.84h-19.6v5.29h8.21l-.76.79c-1.64 1.71-4.37 2.48-8.83 2.48-3.74 0-6.16-.5-7.86-1.63-1.95-1.3-2.89-3.46-2.89-6.61s.95-5.31 2.89-6.61c1.7-1.13 4.12-1.63 7.86-1.63s8.13.47 9.85 3.89h10.63c-.87-3.45-2.91-5.92-6.22-7.54-3.33-1.63-7.99-2.42-14.26-2.42-7.22 0-12.38 1.06-15.75 3.23z"/><path d="m222.7 61.44h-.02c0 7.78-7.98 9.33-20.51 9.33s-20.53-1.56-20.53-10.11h10.27c0 3.11 4.24 3.11 10.26 3.11s10.17 0 10.17-2.33c0-2.74-4.38-2.55-10.29-2.72 0 0-.01 0-.02 0h-.02c-12.52-.36-19.9-1.16-19.9-8.55s7.51-8.94 20.04-8.94 20.06 1.55 20.06 10.11h-10.26c0-3.11-3.73-3.11-9.8-3.11s-9.71 0-9.71 1.95c0 2.37 3.94 2.16 9.85 2.33h.04c12.52.36 20.36 1.16 20.36 8.94z"/><path d="m261.12 49h-13.53v21h-10.27v-21h-13.53v-7h37.33z"/><path d="m283.52 70.78c-13.09 0-21.48-3.11-21.48-14.78 0-10.89 7.46-14.78 21.48-14.78s21.44 3.89 21.44 14.78c0 11.66-7.47 14.78-21.44 14.78zm0-22.55c-6.55 0-10.29 1.56-10.29 7.78s3.73 7.78 10.29 7.78 10.24-1.56 10.24-7.78-3.62-7.78-10.24-7.78z"/><path d="m330.51 63h-12.37v7h-10.26v-28h25.66c6.95 0 12.6 4.71 12.6 10.5 0 3.53-2.1 6.65-5.3 8.55l5.66 8.94h-11.56l-4.43-7zm-12.37-7h13.53c2.32 0 4.2-1.57 4.2-3.5s-1.88-3.5-4.2-3.5h-13.53z"/><path d="m369.94 59.77v10.23h-10.27v-10.23l-15.4-17.77h12.13l8.4 9.69 8.4-9.69h12.13l-15.4 17.77z"/></svg>