<svg viewBox="0 0 324.72 80.12" xmlns="http://www.w3.org/2000/svg"><g fill="#c8102e"><path d="m25.26 6c6.95 0 12.6 4.71 12.6 10.5s-5.65 10.5-12.6 10.5h-12.6v7h-10.26v-28zm-22.4.47v27.06h9.33v-7h13.06c6.69 0 12.13-4.5 12.13-10.03s-5.44-10.03-12.13-10.03h-22.38zm9.33 6.07h11.2c2.57 0 4.67 1.78 4.67 3.96s-2.09 3.97-4.67 3.97h-11.2zm.47 7.46h10.73c2.32 0 4.2-1.57 4.2-3.5s-1.88-3.5-4.2-3.5h-10.73z"/><path d="m61.93 6 16.49 28h-11.21l-1.82-3.11h-18.07l-1.84 3.11h-11.24l16.47-28zm-10.96.47-15.92 27.06h10.15l1.7-2.88.14-.23h18.6l.14.23 1.69 2.88h10.13l-15.94-27.06zm-.01 17.18 4.94-8.35.4-.68.4.68 4.89 8.35.41.7h-11.46l.42-.71zm.4.24h9.83l-4.89-8.35z"/><path d="m105.58 6c6.95 0 12.6 4.71 12.6 10.5 0 3.53-2.1 6.65-5.3 8.55l5.66 8.94h-11.56l-4.43-7h-12.37v7h-10.26v-27.99zm-25.2.47v27.06h9.33v-7h13.09l4.43 7h10.46l-5.21-8.23-.26-.41.41-.25c1.54-.91 2.82-2.13 3.7-3.52.9-1.42 1.38-3.02 1.38-4.63 0-5.53-5.44-10.03-12.13-10.03h-25.2zm9.33 6.07h14c2.57 0 4.67 1.78 4.67 3.96s-2.09 3.97-4.67 3.97h-14zm.47 7.46h13.53c2.32 0 4.2-1.57 4.2-3.5s-1.88-3.5-4.2-3.5h-13.53z"/><path d="m156.61 6v7h-13.53v21h-10.27v-21h-13.53v-7zm-36.86.47v6.07h13.53v21h9.33v-21h13.53v-6.07z"/><path d="m178.15 5.22c13.06 0 20.06 1.55 20.06 10.11h-10.26c0-3.11-3.73-3.11-9.8-3.11s-9.7 0-9.7 1.94c0 2.37 3.94 2.17 9.85 2.34h.04c12.52.36 20.36 1.16 20.36 8.94h-.02c0 7.78-7.98 9.33-20.51 9.33s-20.53-1.56-20.53-10.11h10.27c0 3.11 4.24 3.11 10.26 3.11s10.17 0 10.17-2.33c0-2.74-4.38-2.55-10.29-2.72h-.04c-12.52-.36-19.9-1.16-19.9-8.55s7.51-8.94 20.04-8.94zm-14.55 2.14c-3.43 1.3-5.02 3.47-5.02 6.81s1.52 5.3 4.94 6.47c3.19 1.1 7.74 1.42 14.51 1.62h.04s0 0 0 0c.56.02 1.11.03 1.63.04 5.29.12 9.11.21 9.11 3.15 0 .72-.32 1.31-.96 1.73-.52.35-1.27.6-2.29.77-1.84.3-4.41.3-7.38.3-5.95 0-10.32 0-10.7-3.11h-9.35c.06 1.8.48 3.27 1.28 4.46.83 1.24 2.07 2.19 3.79 2.9 3.05 1.27 7.53 1.81 14.98 1.81s11.68-.53 14.79-1.72c3.58-1.37 5.25-3.64 5.25-7.15v-.47h.01c-.14-3.2-1.75-5.17-5.16-6.35-3.62-1.25-9.04-1.5-14.74-1.66h-.04c-.65-.02-1.27-.03-1.87-.05-5.08-.11-8.43-.19-8.43-2.75 0-1.55 1.73-1.98 3.04-2.16 1.72-.25 4.11-.25 7.14-.25s5.53 0 7.28.4c1.82.42 2.79 1.31 2.96 2.71h9.35c-.06-1.81-.46-3.28-1.22-4.47-.79-1.24-1.98-2.19-3.63-2.9-2.94-1.27-7.35-1.81-14.75-1.81s-11.52.51-14.55 1.67z"/><path d="m42.42 61.44h-.02c0 7.78-7.98 9.33-20.51 9.33s-20.53-1.56-20.53-10.11h10.27c0 3.11 4.24 3.11 10.26 3.11s10.17 0 10.17-2.33c0-2.74-4.38-2.55-10.29-2.72 0 0-.01 0-.02 0h-.02c-12.52-.36-19.9-1.16-19.9-8.55s7.51-8.94 20.04-8.94 20.06 1.55 20.06 10.11h-10.26c0-3.11-3.73-3.11-9.8-3.11s-9.71 0-9.71 1.95c0 2.37 3.94 2.16 9.85 2.33h.04c12.52.36 20.36 1.16 20.36 8.94z"/><path d="m80.01 63v7h-34.53v-28h34.53v7h-24.26v3.5h22.4v7h-22.4v3.5z"/><path d="m106.03 63h-12.37v7h-10.26v-28h25.66c6.95 0 12.6 4.71 12.6 10.5 0 3.53-2.1 6.65-5.3 8.55l5.66 8.94h-11.56l-4.43-7zm-12.37-7h13.53c2.32 0 4.2-1.57 4.2-3.5s-1.88-3.5-4.2-3.5h-13.53z"/><path d="m163.44 42-16.8 28h-9.33l-16.8-28h11.2l10.26 17.11 10.27-17.11z"/><path d="m164.96 70v-28h10.26v28z"/><path d="m220.8 59.11c-1.28 9.12-8.6 11.66-21.24 11.66s-21.48-3.11-21.48-14.78c0-10.89 7.46-14.78 21.48-14.78 12.55 0 19.85 3.14 21.21 11.66h-11.37c-1.11-3.65-4.5-4.67-9.84-4.67-6.55 0-10.29 1.56-10.29 7.78s3.73 7.78 10.29 7.78c5.25 0 8.69-1.01 9.83-4.67h11.41z"/><path d="m223.56 70v-28h10.26v28z"/><path d="m277.96 42v28h-12.13l-17.73-16.62v16.62h-10.26v-28h11.2l18.66 17.5v-17.5h10.27z"/><path d="m323.72 55.22v14.78h-7.47v-1.22c-3.49 1.46-8.17 2-13.98 2-13.09 0-21.48-3.11-21.48-14.78 0-10.89 7.46-14.78 21.48-14.78 12.16 0 19.39 2.95 21.07 10.89h-11.51c-1.34-3.02-4.61-3.89-9.55-3.89-6.55 0-10.29 1.56-10.29 7.78s3.73 7.78 10.29 7.78c3.89 0 6.79-.56 8.49-2.33h-7.58v-6.22h20.53z"/></g></svg>