<svg viewBox="0 0 392.6 80.12" xmlns="http://www.w3.org/2000/svg"><path d="m40.66 25.93c0 4.45-4.34 8.07-9.68 8.07h-28.58v-28h26.72c5.34 0 9.68 3.62 9.68 8.07 0 1.99-.87 3.82-2.32 5.23 2.53 1.46 4.18 3.89 4.18 6.63zm-28-12.93v3.89h13.53c1.29 0 2.33-.87 2.33-1.94s-1.05-1.94-2.33-1.94h-13.53zm17.73 12.05c0-1.07-1.05-1.94-2.33-1.94h-15.4v3.89h15.4c1.29 0 2.33-.87 2.33-1.94z"/><path d="m42.84 6h10.26v14c0 6.22 3.73 7.78 9.35 7.78s9.31-1.56 9.31-7.78v-14h10.26v14c0 11.66-8.4 14.78-19.58 14.78s-19.62-3.11-19.62-14.78v-14z"/><path d="m108.46 23.77v10.23h-10.27v-10.23l-15.4-17.77h12.13l8.4 9.69 8.4-9.69h12.13l-15.4 17.77z"/><path d="m135.84 34v-28h10.26v28z"/><path d="m185.49 13h-13.53v21h-10.27v-21h-13.53v-7h37.33z"/><path d="m208.46 6v21h23.33v7h-33.59v-28zm-9.8.47v27.06h32.66v-6.07h-23.33v-20.99z"/><path d="m268.4 6v7h-24.26v3.5h22.4v7h-22.4v3.5h24.26v7h-34.53v-28zm-34.06.47v27.06h33.59v-6.07h-24.26v-4.43h22.4v-6.07h-22.4v-4.43h24.26v-6.07h-33.59z"/><path d="m296.97 6 16.49 28h-11.21l-1.82-3.11h-18.07l-1.84 3.11h-11.24l16.47-28zm-10.96.47-15.92 27.06h10.15l1.7-2.88.14-.23h18.6l.14.23 1.69 2.88h10.13l-15.94-27.06zm-.01 17.18 4.94-8.35.4-.68.4.68 4.89 8.35.41.7h-11.46l.42-.71zm.4.24h9.83l-4.89-8.35z"/><path d="m333.47 5.22c13.06 0 20.06 1.55 20.06 10.11h-10.26c0-3.11-3.73-3.11-9.8-3.11s-9.7 0-9.7 1.94c0 2.37 3.94 2.17 9.85 2.34h.04c12.52.36 20.36 1.16 20.36 8.94h-.02c0 7.78-7.98 9.33-20.51 9.33s-20.53-1.56-20.53-10.11h10.27c0 3.11 4.24 3.11 10.26 3.11s10.17 0 10.17-2.33c0-2.74-4.38-2.55-10.29-2.72h-.04c-12.52-.36-19.9-1.16-19.9-8.55s7.51-8.94 20.04-8.94zm-14.55 2.14c-3.43 1.3-5.02 3.47-5.02 6.81s1.52 5.3 4.94 6.47c3.19 1.1 7.74 1.42 14.51 1.62h.04s0 0 0 0c.56.02 1.11.03 1.63.04 5.29.12 9.11.21 9.11 3.15 0 .72-.32 1.31-.96 1.73-.52.35-1.27.6-2.29.77-1.84.3-4.41.3-7.38.3-5.95 0-10.32 0-10.7-3.11h-9.35c.06 1.8.48 3.27 1.28 4.46.83 1.24 2.07 2.19 3.79 2.9 3.05 1.27 7.53 1.81 14.98 1.81s11.68-.53 14.79-1.72c3.58-1.37 5.25-3.64 5.25-7.15v-.47h.01c-.14-3.2-1.75-5.17-5.16-6.35-3.62-1.25-9.04-1.5-14.74-1.66h-.04c-.65-.02-1.27-.03-1.87-.05-5.08-.11-8.43-.19-8.43-2.75 0-1.55 1.73-1.98 3.04-2.16 1.72-.25 4.11-.25 7.14-.25s5.53 0 7.28.4c1.82.42 2.79 1.31 2.96 2.71h9.35c-.06-1.81-.46-3.28-1.22-4.47-.79-1.24-1.98-2.19-3.63-2.9-2.94-1.27-7.35-1.81-14.75-1.81s-11.52.51-14.55 1.67z"/><path d="m391.6 6v7h-24.26v3.5h22.4v7h-22.4v3.5h24.26v7h-34.53v-28zm-34.06.47v27.06h33.59v-6.07h-24.26v-4.43h22.4v-6.07h-22.4v-4.43h24.26v-6.07h-33.59z"/><path d="m12.66 42v28h-10.26v-28zm-9.8.47v27.06h9.33v-27.06h-9.32z"/><path d="m52.05 42v7h-13.53v21h-10.27v-21h-13.53v-7zm-36.86.47v6.07h13.53v21h9.33v-21h13.53v-6.07z"/><path d="m87.39 63h-12.37v7h-10.26v-28h25.66c6.95 0 12.6 4.71 12.6 10.5 0 3.53-2.1 6.65-5.3 8.55l5.66 8.94h-11.56l-4.43-7zm-12.37-7h13.53c2.32 0 4.2-1.57 4.2-3.5s-1.88-3.5-4.2-3.5h-13.53z"/><path d="m140.61 63v7h-34.53v-28h34.53v7h-24.26v3.5h22.4v7h-22.4v3.5z"/><path d="m184.12 42v28h-12.13l-17.73-16.62v16.62h-10.26v-28h11.2l18.66 17.5v-17.5h10.27z"/><path d="m223.48 49h-13.53v21h-10.27v-21h-13.53v-7h37.33z"/><path d="m236.2 70v-28h10.26v28z"/><path d="m285.84 49h-13.53v21h-10.27v-21h-13.53v-7h37.33z"/></svg>